<?xml version="1.0" encoding="UTF-8"?>
<svg id="Camada_1" xmlns="http://www.w3.org/2000/svg" viewBox="0 0 1080 1920">
  <defs>
    <style>
      .cls-1 {
        fill: #f1bf66;
      }

      .cls-2 {
        fill: #f3efe9;
      }

      .cls-3 {
        fill: #252856;
        stroke: #1d1d1b;
        stroke-miterlimit: 10;
      }
    </style>
  </defs>
  <rect class="cls-3" width="1080" height="1920"/>
  <g>
    <path class="cls-2" d="M234.3,1735.48c-1.87,0-3.13-1.97-3.83-5.85-1.77-10.04-2.62-19.73-2.62-29.07.96-.66,1.72-1.01,2.22-1.01h2.42c.76,0,2.42,1.56,5.05,4.64,4.49-4.84,9.79-7.27,15.95-7.27h5.45c1.92,0,4.54,1.56,7.87,4.64h.2c4.59-4.84,9.54-7.27,14.94-7.27h3.23c10.45,0,17.71,6.46,21.8,19.38,1.77,6.51,2.62,11.35,2.62,14.53-2.88,2.42-4.59,3.63-5.25,3.63h-.81c-3.58,0-6.16-6.41-7.67-19.17-3.63-5.65-7.82-8.48-12.51-8.48-5.45,0-9.64,3.83-12.51,11.5.55,2.22.81,4.04.81,5.45v5.25c0,2.67-1.16,4.49-3.43,5.45h-4.04c-2.83,0-4.24-7.06-4.24-21.19-1.67-2.98-3.38-4.44-5.05-4.44h-.2c-2.07,0-5.3,1.56-9.69,4.64-2.98,2.93-4.44,6.36-4.44,10.29v10.9c-.55,2.27-1.61,3.43-3.23,3.43h-3.03Z"/>
    <path class="cls-2" d="M335.94,1726.5c0,1.56,1.72,2.62,5.15,3.08,4.19,0,11.05-2.07,20.64-6.16h1.06c.96,0,2.02,1.01,3.08,3.08v1.01c-1.92,8.28-9.49,12.41-22.71,12.41h-3.13c-12.36-2.83-18.57-9.69-18.57-20.64v-6.21c2.27-12.41,7.42-18.62,15.49-18.62h2.07c13.78,1.16,20.64,5.65,20.64,13.47-7.06,11.66-14.99,17.51-23.72,17.51v1.06ZM331.8,1717.22v1.01c11.71-2.98,17.56-6.41,17.56-10.29-5.45-2.07-8.88-3.13-10.34-3.13-4.79,1.67-7.22,5.8-7.22,12.41Z"/>
    <path class="cls-2" d="M407.7,1705.21c-5.6,0-9.08,4.44-10.39,13.37,0,12.57-2.67,18.87-8.07,18.87-4.29,0-7.37-10.75-9.23-32.25l2.32-1.11h2.32l3.43,2.22c4.59-8.12,12.72-12.21,24.27-12.21,10.45,0,19.28,8.53,26.54,25.58v5.55c0,8.88-3.08,13.32-9.23,13.32-3.08-1.51-4.64-3.38-4.64-5.55,0-1.56.4-5.65,1.16-12.21,0-7.72-5.75-12.92-17.31-15.59h-1.16Z"/>
    <path class="cls-2" d="M487.23,1714.09l-2.83-17.86c1.26-2.37,3.13-3.58,5.65-3.58,5.6,2.78,8.38,10.19,8.38,22.35-2.37,16.7-8.93,25.03-19.63,25.03s-18.72-5.05-24.27-15.19c-.66-3.28-.96-5.7-.96-7.17,1.92-17.31,4.74-25.94,8.43-25.94h1.87c.61,0,1.87,1.21,3.73,3.58l-3.73,21.45c0,8.33,5.3,12.51,15.9,12.51,5-1.62,7.47-6.66,7.47-15.19Z"/>
    <path class="cls-2" d="M557.42,1739.22c-4.54,0-12.16-14.94-22.81-44.76v-.86c0-1.26,1.41-2.12,4.24-2.52,3.68,1.26,9.59,10.8,17.71,28.71.2,1.11.76,1.67,1.72,1.67,0-.71,4.24-9.13,12.67-25.33,1.82-3.94,4.34-5.9,7.62-5.9,2.32.76,3.99,2.17,5.05,4.24v1.67c0,1.56-5.65,13.12-16.9,34.67-2.57,5.6-5.7,8.43-9.29,8.43Z"/>
    <path class="cls-2" d="M596.03,1679.88c.71-1.87,2.83-2.83,6.36-2.83h1.06c2.83,1.01,4.24,3.23,4.24,6.66,0,.91-1.06,1.87-3.18,2.83h-5.3c-1.01,0-2.07-.96-3.18-2.83v-3.83ZM600.27,1695.02h2.12c5.65,0,8.48,11.71,8.48,35.17v1.61c0,.81-1.41,1.87-4.24,3.18-3.78,0-6.26-1.06-7.42-3.18-1.41-17.66-2.12-29.42-2.12-35.22l3.18-1.56Z"/>
    <path class="cls-2" d="M633.37,1738.87c-3.48,0-7.01-14.33-10.55-43.04.96-2.57,1.92-3.83,2.88-3.83h1.92c2.93,0,5.15,6.06,6.71,18.17h.96c3.88-9.54,10.29-14.33,19.12-14.33,2.57.96,3.83,1.87,3.83,2.83v3.83c0,1.56-3.53,3.48-10.55,5.75-3.83,4.24-6.71,13.83-8.63,28.71l-2.83,1.92h-2.88Z"/>
    <path class="cls-2" d="M669.35,1699.51c0-2.37,4.09-3.73,12.31-4.09v-10.65c0-.81.81-1.61,2.42-2.47h1.67c3.83,2.17,5.75,6.56,5.75,13.12h9.84c5.45,0,8.17,2.17,8.17,6.56,0,2.83-1.92,4.74-5.75,5.75-5.6-1.11-9.38-1.67-11.45-1.67v.81c2.17,16.3,3.28,25.84,3.28,28.71,0,1.46-1.92,2.52-5.75,3.28-3.94,0-6.66-10.95-8.17-32.8h-1.67c-6.26,0-9.79-1.36-10.65-4.09v-2.47Z"/>
    <path class="cls-2" d="M758.27,1714.09l-2.83-17.86c1.26-2.37,3.13-3.58,5.65-3.58,5.6,2.78,8.38,10.19,8.38,22.35-2.37,16.7-8.93,25.03-19.63,25.03s-18.72-5.05-24.27-15.19c-.66-3.28-.96-5.7-.96-7.17,1.92-17.31,4.74-25.94,8.43-25.94h1.87c.61,0,1.87,1.21,3.73,3.58l-3.73,21.45c0,8.33,5.3,12.51,15.9,12.51,5-1.62,7.47-6.66,7.47-15.19Z"/>
    <path class="cls-2" d="M804.7,1738.66c-16.4,0-24.62-8.53-24.62-25.58,0-13.57,9.13-21.5,27.4-23.72,15.79,0,23.72,11.56,23.72,34.67v8.22c0,7.32-1.21,10.95-3.63,10.95h-.91c-1.67,0-2.93-3.03-3.68-9.13v-2.73h-.91c-5.1,4.89-9.64,7.32-13.67,7.32h-3.68ZM805.2,1728.67c9.69-3.83,14.53-8.93,14.53-15.34,0-8.22-3.13-12.77-9.44-13.67h-4.24c-10.24,1.87-15.39,5.85-15.39,11.96,0,10.85,4.84,16.25,14.53,16.25v.81Z"/>
    <path class="cls-2" d="M846.78,1676.45h2.83c4.84,3.33,9.28,21.45,13.32,54.3-1.26,2.83-2.52,4.24-3.78,4.24h-4.74c-4.09,0-6.91-14.13-8.58-42.34-.66,0-1.26-4.95-1.92-14.79l2.88-1.41Z"/>
  </g>
  <g>
    <path class="cls-2" d="M501.26,875.21c-126.5,0-260.95-21.25-260.95-60.63s134.45-60.63,260.95-60.63,260.95,21.25,260.95,60.63-134.45,60.63-260.95,60.63ZM501.26,762.75c-148.61,0-252.17,27.32-252.17,51.84s103.56,51.84,252.17,51.84,252.17-27.32,252.17-51.84-103.56-51.84-252.17-51.84Z"/>
    <path class="cls-2" d="M494.98,1249.42c-35.57,0-67.33-2.64-94.26-6.3-91.06-12.38-152.82-39.45-161.25-45.62-25.19-18.42-32.46-88.87-21.6-209.39,7.99-88.75,23.23-173.45,23.38-174.3l8.65,1.57c-16.84,93.07-50.61,341.87-5.24,375.03,4.52,3.3,63.2,31.22,157.25,44,82.99,11.28,212.36,12.75,357.78-44.19,1.89-2.37,10.68-15.68,14.65-62.38,4.02-47.25,3.82-139.84-20-312.65l8.7-1.2c19.45,141.11,26.21,251.7,19.57,319.82-5.09,52.15-16.39,62.56-17.67,63.58l-.52.41-.62.24c-100.35,39.44-193.21,51.37-268.83,51.38Z"/>
    <path class="cls-2" d="M243.82,847.98s.1-.45.36-1.16c1.28-3.59,6.41-13.96,21.71-8.68,18.35,6.33-20.31-20.03-20.31-20.03l-3.51,27.24"/>
    <path class="cls-2" d="M737.61,837.43s17.57-5.27,22.84,10.54c5.27,15.82,0-30.3,0-30.3l-22.84,19.76Z"/>
    <path class="cls-2" d="M783.94,1087.1c-1.33,0-2.56-.05-3.68-.15l.96-10.5c19.44,1.75,86.93-16.74,125.27-53.89,19.91-19.3,29.32-40.68,27.95-63.55-4.35-72.69-82.96-82.91-167.56-82.91h-1.14v-10.54c38.83-.02,79.42,1.45,112.69,12.58,41.8,13.98,64.19,40.97,66.54,80.24,1.56,26.08-8.91,50.22-31.13,71.76-37.84,36.67-103.4,56.97-129.88,56.97Z"/>
    <path class="cls-2" d="M782.31,1058.79l-1.54-10.43c1.27-.19,126.89-19.58,122.04-86.96-.95-13.23-6.42-23.95-16.72-32.78-35.84-30.69-115.61-24.51-116.41-24.44l-.87-10.51c3.45-.28,84.99-6.58,124.14,26.94,12.37,10.6,19.23,24.06,20.38,40.02,5.56,77.1-125.43,97.32-131.01,98.14Z"/>
    <path class="cls-2" d="M780.73,874.65s-18.52,6.71.81,17.26c19.33,10.54-13.12,3.3-13.12,3.3l-.94-24.38,14.06,1.76,7.03,1.76-7.83.32Z"/>
    <path class="cls-2" d="M798.43,1053.58s-32.7,17.57,2.44,22.84c35.15,5.27,0,0,0,0,0,0,7.87,2.93,8.33,2.34.46-.59-28.46,2.44-28.46,2.44l-1.82-27.63h19.52Z"/>
    <path class="cls-2" d="M772.75,1144.95s-3.51,40.42-40.42,56.23c-36.9,15.82,33.39-8.11,33.39-8.11l11.51-50.5-2.72-11.68-1.76,14.06Z"/>
    <path class="cls-2" d="M222.73,1115.08s10.54,70.29,50.96,89.62c40.42,19.33-36.9-12.3-36.9-12.3l-17.57-52.72,1.48-57.99,2.03,33.39Z"/>
    <path class="cls-2" d="M281.87,843.26s-24.29-9.34-18.87-16.37c5.38-6.97,266.44-46.79,471.31-1.15,2.96.66,4.2,4.23,2.27,6.57-2.37,2.87-6.74,6.91-14.78,12.15-11.8,7.69-168.88,27.03-177.56,28.09-.26.03-.5.04-.76.02l-232.91-15.81"/>
    <path class="cls-2" d="M764.27,832.52c-1.68.47-3.37.96-5.05,1.42.06.22.12.43.18.65,3.93,15.28.57,28.33-4.91,30.49-1.47.58-3.11.41-4.88-.5-5.16-2.65-10.12-10.69-12.64-20.49-.37-1.42-.65-2.81-.89-4.18-2.63.65-5.26,1.3-7.87,1.92.22.72.43,1.46.62,2.2,3.93,15.28.57,28.33-4.91,30.49-1.46.58-3.11.41-4.88-.5-5.16-2.65-10.12-10.69-12.64-20.49-.58-2.25-.98-4.44-1.26-6.56-2.81.59-5.61,1.17-8.4,1.74.77,2.44,1.38,5.06,1.77,7.78,2.16,14.97-2.57,26.75-8.16,27.97-1.57.34-3.24-.09-4.95-1.29-4.78-3.33-8.76-11.68-10.14-21.27-.46-3.18-.59-6.21-.49-9.04-2.61.46-5.2.91-7.8,1.34.56,2.4.94,4.95,1.1,7.57.86,14.35-4.8,24.88-10.41,25.36-1.69.15-3.4-.53-5.08-1.99-4.38-3.8-7.55-12.14-8.1-21.23-.13-2.16-.09-4.22.05-6.18-2.56.37-5.09.71-7.64,1.05.35,1.89.6,3.85.72,5.86.87,14.62-4.77,25.34-10.38,25.82-1.65.14-3.33-.52-4.99-1.96-4.43-3.85-7.66-12.38-8.22-21.72-.11-1.78-.11-3.49-.04-5.14-2.54.28-5.07.55-7.6.81.26,1.59.45,3.22.55,4.89.87,14.62-4.77,25.34-10.38,25.82-1.66.14-3.33-.52-4.99-1.96-4.43-3.85-7.66-12.38-8.22-21.72-.1-1.7-.11-3.34-.04-4.92-2.66.21-5.33.43-7.98.62.49,2.27.82,4.65.96,7.1.87,14.62-4.77,25.34-10.38,25.82-1.65.13-3.33-.52-4.99-1.96-4.43-3.85-7.66-12.38-8.22-21.72-.17-2.8-.09-5.45.17-7.92-2.83.13-5.65.25-8.45.36.61,2.56,1.03,5.3,1.19,8.11.87,14.62-4.77,25.34-10.38,25.82-1.64.14-3.33-.52-4.99-1.96-4.43-3.85-7.66-12.38-8.22-21.72-.21-3.46-.04-6.69.4-9.63-2.45.04-4.87.06-7.3.08.52,2.93.78,6.16.67,9.63-.29,9.35-3.28,17.96-7.6,21.94-1.62,1.49-3.28,2.21-4.93,2.11-5.62-.32-11.56-10.88-11.1-25.52.09-2.85.43-5.63.98-8.23-2.85-.04-5.68-.09-8.49-.15.35,2.49.5,5.18.41,8.03-.29,9.35-3.28,17.96-7.6,21.94-1.62,1.49-3.27,2.21-4.93,2.11-5.62-.32-11.56-10.88-11.1-25.52.08-2.52.36-4.98.8-7.32-2.7-.12-5.38-.26-8.04-.4.12,1.64.16,3.35.11,5.12-.29,9.35-3.28,17.96-7.6,21.94-1.62,1.49-3.3,2.2-4.93,2.11-5.62-.32-11.56-10.88-11.1-25.52.06-1.76.21-3.49.44-5.17-2.58-.2-5.13-.42-7.67-.64.14,1.74.19,3.57.13,5.46-.29,9.35-3.28,17.96-7.6,21.94-1.62,1.49-3.3,2.19-4.93,2.11-5.62-.32-11.56-10.88-11.1-25.52.07-2.13.28-4.22.61-6.23-2.62-.29-5.2-.59-7.77-.89.23,2.08.34,4.28.27,6.59-.29,9.1-3.23,17.52-7.49,21.45-1.64,1.51-3.33,2.24-5.02,2.14-5.62-.32-11.57-10.69-11.12-25.06.09-2.78.42-5.5.97-8.04-2.69-.38-5.33-.78-7.96-1.18.23,2.96.2,6.16-.19,9.54-1.11,9.62-4.85,18.08-9.53,21.54-1.68,1.24-3.33,1.72-4.91,1.43-5.63-1.05-10.69-12.7-8.95-27.73.34-2.94.93-5.76,1.71-8.38-2.89-.51-5.74-1.03-8.54-1.55-.21,2.31-.57,4.72-1.13,7.19-2.24,9.87-6.98,18.05-12.06,20.84-1.74.96-3.38,1.17-4.86.64-5.54-2-9.28-14.95-5.77-30.34.23-1,.49-1.98.77-2.95-2.73-.59-5.4-1.17-8.01-1.76-.22,1.63-.5,3.29-.89,5-2.25,9.87-6.98,18.05-12.06,20.84-1.74.96-3.38,1.17-4.86.64-5.54-2-9.27-14.95-5.77-30.34.13-.57.27-1.14.42-1.7-2.99-.77-5.9-1.53-8.68-2.28-2.27,9.76-6.96,17.83-12,20.6-1.74.96-3.38,1.17-4.86.64-5.25-1.9-8.87-13.62-6.26-27.94-1.75-.55-3.45-1.08-5.03-1.59-3.18,16.43.84,31.36,9.51,34.49,1.16.42,2.35.62,3.56.6,1.85-.03,3.73-.55,5.59-1.57,4.4-2.42,8.42-7.55,11.36-14.21-1.19,13.83,2.82,25.53,10.39,28.26,1.16.42,2.35.62,3.56.6,1.85-.03,3.73-.55,5.59-1.57,4.27-2.35,8.17-7.25,11.08-13.62.08,11.53,3.98,20.78,10.59,23.17,1.16.42,2.35.62,3.56.6,1.85-.03,3.73-.55,5.59-1.57,4.71-2.59,8.97-8.27,11.94-15.62.29,13.57,5.63,24.31,13.55,25.79.67.13,1.34.18,2.02.17,2.37-.03,4.75-.9,6.97-2.54,3.91-2.9,7.18-8.13,9.32-14.59,2.22,10.76,7.97,18.39,15.11,18.79.25.01.49.02.74.02,2.85-.04,5.65-1.25,8.12-3.53,2.91-2.68,5.28-6.77,6.88-11.65,2.41,10.15,7.94,17.24,14.76,17.63.24.01.49.02.73.02,2.82-.04,5.59-1.24,8.04-3.5,3.07-2.82,5.54-7.22,7.17-12.48,2.39,10.23,7.95,17.39,14.8,17.78.24.01.49.02.73.02,2.82-.04,5.59-1.24,8.04-3.5,2.89-2.66,5.25-6.73,6.88-11.61,2.2,10.97,7.96,18.75,15.12,19.16.24.01.49.02.73.02,2.82-.04,5.59-1.24,8.04-3.5,3.07-2.82,5.54-7.22,7.16-12.48,2.39,10.23,7.95,17.39,14.8,17.78.24.01.49.02.73.02,2.82-.04,5.59-1.24,8.04-3.5,3.19-2.93,5.73-7.57,7.35-13.12,1.78,5.49,4.45,10.06,7.72,12.9,2.51,2.19,5.31,3.31,8.14,3.27.24,0,.49-.02.73-.04,6.84-.58,12.19-7.89,14.29-18.19,1.78,5.21,4.37,9.54,7.51,12.27,2.51,2.19,5.31,3.31,8.14,3.27.24,0,.49-.02.73-.04,7.15-.61,12.68-8.55,14.57-19.58,1.76,4.82,4.24,8.83,7.2,11.41,2.51,2.19,5.31,3.31,8.14,3.27.24,0,.49-.02.73-.04,6.84-.58,12.19-7.89,14.29-18.19,1.78,5.21,4.37,9.54,7.51,12.27,2.51,2.19,5.31,3.31,8.14,3.27.24,0,.49-.02.73-.04,6.81-.58,12.14-7.82,14.26-18.04,1.75,4.84,4.23,8.86,7.21,11.45,2.54,2.21,5.36,3.34,8.22,3.3.25,0,.49-.02.74-.04,7.13-.61,12.66-8.39,14.57-19.21,2.32,6.39,5.74,11.53,9.73,14.32,2.27,1.58,4.67,2.38,7.04,2.34.67,0,1.35-.09,2.01-.23,7.87-1.71,12.91-12.6,12.81-26.17,3.18,7.26,7.6,12.82,12.38,15.28,1.88.97,3.78,1.44,5.63,1.41,1.21-.02,2.4-.25,3.55-.7,6.54-2.57,10.18-11.93,9.94-23.46,3.09,6.29,7.13,11.07,11.46,13.3,1.88.97,3.78,1.44,5.63,1.41,1.21-.02,2.4-.25,3.55-.7,8.93-3.51,12.48-19.64,8.08-36.72-.07-.25-.14-.5-.21-.75Z"/>
    <path class="cls-2" d="M426.24,835.56c14.52,8.01,29.41,16.23,41.64,26.59l18.53.04c-14.77-15.98-34.49-26.86-53.59-37.4l-.19-.1c-3.15-1.74-6.29-3.47-9.41-5.23-90.94-51.24-185.56-147.38-178.39-263.51,1.4-22.58,7.98-53.62,31.42-73.27,37.5-31.44,102.13-17.73,136.67,14.24,35.23,32.6,50.65,80.45,62.06,127.3.77,3.15,4,5.22,7.37,4.73l.46-.07c3.43-.5,5.86-3.47,5.52-6.76-3.3-32.3-5.59-66.49,5.53-98.07,10.09-28.66,36.74-59.63,73.51-64.2,30.73-3.81,64.77,12.31,84.7,40.12,16.46,22.96,24.67,52.74,25.12,91.04.86,73.84-25.69,146.62-74.77,205.28-.24.2-.48.4-.7.64l-58.76,65.39,17.18.04,49.39-54.95c.45-.31.87-.66,1.24-1.08,52.19-61.29,80.43-137.81,79.53-215.46-.47-40.83-9.43-72.85-27.39-97.9-22.65-31.6-61.72-49.86-97.22-45.44-37.28,4.63-70.35,33.13-84.25,72.59-4.65,13.22-7.42,27.37-8.46,43.28-.04.69-.75.87-1.05.91-.18.03-1.13.13-1.43-.66-12.29-32.11-28.13-56.86-48.43-75.65-39.47-36.53-110.96-51.13-154.48-14.65-26.82,22.48-34.29,56.93-35.83,81.88-3.28,53.04,14.26,107.76,50.72,158.25,32.79,45.4,79.13,85.74,134.04,116.68,3.21,1.81,6.45,3.6,9.71,5.39Z"/>
    <path class="cls-1" d="M477.53,610.75l-38.66-94.89-40.16-44.87-55.25-13.12-67.97,9.64-23.19,31.82-13.75,46.41v70.03l17.9,48.59,42.87,70.58,62.24,51.54,72.67,46.57,43.31,29.33,65.44-.04,52.56-39.32,37.65-54.14,21.69-59.9,24.75-63.87v-120.17l-22.88-39.77-33.36-20.26-38.8-7.03-57,3.46s-17.69,33.01-20.7,37.62c-3,4.61-29.92,31.15-29.64,35.45.28,4.3.28,42.96.28,46.48v29.87Z"/>
    <path class="cls-2" d="M433.71,839.85c12.74,7.03,25.81,14.24,36.54,23.34l16.26.04c-12.97-14.02-30.26-23.57-47.03-32.82l-.17-.09c-2.76-1.53-5.52-3.05-8.25-4.59-79.81-44.97-162.84-129.33-156.54-231.24,1.23-19.82,7.01-47.06,27.57-64.3,32.91-27.59,89.62-15.56,119.93,12.5,30.92,28.61,44.45,70.6,54.46,111.71.67,2.76,3.51,4.58,6.46,4.15l.4-.06c3.01-.44,5.14-3.05,4.85-5.93-2.9-28.35-4.91-58.34,4.85-86.06,8.86-25.15,32.24-52.33,64.51-56.34,26.96-3.34,56.84,10.8,74.33,35.21,14.44,20.15,21.65,46.28,22.04,79.89.75,64.79-22.54,128.66-65.62,180.14-.21.18-.42.35-.61.56l-51.57,57.38,15.07.04,43.34-48.23c.39-.27.77-.57,1.08-.95,45.8-53.79,70.58-120.94,69.79-189.08-.42-35.83-8.28-63.93-24.03-85.91-19.87-27.73-54.17-43.76-85.31-39.88-32.72,4.06-61.74,29.07-73.93,63.7-4.08,11.6-6.51,24.02-7.42,37.98-.04.6-.66.76-.92.8-.16.03-.99.12-1.26-.58-10.78-28.18-24.68-49.9-42.5-66.38-34.63-32.06-97.37-44.87-135.56-12.85-23.54,19.73-30.09,49.96-31.45,71.85-2.88,46.54,12.51,94.56,44.51,138.87,28.77,39.84,69.44,75.25,117.62,102.39,2.82,1.59,5.66,3.16,8.52,4.73Z"/>
    <path class="cls-2" d="M425.31,836.65c14.6,8.06,29.57,16.32,41.87,26.74l18.64.04c-14.86-16.07-34.67-27.01-53.88-37.6l-.19-.1c-3.17-1.75-6.33-3.49-9.46-5.25-91.44-51.53-186.59-148.19-179.37-264.96,1.41-22.71,8.03-53.92,31.59-73.67,37.71-31.61,102.69-17.83,137.42,14.32,35.42,32.78,50.93,80.89,62.4,128,.77,3.16,4.02,5.25,7.41,4.76l.46-.07c3.45-.5,2.7-4.25,2.36-7.56-3.32-32.48-2.43-66.09,8.75-97.85,10.15-28.82,36.94-59.96,73.92-64.55,30.9-3.83,65.12,12.38,85.17,40.34,16.55,23.09,24.81,53.03,25.26,91.54.86,74.24-25.83,147.42-75.19,206.41-.24.2-.49.4-.7.64l-59.08,65.75,17.27.04,49.66-55.26c.45-.31.88-.66,1.24-1.09,52.47-61.63,80.87-138.57,79.97-216.65-.48-41.05-9.48-73.25-27.54-98.44-22.77-31.77-62.06-50.14-97.75-45.69-37.49,4.66-70.74,33.31-84.71,72.99-4.68,13.29-7.46,27.53-8.5,43.51-.04.69-.76.87-1.06.92-.18.03-1.14.13-1.44-.66-12.35-32.29-28.28-57.17-48.7-76.06-39.68-36.73-111.57-51.41-155.33-14.73-26.97,22.61-34.48,57.25-36.03,82.33-3.3,53.33,14.34,108.35,51,159.12,32.97,45.65,79.57,86.22,134.77,117.32,3.23,1.82,6.49,3.62,9.76,5.42Z"/>
    <g>
      <path class="cls-1" d="M430.68,990.42c2.74-.82,6.24-2.26,10.51-4.37.34,0,1.01.24,2.02.77.14,0,.86-.24,2.16-.77,1.3.24,2.83,1.49,4.56,3.74v2.21c-4.08,5.28-9.93,7.92-17.66,7.92l-1.2-.19c-.72.14-1.25.19-1.58.19-10.22,0-17.08-5.95-20.64-17.85-1.44-5.52-2.16-9.65-2.16-12.29v-.82c0-8.54,4.75-16.36,14.3-23.42,2.93-1.44,5.76-2.16,8.49-2.16h3.41c5.13,0,9.02,1.92,11.66,5.76v1.78c-.14,1.2-.77,1.78-1.78,1.78h-.38c-.91,0-1.68-.05-2.4-.19-.72.14-1.44.19-2.16.19-1.1,0-2.98-.34-5.57-.96-8.73,3.74-13.1,9.84-13.1,18.24v.19c0,5.71,1.73,11.23,5.18,16.46,2.4,2.35,4.51,3.65,6.33,3.79Z"/>
      <path class="cls-1" d="M482.22,1000.49c-15.6,0-23.42-8.11-23.42-24.33,0-12.91,8.69-20.44,26.06-22.55,15.02,0,22.56,10.99,22.56,32.97v7.82c0,6.96-1.15,10.41-3.46,10.41h-.86c-1.58,0-2.78-2.88-3.5-8.69v-2.59h-.86c-4.85,4.66-9.17,6.96-13.01,6.96h-3.5ZM482.7,990.99c9.21-3.65,13.82-8.49,13.82-14.59,0-7.82-2.98-12.14-8.97-13h-4.03c-9.74,1.78-14.64,5.57-14.64,11.37,0,10.32,4.61,15.45,13.82,15.45v.77Z"/>
      <path class="cls-1" d="M530.92,975.11v6.96c.19,1.2.77,1.78,1.78,1.78h20.06c.82,0,1.73.86,2.64,2.59v4.37c0,.82-.86,1.73-2.64,2.64h-20.92v15.69c0,3.17-1.44,5.52-4.37,7.01h-2.64c-2.93-1.29-4.37-4.22-4.37-8.73v-46.26c2.54-4.08,5.76-6.14,9.6-6.14,16.32,0,24.47,2.35,24.47,7.01v1.73c0,.82-1.44,2.25-4.37,4.37-10.41-1.15-17.08-1.73-20.11-1.73v.86c.58,3.12.86,5.76.86,7.87Z"/>
      <path class="cls-1" d="M564.41,976.16c2.16-11.8,7.05-17.71,14.73-17.71h1.97c13.1,1.1,19.63,5.38,19.63,12.81-6.72,11.08-14.25,16.65-22.55,16.65v1.01c0,1.49,1.63,2.5,4.89,2.93,3.98,0,10.51-1.97,19.63-5.85h1.01c.91,0,1.92.96,2.93,2.93v.96c-1.82,7.87-9.02,11.81-21.6,11.81h-2.97c-11.76-2.69-17.66-9.21-17.66-19.63v-5.9ZM581.11,968.29c-4.56,1.58-6.86,5.52-6.86,11.81v.96c11.13-2.83,16.7-6.09,16.7-9.79-5.18-1.97-8.45-2.98-9.84-2.98ZM577.13,951.3c.86-2.78,5.13-6.72,12.76-11.8,2.45-1.49,4.18-2.21,5.18-2.21,2.93.24,4.42,1.58,4.42,3.94,0,3.12-2.78,5.57-8.35,7.39-5.9,2.25-9.79,3.41-11.57,3.41-1.63-.1-2.45-.34-2.45-.72Z"/>
    </g>
    <g>
      <g>
        <path class="cls-2" d="M294.21,1011.63c9.57.73,19.15,1.43,28.72,2.09-.03.39-.04.58-.07.97,2.02.14,3.02.2,5.04.33-.02.35-.03.53-.06.88.78.05,1.17.08,1.95.13-.03.42-.04.64-.07,1.06.39.03.58.04.97.06-.03.39-.04.58-.06.97.81.05,1.22.08,2.04.13-.05.78-.07,1.17-.12,1.94.35.02.53.03.89.06-.03.42-.04.64-.07,1.06.44.03.67.04,1.11.07-.05.81-.08,1.22-.13,2.03.41.03.61.04,1.02.06-.12,1.98-.19,2.97-.31,4.95.43.03.64.04,1.07.07-.03.42-.04.64-.07,1.06-.43-.03-.64-.04-1.07-.07-.1,1.55-.15,2.33-.24,3.89-.41-.03-.61-.04-1.02-.06-.05.78-.07,1.17-.12,1.94-.45-.03-.67-.04-1.12-.07-.05.81-.08,1.22-.13,2.03-.36-.02-.54-.03-.89-.06-.03.42-.04.64-.07,1.06-.39-.02-.59-.04-.98-.06-.02.35-.03.53-.06.88-.43-.03-.64-.04-1.07-.07-.03.42-.04.64-.07,1.06-.39-.03-.59-.04-.98-.06-.03.39-.04.58-.06.97-.43-.03-.64-.04-1.07-.07-.03.42-.04.64-.07,1.06-.36-.02-.54-.03-.89-.06-.02.35-.03.53-.06.88.36.02.54.04.89.06-.03.42-.04.64-.07,1.06.43.03.64.04,1.07.07-.03.39-.04.58-.06.97,1.22.08,1.82.12,3.04.2-.02.39-.04.58-.06.97.36.02.54.03.89.06-.03.42-.04.64-.07,1.06.86.05,1.29.08,2.15.13-.02.35-.03.53-.06.88.42.03.63.04,1.05.07-.03.42-.04.64-.07,1.06.35.02.53.03.88.05-.02.39-.04.58-.06.97.42.03.63.04,1.05.06-.05.78-.07,1.17-.12,1.94.39.02.58.04.96.06-.03.42-.04.64-.06,1.06.45.03.68.04,1.13.07-.07,1.2-.11,1.8-.18,3,.38.02.56.03.94.06-.21,3.57-.32,5.35-.54,8.92-.38-.02-.57-.03-.94-.06-.05.78-.07,1.17-.12,1.94-.45-.03-.68-.04-1.13-.07-.05.81-.07,1.22-.12,2.03-.39-.02-.58-.04-.97-.06-.05.78-.07,1.17-.12,1.94-.42-.03-.64-.04-1.06-.07-.03.42-.04.64-.07,1.06-.35-.02-.53-.03-.88-.05-.02.39-.04.58-.06.97-.42-.03-.64-.04-1.06-.07-.03.42-.04.64-.07,1.06-.87-.05-1.3-.08-2.17-.14-.02.39-.04.58-.06.97-.36-.02-.54-.03-.9-.06-.02.35-.03.53-.06.88-.83-.05-1.25-.08-2.08-.13-.03.42-.04.64-.07,1.06-.83-.05-1.25-.08-2.08-.13-.03.39-.04.58-.06.97-1.63-.11-2.44-.16-4.07-.27-.03.42-.04.64-.07,1.06-.8-.05-1.2-.08-1.99-.13.03-.42.04-.64.07-1.06-4.49-.3-6.73-.46-11.22-.78-.03.42-.05.64-.08,1.06-2.43-.17-3.64-.26-6.07-.44.03-.42.05-.64.08-1.06-4.85-.36-7.28-.54-12.12-.92.03-.39.05-.58.08-.97-.43-.03-.65-.05-1.09-.09.09-1.16.14-1.75.23-2.91.43.03.65.05,1.08.09.03-.42.05-.64.08-1.06.79.06,1.19.09,1.99.15.03-.39.05-.58.08-.97,1.19.09,1.79.14,2.98.23.03-.42.05-.64.08-1.06.43.03.65.05,1.08.08.03-.35.04-.53.07-.88.4.03.6.05.99.08.45-5.96.68-8.95,1.13-14.91.43.03.65.05,1.08.08.21-2.82.32-4.24.53-7.06-.43-.03-.64-.05-1.07-.08.66-8.72.99-13.08,1.65-21.79.43.03.64.05,1.07.08.09-1.16.13-1.75.22-2.91-.43-.03-.64-.05-1.06-.08.06-.81.09-1.22.15-2.03-.81-.06-1.22-.09-2.04-.15.03-.42.05-.64.08-1.06-1.95-.15-2.92-.22-4.87-.38.03-.35.04-.53.07-.88-.42-.03-.64-.05-1.06-.08.12-1.59.19-2.38.31-3.97.42.03.64.05,1.06.08.03-.39.05-.58.08-.97ZM325.69,1031.82c.45.03.67.04,1.11.07.16-2.4.24-3.6.39-6-.44-.03-.67-.04-1.11-.07.08-1.17.12-1.75.19-2.91-.41-.03-.61-.04-1.02-.07.03-.42.04-.64.07-1.06-.41-.03-.62-.04-1.03-.07.03-.39.04-.58.06-.97-.76-.05-1.14-.08-1.89-.13.03-.42.04-.64.07-1.06-1.59-.11-2.39-.16-3.99-.27.02-.35.04-.53.06-.88-2.8-.19-4.2-.29-7-.49-.03.35-.04.53-.06.88-.78-.06-1.17-.08-1.95-.14-.06.81-.09,1.22-.15,2.03-.39-.03-.59-.04-.98-.07-.49,6.74-.73,10.11-1.22,16.86.39.03.59.04.98.07-.06.81-.09,1.22-.15,2.03,2.82.2,4.23.3,7.05.5.03-.39.04-.58.07-.97,1.21.08,1.82.13,3.03.21.03-.42.04-.64.07-1.06.79.05,1.18.08,1.96.13.02-.35.04-.53.06-.88.39.03.59.04.98.07.03-.42.04-.64.07-1.06.76.05,1.14.08,1.9.13.03-.39.04-.58.06-.97.41.03.62.04,1.04.07.05-.81.08-1.22.13-2.03.41.03.61.04,1.02.07.05-.78.08-1.17.13-1.94ZM328.84,1062.88c.4.03.59.04.99.06.13-1.98.19-2.97.31-4.95-.4-.03-.59-.04-.99-.06.07-1.17.11-1.75.19-2.91-.43-.03-.65-.04-1.08-.07.05-.81.08-1.22.13-2.03-.39-.03-.59-.04-.99-.06.03-.42.04-.64.07-1.06-.43-.03-.65-.04-1.08-.07.02-.35.03-.53.06-.88-.36-.02-.54-.04-.9-.06.03-.42.04-.64.07-1.06-.43-.03-.65-.04-1.08-.07.03-.39.04-.58.06-.97-.82-.05-1.24-.08-2.06-.14.03-.42.04-.64.07-1.06-.79-.05-1.18-.08-1.97-.13.02-.35.04-.53.06-.88-1.61-.11-2.42-.16-4.03-.27.03-.42.04-.64.07-1.06-3.61-.25-5.42-.38-9.03-.64-.03.42-.05.64-.08,1.06-.39-.03-.59-.04-.98-.07-.57,7.91-1.15,15.83-1.72,23.74.4.03.6.04.99.07-.03.42-.05.64-.08,1.06,1.23.09,1.84.13,3.07.22-.03.39-.04.58-.07.97,4.05.29,6.07.43,10.12.7.03-.39.04-.58.07-.97.79.05,1.19.08,1.99.13.03-.42.04-.64.07-1.06.83.06,1.25.08,2.08.14.02-.35.03-.53.06-.88.43.03.65.04,1.08.07.03-.42.04-.64.07-1.06.79.05,1.19.08,1.99.13.05-.81.08-1.22.13-2.03.4.03.6.04.99.06.05-.78.08-1.17.13-1.94.43.03.65.04,1.08.07.05-.81.08-1.22.13-2.03Z"/>
        <path class="cls-2" d="M320.69,1078.53l-2.24-.15.07-1.06c-4.34-.29-6.54-.45-10.98-.76l-.08,1.06h-.12c-2.43-.18-3.64-.27-6.07-.45h-.12s.08-1.07.08-1.07c-4.75-.35-7.13-.53-12-.91h-.12s.08-.98.08-.98l-1.08-.08.25-3.16,1.08.08.08-1.06,1.99.16.08-.97h.12c1.15.1,1.74.15,2.85.23l.08-1.06,1.08.08.07-.88.99.08,1.13-14.91,1.08.08.51-6.81-1.07-.08v-.12s1.67-21.92,1.67-21.92l1.07.08.2-2.66-1.06-.08.15-2.03-2.04-.15.08-1.06c-1.87-.14-2.84-.22-4.75-.37h-.12s.07-.89.07-.89l-1.06-.08.33-4.22h.12c.38.04.59.06.94.08l.08-.97h.12c9.59.74,19.26,1.44,28.72,2.1h.12s-.07.98-.07.98c1.93.13,2.94.2,4.92.33h.12s-.06.89-.06.89l1.95.12-.07,1.06.97.06-.06.97,2.04.13-.12,1.94.89.06-.07,1.06,1.09.07v.13s-.11,1.91-.11,1.91l1.02.06-.31,4.95,1.07.07-.08,1.31-1.07-.07-.24,3.89-1.02-.06-.12,1.94-1.12-.07-.13,2.03-.89-.06-.07,1.06-.98-.06-.06.88-1.07-.07-.07,1.06-.98-.06-.06.97-1.07-.07-.07,1.06-.89-.06-.04.63.89.06-.07,1.06,1.05.07v.13s-.04.85-.04.85c1.13.07,1.74.11,2.92.19h.12s-.06.98-.06.98l.9.06-.07,1.06,2.15.14-.06.88,1.05.07-.07,1.06.86.05v.13s-.04.85-.04.85l1.05.06-.12,1.94.96.06-.06,1.06,1.13.07-.18,3,.94.06-.55,9.17-.94-.06-.12,1.94-1.13-.07-.12,2.03-.97-.06-.12,1.94-1.06-.07-.07,1.06-.88-.05-.06.97-1.06-.06-.07,1.06-2.17-.14-.06.97-.9-.06-.06.88-2.08-.13-.07,1.06-2.08-.13-.06.97h-.12c-1.59-.11-2.4-.17-3.95-.27l-.07,1.06ZM318.72,1078.14l1.74.12.07-1.06h.12c1.59.11,2.4.17,3.95.27l.06-.97,2.08.13.07-1.06,2.08.13.06-.88.9.06.06-.97,2.17.14.07-1.06,1.06.07.06-.97.88.05.07-1.06,1.06.07.12-1.94.97.06.12-2.03,1.13.07.12-1.94.94.06.52-8.67-.94-.06.18-3-1.13-.07.06-1.06-.96-.06.12-1.94-1.05-.06.06-.97-.88-.05.07-1.06-1.05-.07.05-.88-2.15-.14.07-1.06-.9-.06.06-.97c-1.13-.07-1.74-.11-2.92-.19h-.12s.06-.98.06-.98l-1.07-.07.07-1.06-.89-.06.07-1.13.89.06.07-1.06,1.07.07.06-.97.98.06.07-1.06,1.07.07.06-.88.98.06.07-1.06.89.06.13-2.03,1.12.07.12-1.94,1.02.06.24-3.89,1.07.07.05-.81-1.07-.07.31-4.95-1.02-.06.13-2.03-1.11-.07.07-1.06-.89-.06.12-1.94-2.04-.13.06-.97-.97-.06.07-1.06-1.95-.13.06-.88c-1.93-.13-2.94-.19-4.92-.33h-.12s.06-.98.06-.98c-9.39-.65-18.97-1.35-28.48-2.07l-.08.97h-.12c-.38-.04-.59-.05-.94-.08l-.29,3.72,1.06.08-.07.88c1.87.15,2.84.22,4.75.37h.12s-.08,1.07-.08,1.07l2.04.15-.15,2.03,1.06.08-.24,3.16-1.07-.08-1.63,21.54,1.07.08-.55,7.31-1.08-.08-1.13,14.91-.99-.08-.07.88-1.08-.08-.08,1.06h-.12c-1.15-.1-1.75-.14-2.86-.23l-.07.97-1.99-.15-.08,1.06-1.08-.08-.21,2.66,1.08.08-.08.97c4.83.38,7.21.56,12,.91h.12s-.08,1.07-.08,1.07c2.3.17,3.51.26,5.82.42l.08-1.06h.12c4.56.34,6.76.49,11.22.79h.12s-.07,1.07-.07,1.07ZM319.1,1072.39h-.12c-4.05-.28-6.07-.42-10.12-.71h-.12s.07-.98.07-.98c-1.15-.08-1.76-.12-2.95-.21h-.12s.08-1.07.08-1.07l-.99-.07v-.12s1.74-23.86,1.74-23.86l.98.07.08-1.06h.12c3.61.27,5.42.4,9.03.65h.12s-.07,1.07-.07,1.07c1.53.11,2.33.16,3.9.27h.12s-.06.89-.06.89l1.97.13-.07,1.06,2.06.14-.06.97,1.08.07-.07,1.06.9.06-.06.88,1.08.07-.07,1.06.99.06-.13,2.03,1.08.07-.19,2.91.99.06-.33,5.19-.99-.06-.13,2.03-1.08-.07-.12,1.94-.99-.06-.13,2.03-1.99-.13-.07,1.06-1.08-.07-.06.88-2.08-.14-.07,1.06-1.99-.13-.07.97ZM309,1071.44c3.92.28,5.95.42,9.87.68l.07-.97,1.99.13.07-1.06,2.08.14.06-.88,1.08.07.07-1.06,1.99.13.13-2.03.99.06.12-1.94,1.08.07.13-2.03.99.06.3-4.69-.99-.06.19-2.91-1.08-.07.13-2.03-.99-.06.07-1.06-1.08-.07.06-.88-.9-.06.07-1.06-1.08-.07.06-.97-2.06-.14.07-1.06-1.97-.13.06-.88c-1.53-.1-2.33-.16-3.9-.27h-.12s.07-1.07.07-1.07c-3.49-.24-5.3-.37-8.79-.62l-.08,1.06-.98-.07-1.71,23.49.99.07-.08,1.06c1.15.08,1.76.13,2.95.21h.12s-.07.98-.07.98ZM315.26,1040.2h-.12c-2.82-.21-4.23-.31-7.05-.51h-.12s.15-2.04.15-2.04l-.98-.07v-.12s1.24-16.98,1.24-16.98l.98.07.15-2.03,1.95.14.06-.88h.12c2.8.21,4.2.31,7,.5h.12s-.06.89-.06.89c1.51.1,2.31.16,3.86.26h.12s-.07,1.07-.07,1.07l1.89.13-.06.97,1.03.07-.07,1.06,1.02.07-.19,2.91,1.11.07-.41,6.25-1.11-.07-.13,1.94-1.02-.07-.13,2.03-1.04-.07-.06.97-1.9-.13-.07,1.06-.98-.07-.06.88-1.96-.13-.07,1.06h-.12c-1.17-.09-1.78-.13-2.91-.21l-.07.97ZM308.23,1039.45c2.7.19,4.11.29,6.8.48l.07-.97h.12c1.17.09,1.78.13,2.91.21l.07-1.06,1.96.13.06-.88.98.07.07-1.06,1.9.13.06-.97,1.04.07.13-2.03,1.02.07.13-1.94,1.11.07.38-5.76-1.11-.07.19-2.91-1.02-.07.07-1.06-1.03-.07.06-.97-1.89-.13.07-1.06c-1.51-.1-2.31-.16-3.86-.26h-.12s.06-.89.06-.89c-2.68-.18-4.07-.28-6.75-.47l-.06.88-1.95-.14-.15,2.03-.98-.07-1.21,16.61.98.07-.15,2.03Z"/>
      </g>
      <g>
        <path class="cls-2" d="M380.99,1033.83c1.21.05,1.82.08,3.03.14-.02.35-.02.53-.04.88,1.6.07,2.41.11,4.01.17-.02.46-.03.69-.05,1.15.82.03,1.23.05,2.05.09-.02.37-.02.56-.04.93.36.01.54.02.89.04-.02.41-.03.61-.04,1.02.43.02.64.03,1.07.04-.08,1.98-.12,2.97-.2,4.95-.43-.02-.64-.03-1.07-.04-.01.35-.02.53-.04.88-.36-.01-.54-.02-.89-.04-.02.42-.03.64-.04,1.06-3.65-.15-5.47-.23-9.12-.4.02-.42.03-.64.05-1.06-1.22-.05-1.82-.08-3.04-.14.02-.35.02-.53.04-.88-.36-.02-.54-.02-.89-.04-.02.35-.02.53-.04.88-1.61-.07-2.41-.11-4.02-.19-.02.42-.03.64-.05,1.06-.82-.04-1.23-.06-2.06-.1-.02.39-.03.58-.05.97-.79-.04-1.18-.06-1.97-.1-.02.42-.03.64-.05,1.06-.43-.02-.64-.03-1.07-.05-.02.39-.03.58-.05.97-.39-.02-.59-.03-.98-.05-.02.42-.03.64-.05,1.06-.43-.02-.64-.03-1.07-.05-.02.35-.03.53-.04.88-.39-.02-.59-.03-.99-.05-.02.42-.03.64-.05,1.06-.43-.02-.65-.03-1.08-.06l-.05.97c-.36-.02-.54-.03-.9-.05-.43,8.34-.65,12.51-1.08,20.85.36.02.54.03.9.05-.02.39-.03.58-.05.97.43.02.65.03,1.08.06-.02.42-.03.64-.05,1.06,6.11.31,9.17.46,15.28.74-.02.39-.03.58-.04.97.4.02.6.03.99.05-.04.78-.05,1.17-.09,1.94.43.02.65.03,1.09.05-.02.42-.03.64-.05,1.06-.43-.02-.65-.03-1.09-.05-.02.39-.03.58-.04.97-.4-.02-.6-.03-1-.05-.02.42-.03.64-.05,1.06-4.1-.19-6.14-.28-10.24-.49.02-.42.03-.64.05-1.06-.36-.02-.54-.03-.91-.04-.02.42-.03.64-.05,1.06-8.59-.43-12.88-.66-21.47-1.15.02-.42.04-.64.06-1.06-.36-.02-.54-.03-.91-.05.02-.39.03-.58.06-.97-.43-.03-.65-.04-1.09-.06.07-1.2.1-1.8.17-3,.43.03.65.04,1.08.06.02-.39.03-.58.06-.97,1.99.11,2.98.17,4.97.28.02-.42.04-.64.06-1.06.83.05,1.25.07,2.08.12.02-.39.03-.58.05-.97.4.02.6.03.99.05.04-.78.06-1.17.11-1.94.43.02.65.04,1.08.06.35-6.4.52-9.6.87-15.99-.43-.02-.65-.04-1.08-.06.04-.74.06-1.11.1-1.86.43.02.65.04,1.08.06.02-.42.03-.64.06-1.06-.43-.02-.65-.04-1.08-.06.18-3.22.26-4.82.44-8.04-.39-.02-.59-.03-.98-.05.02-.35.03-.53.05-.88-.82-.05-1.23-.07-2.05-.11.02-.42.04-.64.06-1.06-1.21-.07-1.82-.1-3.04-.17-.02.42-.04.64-.06,1.06-2-.11-3-.17-5-.29-.02.35-.03.53-.05.88-.36-.02-.54-.03-.89-.05.05-.78.07-1.17.12-1.94-.43-.03-.64-.04-1.07-.06.09-1.55.14-2.33.23-3.89.43.03.64.04,1.07.06.02-.41.04-.61.06-1.01,2.35.14,3.53.21,5.88.34.02-.37.03-.56.05-.93,2.42.14,3.63.21,6.06.34.03-.46.04-.69.06-1.15,2.03.11,3.05.17,5.08.27-.04.81-.06,1.22-.11,2.03.36.02.53.03.89.05-.02.42-.03.64-.06,1.06.43.02.64.03,1.07.06-.06,1.17-.09,1.75-.15,2.92.39.02.59.03.98.05-.04.81-.06,1.22-.11,2.03.79.04,1.18.06,1.97.1.02-.42.03-.64.05-1.06.82.04,1.23.06,2.05.1.02-.39.03-.58.05-.97.39.02.59.03.98.05.02-.42.03-.64.05-1.06.43.02.64.03,1.07.05.02-.35.03-.53.04-.88.79.04,1.18.06,1.96.1.02-.39.03-.58.05-.97.82.04,1.23.06,2.05.1.02-.41.03-.61.05-1.02.78.04,1.18.06,1.96.09.02-.37.03-.56.04-.93.82.04,1.23.06,2.05.1.02-.46.03-.69.05-1.15,1.57.07,2.35.11,3.92.18.02-.35.02-.53.04-.88Z"/>
        <path class="cls-2" d="M378,1080.67h-.12c-4.1-.19-6.14-.29-10.24-.49h-.12s.05-1.07.05-1.07l-.66-.03-.05,1.06h-.12c-8.58-.43-12.79-.66-21.47-1.16h-.12s.06-1.07.06-1.07l-.91-.05.06-.97-1.09-.06.19-3.25,1.08.06.06-.97h.12c1.95.12,2.94.18,4.85.28l.06-1.06,2.08.12.05-.97.99.05.11-1.94,1.08.06.86-15.74-1.08-.06.12-2.11,1.08.06.04-.81-1.08-.06.44-8.04-.98-.05.05-.88-2.05-.11.06-1.06c-.93-.05-1.51-.08-2.34-.13l-.45-.03-.06,1.06h-.12c-1.96-.12-2.96-.18-4.88-.29l-.05.88-1.14-.07.12-1.94-1.07-.06.25-4.13,1.07.06.06-1.02h.12c2.31.14,3.49.21,5.76.34l.05-.93h.12c2.38.14,3.59.21,5.93.34l.06-1.15h.12c2.03.12,3.05.17,5.08.28h.12s-.11,2.04-.11,2.04l.89.05-.06,1.06,1.07.06-.15,2.92.98.05-.11,2.03,1.72.09.05-1.06h.12c.78.05,1.19.07,1.93.11l.05-.97.98.05.05-1.06,1.07.05.04-.88,1.96.1.05-.97,2.05.1.05-1.02,1.96.09.04-.93,2.05.1.05-1.15h.12c1.53.08,2.31.11,3.79.18l.04-.88,3.28.15-.04.88c1.52.07,2.32.1,3.88.17h.12s-.05,1.15-.05,1.15l2.05.09-.04.93.89.04-.04,1.02,1.07.05-.21,5.2-1.07-.04-.04.88-.89-.04-.04,1.06h-.12c-3.65-.16-5.47-.24-9.12-.4h-.12s.05-1.07.05-1.07c-1.13-.05-1.74-.08-2.91-.13h-.12s.04-.89.04-.89l-.64-.03-.04.88h-.12c-1.57-.08-2.37-.12-3.9-.19l-.05,1.06-2.06-.1-.05.97-1.97-.1-.05,1.06-1.07-.05-.05.97-.98-.05-.05,1.06-1.07-.06-.04.88-.99-.05-.05,1.06-1.07-.06-.05.97-.9-.05-1.07,20.61.9.05-.05.97,1.08.06-.05,1.06c6.02.31,9.02.45,15.15.73h.12s-.04.98-.04.98l.99.04-.09,1.95,1.09.05-.06,1.31-1.09-.05-.04.97-1-.04-.05,1.06ZM367.78,1079.94c3.97.2,6.02.29,9.99.47l.05-1.06,1,.04.04-.97,1.09.05.04-.81-1.09-.05.09-1.95-.99-.04.04-.97c-6.09-.28-9.09-.42-15.15-.73h-.12s.05-1.07.05-1.07l-1.08-.06.05-.97-.9-.05v-.12s1.1-20.98,1.1-20.98l.9.05.05-.97,1.07.06.05-1.06.98.05.04-.88,1.07.05.05-1.06.98.05.05-.97,1.07.05.05-1.06,1.97.1.05-.97,2.06.1.05-1.06h.12c1.57.08,2.37.12,3.9.19l.04-.88,1.14.05-.04.88c1.13.05,1.74.08,2.91.13h.12s-.05,1.07-.05,1.07c3.52.16,5.35.24,8.87.39l.04-1.06.89.04.04-.88,1.07.04.19-4.7-1.04-.04-.02-.13.04-.89-.89-.04.04-.93-2.05-.09.05-1.15c-1.52-.06-2.32-.1-3.88-.17h-.12s.04-.89.04-.89l-2.78-.12-.04.88h-.12c-1.53-.08-2.31-.11-3.79-.18l-.05,1.15-2.05-.1-.04.93-1.96-.09-.05,1.02-2.05-.1-.05.97-1.96-.1-.04.88-1.07-.05-.05,1.06-.98-.05-.05.97h-.12c-.78-.04-1.19-.07-1.93-.1l-.05,1.06-2.22-.11.11-2.03-.98-.05.15-2.92-1.07-.06.06-1.06-.89-.05.11-2.03c-1.91-.1-2.92-.16-4.83-.26l-.06,1.15h-.12c-2.38-.14-3.59-.21-5.93-.34l-.05.93h-.12c-2.31-.14-3.49-.21-5.76-.34l-.06,1.02-1.07-.06-.22,3.64,1.07.06-.12,1.94.64.04.05-.88h.12c1.96.12,2.96.18,4.88.29l.06-1.06.7.04c.87.05,1.46.08,2.46.14h.12s-.06,1.07-.06,1.07l2.05.11-.05.88.98.05-.44,8.04,1.08.06-.07,1.31-1.08-.06-.09,1.61,1.08.06-.89,16.24-1.08-.06-.11,1.94-.99-.05-.05.97-2.08-.12-.06,1.06h-.12c-1.95-.12-2.94-.17-4.85-.28l-.06.97-1.08-.06-.16,2.75,1.09.06-.06.97.91.05-.06,1.06c8.55.49,12.76.72,21.22,1.14l.05-1.06,1.16.06-.05,1.06Z"/>
      </g>
      <g>
        <path class="cls-2" d="M413.3,1035.89c5.6.18,8.39.27,13.99.43-.01.42-.02.64-.03,1.06.78.02,1.18.03,1.96.05,0,.35-.01.53-.02.88.82.02,1.23.03,2.05.05-.01.39-.02.58-.03.97.43.01.64.02,1.07.03-.01.42-.02.64-.03,1.06.39.01.59.02.98.03,0,.39-.01.58-.02.97.43.01.64.02,1.07.03-.02.78-.03,1.17-.05,1.95.36,0,.54.01.89.02-.11,4.39-.16,6.58-.27,10.97-.36,0-.54-.01-.9-.02-.21,8.35-.31,12.53-.52,20.88,1.56.04,2.33.06,3.89.09,0-.35.01-.53.02-.88,1.27.03,1.9.04,3.16.07,0,.35-.01.53-.02.88.36,0,.54.01.9.02,0,.42-.01.64-.02,1.06.43,0,.65.01,1.09.02-.03,1.17-.04,1.75-.06,2.92-.43,0-.65-.01-1.09-.02,0,.42-.01.64-.02,1.06-1.63-.04-2.45-.05-4.08-.09,0,.39-.01.58-.02.97-1.2-.03-1.79-.04-2.99-.07-.01.42-.02.64-.03,1.06-2.83-.07-4.24-.11-7.07-.18.01-.42.02-.64.03-1.06-.43-.01-.65-.02-1.09-.03.01-.39.02-.58.03-.97-.83-.02-1.25-.03-2.08-.06.01-.42.02-.64.03-1.06-.8-.02-1.19-.03-1.99-.06-.01.42-.02.64-.03,1.06-1.2-.04-1.79-.05-2.99-.09-.01.39-.02.58-.03.97-1.67-.05-2.5-.08-4.17-.13-.01.42-.02.64-.03,1.06-5.66-.18-8.48-.28-14.14-.49.02-.42.02-.64.04-1.06-.83-.03-1.25-.05-2.08-.08.01-.39.02-.58.04-.97-.8-.03-1.2-.05-1.99-.08.02-.42.02-.64.04-1.06-.83-.03-1.25-.05-2.08-.08.01-.35.02-.53.03-.88-.43-.02-.65-.03-1.09-.04.03-.81.05-1.22.08-2.03-.36-.01-.54-.02-.9-.04.03-.78.05-1.17.08-1.95-.43-.02-.65-.03-1.08-.04.11-2.79.17-4.19.28-6.98.43.02.65.03,1.08.04.03-.78.05-1.17.08-1.95.36.01.54.02.9.04.03-.81.05-1.22.08-2.03.43.02.65.03,1.08.04.02-.42.03-.64.04-1.06.4.02.59.02.99.04.02-.39.02-.58.04-.97.79.03,1.19.05,1.98.08.02-.42.02-.64.04-1.06.83.03,1.24.05,2.07.08.01-.35.02-.53.03-.88.79.03,1.19.04,1.98.07.02-.42.02-.64.04-1.06,1.22.04,1.83.07,3.05.11.01-.39.02-.58.03-.97,1.62.06,2.42.09,4.04.14.01-.39.02-.58.03-.97,2.41.08,3.61.12,6.01.2.01-.35.02-.53.03-.88.43.01.65.02,1.08.03-.01.35-.02.53-.03.88,2.01.06,3.02.09,5.03.15l.03-.89c1.18.04,1.78.05,2.96.09.01-.43.02-.64.03-1.07.43.01.65.02,1.08.03.01-.39.02-.59.03-.98.39.01.59.02.99.03.09-3.2.13-4.8.22-8.01-.39-.01-.59-.02-.98-.03.01-.39.02-.59.03-.98-.43-.01-.64-.02-1.07-.03.01-.43.02-.64.03-1.07-.36-.01-.54-.02-.89-.03.01-.39.02-.59.03-.98-.82-.02-1.23-.04-2.05-.06.01-.39.02-.59.03-.98-3.21-.1-4.82-.15-8.03-.25l-.03.97c-.82-.03-1.23-.04-2.05-.07-.01.39-.02.58-.03.97-.79-.03-1.18-.04-1.97-.07-.01.42-.02.64-.04,1.06-.39-.01-.59-.02-.98-.03-.01.39-.02.58-.03.97-.43-.01-.64-.02-1.07-.04-.04,1.2-.06,1.8-.11,3.01-.36-.01-.54-.02-.89-.03-.01.39-.02.58-.03.97-.43-.02-.64-.02-1.07-.04-.02.42-.02.64-.04,1.06-2.01-.07-3.01-.11-5.02-.18.02-.42.02-.64.04-1.06-.39-.01-.59-.02-.98-.04.01-.39.02-.58.04-.97-.43-.02-.64-.02-1.07-.04.08-2.02.12-3.02.19-5.04.43.02.64.02,1.07.04.03-.78.04-1.17.07-1.95.82.03,1.23.05,2.05.08.01-.39.02-.58.04-.97.79.03,1.18.04,1.96.07.02-.42.02-.64.04-1.06.78.03,1.18.04,1.96.07.01-.39.02-.58.03-.97.78.03,1.18.04,1.96.07.01-.35.02-.53.03-.88,2.03.07,3.05.11,5.08.17.01-.42.02-.64.04-1.06ZM424.27,1070.04c.43.01.65.02,1.08.03.09-3.18.13-4.78.22-7.96-.43-.01-.65-.02-1.08-.03.01-.39.02-.58.03-.97-5.61-.16-8.42-.25-14.03-.44-.01.39-.02.58-.03.97-1.26-.04-1.89-.06-3.15-.11-.01.42-.02.64-.04,1.06-.79-.03-1.19-.04-1.98-.07-.01.39-.02.58-.03.97-.79-.03-1.19-.04-1.98-.07-.02.42-.02.64-.04,1.06-.43-.02-.65-.02-1.08-.04-.01.35-.02.53-.03.88-.36-.01-.54-.02-.9-.03-.03.81-.05,1.22-.08,2.03-.43-.02-.65-.02-1.08-.04-.06,1.59-.09,2.39-.15,3.98.43.02.65.02,1.08.04-.03.81-.05,1.22-.08,2.03.8.03,1.19.04,1.99.07-.01.35-.02.53-.03.88.8.03,1.19.04,1.99.07-.02.42-.02.64-.04,1.06,2.42.09,3.64.13,6.06.21-.01.39-.02.58-.03.97.43.01.65.02,1.09.04.01-.39.02-.58.03-.97,2.03.07,3.04.1,5.06.16.01-.42.02-.64.03-1.06.83.03,1.25.04,2.08.06.01-.35.02-.53.03-.88.8.02,1.19.04,1.99.06.01-.42.02-.64.03-1.06.83.02,1.25.04,2.08.06.01-.39.02-.58.03-.97.36.01.54.02.9.03.02-.81.03-1.22.06-2.03Z"/>
        <path class="cls-2" d="M434.29,1082.47h-.12c-2.83-.07-4.24-.11-7.07-.19h-.12s.03-1.06.03-1.06l-1.09-.03.03-.97-2.08-.06.03-1.06-1.74-.05-.03,1.06-2.99-.09-.03.97h-.12c-1.62-.05-2.46-.08-4.04-.13l-.03,1.06h-.12c-5.68-.19-8.46-.28-14.14-.49h-.12s.04-1.07.04-1.07c-.75-.03-1.17-.04-1.96-.07h-.12s.04-.98.04-.98l-1.99-.08.04-1.06-2.08-.08.04-.88-1.09-.04.08-2.03-.9-.04.08-1.95-1.08-.04.29-7.23,1.08.04.08-1.95.9.04.08-2.03,1.08.04.04-1.06.99.04.04-.97,1.98.08.04-1.06,2.07.08.03-.89,1.98.07.04-1.06,3.05.11.03-.97h.12c1.57.06,2.38.09,3.92.14l.03-.97h.12c2.36.08,3.57.12,5.89.2l.03-.88,1.33.04-.03.88c1.89.06,2.9.09,4.78.15l.03-.89,2.96.09.03-1.07,1.08.03.03-.95.13-.03.86.02.22-7.76-.98-.03.03-.98-1.07-.03.03-1.07-.89-.03.03-.98-2.05-.06.03-.98c-3.09-.09-4.7-.14-7.79-.24l-.03.97-2.05-.07-.03.97-1.96-.07-.04,1.06-.98-.03-.03.97-1.07-.04-.1,3.01-.89-.03-.03.97-1.07-.04-.04,1.06h-.12c-2.01-.08-3.01-.11-5.02-.19h-.12s.04-1.07.04-1.07l-.98-.04.04-.97-1.07-.04.2-5.29,1.07.04.07-1.95,2.05.08.04-.97,1.96.07.04-1.06,1.96.07.03-.97,1.96.07.03-.88h.12c1.99.07,3.01.11,4.96.17l.03-1.06h.12c5.58.19,8.33.27,13.99.43h.12s-.03,1.07-.03,1.07l1.96.05-.02.88,2.05.05-.03.97,1.07.03-.03,1.06.98.03-.02.97,1.07.03-.05,1.95.89.02-.28,11.22-.9-.02-.52,20.62c1.43.04,2.21.06,3.64.09l.02-.88,3.41.08-.02.88.9.02-.02,1.06,1.08.02-.07,3.17-1.09-.02-.02,1.06h-.12c-1.35-.03-2.14-.05-3.29-.08l-.66-.02-.02.97-.71-.02c-.81-.02-1.37-.03-2.28-.06l-.03,1.06ZM427.23,1082.04c2.7.07,4.12.11,6.82.18l.03-1.06h.12c.98.03,1.56.04,2.41.06h.46s.02-.96.02-.96l.91.02c1.12.03,1.89.04,3.16.07l.02-1.06,1.09.02.06-2.67-1.09-.02.02-1.06-.9-.02.02-.88-2.91-.07-.02.88h-.12c-1.56-.04-2.33-.06-3.89-.1h-.12s0-.13,0-.13l.53-21,.9.02.27-10.72-.89-.02.05-1.95-1.07-.03.02-.97-.98-.03.03-1.06-1.07-.03.03-.97-2.05-.05.02-.89-1.96-.05.03-1.06c-5.54-.15-8.28-.24-13.74-.42l-.03,1.06h-.12c-1.99-.07-3.01-.1-4.96-.17l-.03.88-1.96-.07-.03.97-1.96-.07-.04,1.06-1.96-.07-.04.97-2.05-.08-.07,1.95-1.07-.04-.18,4.79,1.07.04-.04.97.98.04-.04,1.06c1.88.07,2.88.11,4.77.17l.04-1.06,1.07.04.03-.97.89.03.1-3.01,1.07.04.03-.97.98.03.04-1.06,1.96.07.03-.97,2.05.07.03-.97h.12c3.21.11,4.82.16,8.03.25h.12s-.03.98-.03.98l2.05.06-.03.98.89.02v.13s-.02.94-.02.94l1.07.03-.03.98.98.03-.23,8.26-.99-.03-.03.98-1.08-.03-.03,1.07-2.96-.09-.03.89h-.12c-2.01-.06-3.01-.09-5.01-.16h-.12s-.01-.13-.01-.13l.02-.76-.83-.03-.03.88h-.12c-2.36-.08-3.57-.12-5.89-.2l-.03.97h-.12c-1.57-.06-2.38-.09-3.92-.14l-.03.97-3.05-.11-.04,1.06-1.98-.07-.03.89-2.07-.08-.04,1.06-1.98-.08-.04.97-.99-.04-.04,1.06-1.08-.04-.08,2.03-.9-.04-.08,1.95-1.08-.04-.27,6.73,1.08.04-.08,1.95.9.04-.08,2.03,1.09.04-.04.88,2.08.08-.04,1.06,1.99.08-.04.97c.75.03,1.17.04,1.96.07h.12s-.04,1.07-.04,1.07c5.56.21,8.33.3,13.89.48l.03-1.06h.12c1.62.06,2.46.08,4.04.13l.03-.97,2.99.09.03-1.06,2.24.07-.03,1.06,2.08.06-.03.97,1.09.03-.03,1.06ZM412.07,1076.79l-1.34-.04.03-.97c-2.34-.08-3.55-.12-5.93-.21h-.12s.04-1.07.04-1.07l-1.99-.07.03-.88c-.71-.03-1.11-.04-1.86-.07h-.12s.08-2.04.08-2.04l-1.08-.04.16-4.23,1.08.04.08-2.03.9.03.03-.88,1.08.04.04-1.06,1.98.07.03-.97,1.98.07.04-1.06,3.15.11.03-.97h.12c5.52.19,8.27.28,14.03.44h.12s-.03.98-.03.98l1.08.03-.23,8.21-1.08-.03h0s-.06,2.04-.06,2.04l-.9-.03-.03.97-2.08-.06-.03,1.06-1.99-.06-.03.88-2.08-.06-.03,1.06h-.12c-1.98-.07-3-.1-4.94-.16l-.03.97ZM410.99,1076.5l.84.03.03-.97h.12c1.98.07,3,.1,4.94.16l.03-1.06,2.08.06.03-.88,1.99.06.03-1.06,2.08.06.03-.97.9.03.06-2.04,1.08.03.22-7.71-1.08-.03.03-.97c-5.63-.16-8.38-.25-13.78-.43l-.03.97-3.15-.11-.04,1.06-1.98-.07-.03.97-1.98-.07-.04,1.06-1.08-.04-.03.88-.9-.03-.08,2.03-1.08-.04-.14,3.73,1.08.04-.08,2.03c.71.03,1.11.04,1.86.07h.12s-.03.89-.03.89l1.99.07-.04,1.06c2.34.08,3.55.12,5.93.2h.12s-.03.98-.03.98Z"/>
      </g>
      <g>
        <path class="cls-2" d="M460.44,1038.53c4.44.07,6.66.1,11.1.15,0,.42,0,.64-.01,1.06,1.22.01,1.83.02,3.05.03,0,.38,0,.57,0,.94,1.22.01,1.83.02,3.05.03,0,.38,0,.57,0,.95.79,0,1.18.01,1.96.02,0,.41,0,.62,0,1.03,4.86.04,7.29.05,12.15.07,0,.39,0,.58,0,.97.36,0,.54,0,.89,0,0,.81,0,1.22,0,2.03.43,0,.64,0,1.07,0,0,.42,0,.64,0,1.06-.43,0-.64,0-1.07,0,0,.35,0,.53,0,.88-.36,0-.54,0-.9,0,0,.42,0,.64,0,1.06-2.86-.01-4.3-.02-7.16-.04,0,.39,0,.58,0,.97-.39,0-.59,0-.99,0,0,.42,0,.64,0,1.06.39,0,.59,0,.99,0-.02,3.15-.03,4.73-.05,7.88-.4,0-.59,0-.99,0,0,.81,0,1.22-.01,2.03-.43,0-.65,0-1.08,0,0,.78,0,1.17-.01,1.95-.36,0-.54,0-.9,0,0,.81,0,1.22-.02,2.03-.4,0-.59,0-.99,0,0,.42,0,.64,0,1.06-.43,0-.65,0-1.08,0,0,.35,0,.53,0,.88-.79,0-1.19,0-1.98-.02,0,.42,0,.64,0,1.06-.83,0-1.24-.01-2.07-.02,0,.39,0,.58,0,.97-1.19-.01-1.79-.02-2.98-.03,0,.39,0,.58-.01.97-3.64-.04-5.47-.06-9.11-.11,0,.39,0,.59-.01.98-.83-.01-1.25-.02-2.08-.03,0,.36,0,.54-.01.89-.43,0-.65,0-1.08-.02,0,.43,0,.64-.02,1.07-.36,0-.54,0-.9-.01,0,.39,0,.59-.02.98-.43,0-.65-.01-1.08-.02-.01.79-.02,1.18-.03,1.97-.4,0-.6,0-.99-.02,0,.43-.01.64-.02,1.07.83.01,1.25.02,2.08.03,0,.39,0,.59-.02.98,6.08.1,9.12.13,15.2.2,0,.42,0,.64-.01,1.06.4,0,.6,0,1,0,0-.42,0-.64.01-1.06,2.46.02,3.69.03,6.15.05,0,.42,0,.64,0,1.06,2.43.02,3.64.03,6.06.04,0,.35,0,.53,0,.88.82,0,1.23,0,2.06,0,0,.42,0,.64,0,1.06.39,0,.59,0,.98,0,0,.39,0,.58,0,.97.43,0,.64,0,1.07,0,0,.42,0,.64,0,1.06.79,0,1.18,0,1.97,0,0,.39,0,.58,0,.97.39,0,.59,0,.98,0-.01,4-.02,6-.03,10-.38,0-.57,0-.96,0,0,.78,0,1.17,0,1.95-.42,0-.63,0-1.05,0,0,.81,0,1.22,0,2.03-.36,0-.55,0-.91,0,0,.35,0,.53,0,.88-.44,0-.66,0-1.09,0,0,.42,0,.64,0,1.06-.4,0-.6,0-1,0,0,.39,0,.58,0,.97-.84,0-1.26,0-2.1-.01,0,.39,0,.58,0,.97-.44,0-.66,0-1.1,0,0,.42,0,.64,0,1.06-.8,0-1.21,0-2.01-.01,0,.35,0,.53,0,.89-1.21,0-1.81-.01-3.01-.02,0,.42,0,.64,0,1.06-1.21,0-1.81-.01-3.02-.02,0,.39,0,.58,0,.97-2.13-.02-3.19-.03-5.32-.05,0,.42,0,.64-.01,1.06-3.23-.03-4.84-.05-8.07-.1,0-.42,0-.64.01-1.06-3.78-.05-5.67-.08-9.44-.14,0-.39,0-.58.02-.97-1.21-.02-1.81-.03-3.02-.05,0-.42.01-.64.02-1.06-.81-.01-1.21-.02-2.02-.04,0-.35,0-.53.02-.89-.82-.02-1.22-.02-2.04-.04,0-.42.01-.64.02-1.06-.39,0-.58-.01-.97-.02,0-.39.01-.58.02-.97-.44,0-.66-.01-1.09-.02.02-.81.02-1.22.04-2.04-.36,0-.55-.01-.91-.02,0-.35.01-.53.02-.88-.44,0-.66-.01-1.09-.02.03-1.24.04-1.86.06-3.1-.4,0-.6-.01-1-.02.03-1.59.05-2.39.08-3.98.4,0,.6.01,1,.02.02-1.17.04-1.75.06-2.92.44,0,.65.01,1.09.02,0-.42.01-.64.02-1.06.36,0,.54.01.91.02.02-.74.02-1.11.04-1.86.44,0,.65.01,1.09.02,0-.42.01-.64.02-1.06.38,0,.57.01.95.02,0-.39.01-.58.02-.97.42,0,.62.01,1.04.02.02-.81.02-1.22.04-2.03.4,0,.6.01,1,.02,0-.42.01-.64.02-1.06-.4,0-.6-.01-1-.02.04-1.95.06-2.92.09-4.87.4,0,.6.01.99.02.02-.81.02-1.22.04-2.03.36,0,.54.01.9.02,0-.42.01-.64.02-1.06.43,0,.65.01,1.08.02,0-.35,0-.53.02-.88.4,0,.6.01.99.02.01-.81.02-1.22.04-2.04.43,0,.65.01,1.08.02,0-.39.01-.58.02-.97-.43,0-.65-.01-1.08-.02,0-.42.01-.64.02-1.06-.4,0-.59-.01-.99-.02,0-.35,0-.53.02-.88-.43,0-.65-.01-1.08-.02,0-.42.01-.64.02-1.06-.36,0-.54,0-.9-.02.02-.81.02-1.22.04-2.03-.4,0-.59-.01-.99-.02,0-.35.01-.53.02-.88-.41,0-.62-.01-1.03-.02.02-1.24.04-1.86.06-3.1-.38,0-.57-.01-.94-.02.07-3.57.11-5.36.18-8.94.38,0,.56.01.94.02.02-1.17.03-1.75.06-2.92.41,0,.62.01,1.03.02.02-.81.02-1.22.04-2.04.39,0,.59.01.98.02,0-.42.01-.64.02-1.06.36,0,.54,0,.89.02,0-.39.01-.58.02-.97.82.02,1.23.02,2.05.04,0-.41.01-.62.02-1.03.43,0,.64.01,1.07.02,0-.38,0-.57.02-.95.79.01,1.18.02,1.97.03,0-.38,0-.57.02-.94,1.18.02,1.77.03,2.96.05,0-.42,0-.64.02-1.06ZM486.24,1093.67c.44,0,.66,0,1.09,0,.01-2.41.02-3.61.03-6.02-.44,0-.65,0-1.09,0,0-.42,0-.64,0-1.06-.36,0-.54,0-.91,0,0-.39,0-.58,0-.97-.83,0-1.25,0-2.09-.01,0-.35,0-.53,0-.88-.8,0-1.2,0-2-.01,0-.42,0-.64,0-1.06-8.55-.06-17.11-.16-25.66-.31,0,.42-.01.64-.02,1.06-.36,0-.55,0-.91-.02,0,.35,0,.53-.02.88-.44,0-.65-.01-1.09-.02,0,.39-.01.58-.02.97-.4,0-.6-.01-1-.02,0,.42-.01.64-.02,1.06-.44,0-.65-.01-1.09-.02-.01.78-.02,1.17-.04,1.95-.36,0-.55,0-.91-.02-.04,1.98-.06,2.97-.09,4.95.37,0,.55.01.91.02-.01.81-.02,1.22-.04,2.04.44,0,.66.01,1.1.02,0,.42-.01.64-.02,1.06.4,0,.6.01,1.01.02,0,.35,0,.53-.02.88.81.01,1.21.02,2.01.03,0,.42-.01.64-.02,1.06,2.09.04,3.13.05,5.22.08,0,.39,0,.58-.01.97,2.05.03,3.08.05,5.13.07,0,.39,0,.58-.01.97.4,0,.61,0,1.01.01,0-.39,0-.58.01-.97,3.3.04,4.95.06,8.24.09,0-.39,0-.58,0-.97,1.28.01,1.92.02,3.19.03,0-.42,0-.64,0-1.06,1.2.01,1.81.02,3.01.02,0-.35,0-.53,0-.88.8,0,1.2,0,2.01.01,0-.42,0-.64,0-1.06.4,0,.6,0,1,0,0-.39,0-.58,0-.97.44,0,.66,0,1.09,0,0-.42,0-.64,0-1.06.36,0,.55,0,.91,0,0-.35,0-.53,0-.88ZM455.17,1058.36c.37,0,.56,0,.93.02-.01.81-.02,1.22-.03,2.03.45,0,.67.01,1.11.02l-.02,1.06c.41,0,.61,0,1.02.02,0,.35,0,.53-.01.88.43,0,.65.01,1.08.02,0,.42-.01.64-.02,1.06,1.19.02,1.78.03,2.97.05,0,.39,0,.58-.01.97,3.64.05,5.46.08,9.09.12,0-.39,0-.58.01-.97.79,0,1.19.01,1.98.02,0-.42,0-.64.01-1.06.83,0,1.24.01,2.07.02,0-.78.01-1.17.02-1.95.43,0,.65,0,1.08.01,0-.81.01-1.22.02-2.03.4,0,.59,0,.99,0,.03-3.15.04-4.73.07-7.88-.39,0-.59,0-.99,0,0-.81.01-1.22.02-2.04-.43,0-.64,0-1.07-.01,0-.78.01-1.17.02-1.95-.39,0-.59,0-.98,0,0-.42,0-.64.01-1.06-.79,0-1.18-.01-1.97-.02,0-.39,0-.58.01-.97-.82,0-1.23-.01-2.06-.02,0-.42,0-.64.01-1.06-3.22-.04-4.82-.06-8.04-.11,0,.42,0,.64-.02,1.06-.82-.01-1.23-.02-2.06-.03,0,.39,0,.58-.01.97-.79-.01-1.18-.02-1.97-.03,0,.42-.01.64-.02,1.06-.41,0-.61,0-1.01-.02-.01.78-.02,1.17-.03,1.95-.44,0-.66-.01-1.11-.02-.01.81-.02,1.22-.03,2.04-.37,0-.55,0-.92-.02-.05,3.15-.08,4.72-.14,7.87Z"/>
        <path class="cls-2" d="M472.92,1106.6h-.12c-3.23-.03-4.84-.05-8.07-.1h-.13s.01-1.06.01-1.06c-3.69-.05-5.58-.08-9.32-.14h-.12s.02-.97.02-.97l-3.02-.05.02-1.06-2.02-.04.02-.88-2.04-.04.02-1.06-.97-.02.02-.97-1.09-.02.04-2.04-.91-.02.02-.88-1.09-.02.06-3.1-1-.02.09-4.23,1,.02.06-2.92,1.09.02.02-1.06.91.02.04-1.86,1.09.02.02-1.06.95.02.02-.97,1.04.02.04-2.03,1,.02.02-.81-1-.02.1-5.11.99.02.04-2.03.9.02.02-1.06,1.08.02.02-.88.99.02.04-2.04,1.08.02v-.72s-1.06-.02-1.06-.02v-.12s.01-.94.01-.94l-.99-.02.02-.88-1.08-.02.02-1.06-.9-.02.04-2.04-.99-.02.02-.88-1.03-.02.06-3.1-.94-.02.18-9.19.94.02.06-2.92,1.03.02.04-2.04.98.02.02-1.06.89.02.02-.97,2.05.04.02-1.03,1.07.02.02-.95,1.97.03.02-.94h.12c1.14.02,1.73.03,2.83.05l.02-1.06h.12c4.6.07,6.78.1,11.1.15h.12s-.01,1.06-.01,1.06l3.05.03v.94s3.04.03,3.04.03v.95s1.96.02,1.96.02v1.03c4.83.04,7.22.05,12.01.07h.12v.97s.89,0,.89,0v2.04s1.07,0,1.07,0v1.31s-1.08,0-1.08,0v.89s-.9,0-.9,0v1.06h-.13c-2.82-.01-4.26-.02-7.04-.04v.97s-.99,0-.99,0v.81s.98,0,.98,0l-.05,8.12h-.99s-.01,2.03-.01,2.03h-1.08s-.01,1.94-.01,1.94h-.9s-.02,2.01-.02,2.01l-.12.02h-.87s0,1.06,0,1.06h-1.08s0,.88,0,.88l-1.98-.02v1.06s-.13,0-.13,0c-.79,0-1.2-.01-1.95-.02v.96s-.13.01-.13.01l-2.85-.03v.97s-.14,0-.14,0c-3.6-.04-5.43-.06-8.99-.11v.98s-2.09-.03-2.09-.03v.89s-1.1-.02-1.1-.02l-.02,1.07h-.9s-.02.97-.02.97l-1.08-.02-.03,1.97-.99-.02v.82s2.07.03,2.07.03l-.02.98c5.99.09,8.97.13,15.08.19h.12s-.01,1.06-.01,1.06h.75s.01-1.05.01-1.05h.13c2.46.03,3.69.04,6.15.05h.12s0,1.06,0,1.06c2.34.02,3.56.02,5.94.04h.12s0,.89,0,.89c.74,0,1.15,0,1.93,0h.12v1.06s.98,0,.98,0v.97s1.07,0,1.07,0v1.06s1.97,0,1.97,0v.97s.98,0,.98,0l-.03,10.25h-.96s0,1.94,0,1.94h-1.05s0,2.03,0,2.03h-.91s0,.88,0,.88h-1.09s0,1.06,0,1.06h-1s0,.96,0,.96h-.12s-1.97,0-1.97,0v.97s-1.1,0-1.1,0v1.06s-2.02-.01-2.02-.01v.88s-.13,0-.13,0c-.99,0-1.58,0-2.42-.02h-.47s0,1.06,0,1.06l-3.02-.02v.97s-.13,0-.13,0c-2.08-.02-3.15-.03-5.19-.05v1.06ZM464.85,1106.26c3.1.04,4.72.06,7.82.09v-1.06s.14,0,.14,0c2.08.02,3.15.03,5.19.05v-.97s3.03.02,3.03.02v-1.06s.73,0,.73,0c.81,0,1.38.01,2.3.02v-.88s2.01.01,2.01.01v-1.06s1.1,0,1.1,0v-.96s.13-.01.13-.01h1.97s0-.96,0-.96h1s0-1.06,0-1.06h1.09s0-.88,0-.88h.91s0-2.03,0-2.03h1.05s0-1.94,0-1.94h.96s.03-9.75.03-9.75h-.98s0-.98,0-.98h-1.97s0-1.07,0-1.07h-1.07s0-.13,0-.13v-.85s-.98,0-.98,0v-1.06c-.74,0-1.15,0-1.93,0h-.12s0-.89,0-.89c-2.34-.01-3.56-.02-5.94-.04h-.12s0-1.06,0-1.06c-2.34-.02-3.57-.03-5.9-.05v1.06s-1.26-.01-1.26-.01v-1.06c-6.05-.06-9.03-.1-15.07-.2h-.12s.02-.99.02-.99l-2.08-.03.02-1.32.99.02.03-1.97,1.08.02.02-.98h.9s.02-1.06.02-1.06l1.08.02v-.89s2.09.03,2.09.03v-.98s.14,0,.14,0c3.6.05,5.42.07,8.99.11v-.97s2.99.03,2.99.03v-.97s.13,0,.13,0c.79,0,1.2.01,1.95.02v-1.06s1.99.02,1.99.02v-.88s1.09,0,1.09,0v-1.06s1,0,1,0l.02-2.04h.9s.01-1.94.01-1.94h1.08s.01-2.03.01-2.03h.99s.05-7.62.05-7.62h-.99s0-1.32,0-1.32h.98s0-.97,0-.97h.12c2.82.02,4.25.03,7.04.04v-1.06s.9,0,.9,0v-.88s1.08,0,1.08,0v-.81s-1.07,0-1.07,0v-2.04s-.89,0-.89,0v-.97c-4.75-.02-7.14-.03-12.02-.07h-.12s0-1.03,0-1.03l-1.96-.02v-.95s-3.04-.03-3.04-.03v-.94s-3.04-.03-3.04-.03v-1.06c-4.19-.05-6.37-.08-10.84-.15l-.02,1.06h-.12c-1.14-.02-1.73-.03-2.83-.05l-.02.94-1.97-.03-.02.95-1.07-.02-.02,1.03-2.05-.04-.02.97-.89-.02-.02,1.06-.98-.02-.04,2.04-1.03-.02-.06,2.92-.94-.02-.17,8.69.94.02-.06,3.1,1.03.02-.02.88.99.02-.04,2.03.9.02-.02,1.06,1.08.02-.02.88.99.02-.02,1.06,1.08.02-.02,1.22-1.08-.02-.04,2.04-.99-.02-.02.88-1.08-.02-.02,1.06-.9-.02-.04,2.03-.99-.02-.09,4.62,1,.02-.02,1.31-1-.02-.04,2.03-1.04-.02-.02.97-.95-.02-.02,1.06-1.09-.02-.04,1.86-.91-.02-.02,1.06-1.09-.02-.06,2.92-1-.02-.08,3.73,1,.02-.06,3.1,1.09.02-.02.88.91.02-.04,2.04,1.09.02-.02.97.97.02-.02,1.06,2.04.04-.02.88,2.02.04-.02,1.06,3.02.05-.02.97c3.69.06,5.58.09,9.32.14h.12s-.01,1.06-.01,1.06ZM466.85,1101.49l-1.26-.02v-.97c-1.96-.03-2.98-.04-4.99-.07h-.12s.01-.97.01-.97c-2.01-.03-3.05-.05-5.09-.08h-.12s.02-1.06.02-1.06l-2.01-.04.02-.88-1-.02v-.12s.01-.94.01-.94l-1.1-.02.04-2.03-.91-.02.1-5.2.91.02.04-1.95,1.09.02.02-1.06,1,.02.02-.97,1.09.02.02-.88h.91s.02-1.05.02-1.05h.12c8.54.15,17.18.26,25.66.31h.12s0,1.06,0,1.06c.72,0,1.11,0,1.87.01h.12s0,.89,0,.89h2.09s0,.99,0,.99h.91s0,1.07,0,1.07h1.09s-.03,6.27-.03,6.27h-1.09s0,.88,0,.88h-.91s0,1.06,0,1.06h-1.09s0,.97,0,.97h-1s0,1.05,0,1.05h-.12c-.76,0-1.16,0-1.88-.01v.88s-3.02-.02-3.02-.02v1.06s-.13,0-.13,0c-1.23-.01-1.87-.02-3.07-.03v.97s-.13,0-.13,0c-3.26-.03-4.9-.05-8.12-.09v.97ZM465.84,1101.23h.76s.01-.96.01-.96h.12c3.25.04,4.9.06,8.12.09v-.96s.13,0,.13,0c1.23.01,1.87.02,3.07.03v-1.06s3.02.02,3.02.02v-.88s.13,0,.13,0c.76,0,1.16,0,1.88.01v-1.06s1.01,0,1.01,0v-.97s1.1,0,1.1,0v-1.06s.92,0,.92,0v-.88s1.1,0,1.1,0l.03-5.77h-1.09s0-1.07,0-1.07h-.91s0-.98,0-.98h-2.09s0-.9,0-.9c-.72,0-1.12,0-1.87-.01h-.12s0-1.06,0-1.06c-8.4-.06-16.95-.16-25.41-.31l-.02,1.06h-.91s-.02.87-.02.87l-1.09-.02-.02.97-1-.02-.02,1.06-1.09-.02-.04,1.95-.91-.02-.09,4.7.91.02-.04,2.04,1.1.02-.02,1.06,1.01.02-.02.88,2,.04v.12s0,.94,0,.94c2.01.03,3.05.05,5.09.08h.12s-.01.97-.01.97c1.97.03,2.99.04,5,.07h.13s-.01.98-.01.98ZM471.4,1064.73h-.12c-3.64-.04-5.46-.07-9.1-.12h-.12s.01-.97.01-.97l-2.97-.04.02-1.06-1.08-.02v-.88s-1-.02-1-.02l.02-1.06-1.11-.02.03-2.03-.93-.02.14-8.12.92.02.03-2.04,1.11.02.03-1.95,1.01.02.02-1.06,1.97.03v-.97s2.07.03,2.07.03l.02-1.06h.12c3.22.05,4.82.07,8.04.11h.12s-.01,1.06-.01,1.06l2.06.02v.97s1.96.02,1.96.02v1.06s.97,0,.97,0l-.02,1.95h1.07s-.02,2.05-.02,2.05h.98s0,.13,0,.13l-.07,8h-.99s-.02,2.03-.02,2.03h-1.08s-.02,1.94-.02,1.94l-2.07-.02v1.06s-1.99-.02-1.99-.02v.97ZM462.31,1064.36c3.51.05,5.33.08,8.84.12v-.97s1.99.02,1.99.02v-1.06s2.08.02,2.08.02l.02-1.95h1.08s.02-2.02.02-2.02h.99s.07-7.62.07-7.62h-.99s.02-2.04.02-2.04h-1.07s.02-1.96.02-1.96h-.98s.01-1.07.01-1.07l-1.97-.02v-.97s-2.05-.02-2.05-.02v-1.06c-3.08-.04-4.69-.06-7.78-.1l-.02,1.06-2.06-.03v.97s-1.98-.03-1.98-.03l-.02,1.06-1.01-.02-.03,1.95-1.11-.02-.03,2.04-.92-.02-.13,7.62.93.02-.03,2.03,1.11.02-.02,1.06,1.02.02v.88s1.07.02,1.07.02l-.02,1.06,2.97.04v.97Z"/>
      </g>
      <g>
        <path class="cls-2" d="M516.69,1037.3c5.6-.03,8.4-.05,14-.12,0,.42,0,.64.01,1.06.78,0,1.18-.01,1.96-.02,0,.35,0,.53.01.88.82,0,1.23-.01,2.05-.02,0,.39,0,.58.01.97.43,0,.64,0,1.07-.01,0,.42,0,.64.01,1.06.39,0,.59,0,.98-.01,0,.39,0,.58.01.97.43,0,.64,0,1.07-.01.01.78.02,1.17.03,1.95.36,0,.54,0,.89-.01.06,4.39.09,6.58.15,10.97-.36,0-.54,0-.9.01.11,8.35.17,12.53.28,20.88,1.56-.02,2.33-.03,3.89-.06,0-.35,0-.53-.01-.88,1.27-.02,1.9-.03,3.16-.05,0,.35,0,.53.01.88.36,0,.54,0,.9-.01,0,.42.01.64.02,1.06.43,0,.65-.01,1.09-.02.02,1.17.03,1.75.05,2.92-.43,0-.65.01-1.09.02,0,.42.01.64.02,1.06-1.63.03-2.45.04-4.08.06,0,.39,0,.58.01.97-1.2.02-1.79.03-2.99.04,0,.42,0,.64.01,1.06-2.83.04-4.24.06-7.07.09,0-.42,0-.64-.01-1.06-.44,0-.65,0-1.09.01,0-.39,0-.58-.01-.97-.83,0-1.25.01-2.08.02,0-.42,0-.64-.01-1.06-.8,0-1.2.01-1.99.02,0,.42,0,.64,0,1.06-1.2.01-1.79.02-2.99.03,0,.39,0,.58,0,.97-1.67.01-2.5.02-4.17.03,0,.42,0,.64,0,1.06-5.66.04-8.49.05-14.14.06,0-.42,0-.64,0-1.06-.83,0-1.25,0-2.08,0,0-.39,0-.58,0-.97-.8,0-1.2,0-1.99,0,0-.42,0-.64,0-1.06-.83,0-1.25,0-2.08,0,0-.35,0-.53,0-.89-.43,0-.65,0-1.09,0,0-.81,0-1.22,0-2.03-.36,0-.54,0-.9,0,0-.78,0-1.17,0-1.95-.43,0-.65,0-1.08,0,0-2.8,0-4.19.01-6.99.43,0,.65,0,1.08,0,0-.78,0-1.17,0-1.95.36,0,.54,0,.9,0,0-.81,0-1.22,0-2.04.43,0,.65,0,1.08,0,0-.42,0-.64,0-1.06.4,0,.59,0,.99,0,0-.39,0-.58,0-.97.79,0,1.19,0,1.98,0,0-.42,0-.64,0-1.06.83,0,1.24,0,2.07,0,0-.35,0-.53,0-.89.79,0,1.19,0,1.98,0,0-.42,0-.64,0-1.06,1.22,0,1.83,0,3.06,0,0-.39,0-.58,0-.97,1.62,0,2.43,0,4.04-.02,0-.39,0-.58,0-.97,2.41-.01,3.61-.02,6.02-.03,0-.35,0-.53,0-.88.43,0,.65,0,1.08,0,0,.35,0,.53,0,.88,2.01-.01,3.02-.02,5.03-.04,0-.36,0-.53,0-.89,1.18-.01,1.78-.02,2.96-.03,0-.43,0-.64-.01-1.07.43,0,.65,0,1.08-.01,0-.39,0-.59-.01-.98.39,0,.59,0,.99-.01-.03-3.2-.05-4.81-.09-8.01-.39,0-.59,0-.98.01,0-.39,0-.59-.01-.98-.43,0-.64,0-1.07.01,0-.43,0-.64-.01-1.07-.36,0-.54,0-.89,0,0-.39,0-.59,0-.98-.82,0-1.23.01-2.05.02,0-.39,0-.59,0-.98-3.22.03-4.82.04-8.04.06,0,.39,0,.58,0,.97-.82,0-1.23,0-2.05.01,0,.39,0,.58,0,.97-.79,0-1.18,0-1.97,0,0,.42,0,.64,0,1.06-.39,0-.59,0-.98,0,0,.39,0,.58,0,.97-.43,0-.64,0-1.07,0,0,1.2,0,1.81.01,3.01-.36,0-.54,0-.9,0,0,.39,0,.58,0,.97-.43,0-.65,0-1.08,0,0,.42,0,.64,0,1.06-2.01,0-3.01,0-5.02.01,0-.42,0-.64,0-1.06-.39,0-.59,0-.98,0,0-.39,0-.58,0-.97-.43,0-.64,0-1.07,0,0-2.02,0-3.03,0-5.04.43,0,.64,0,1.07,0,0-.78,0-1.17,0-1.95.82,0,1.23,0,2.05,0,0-.39,0-.58,0-.97.79,0,1.18,0,1.96,0,0-.42,0-.64,0-1.06.79,0,1.18,0,1.96,0,0-.39,0-.58,0-.97.79,0,1.18,0,1.96,0,0-.35,0-.53,0-.88,2.03,0,3.05-.01,5.08-.02,0-.42,0-.64,0-1.06ZM528.98,1071.01c.43,0,.65,0,1.08-.01-.03-3.19-.05-4.78-.08-7.96-.43,0-.65,0-1.08.01,0-.39,0-.58,0-.97-5.61.06-8.42.08-14.04.11,0,.39,0,.58,0,.97-1.26,0-1.89,0-3.15.01,0,.42,0,.64,0,1.06-.79,0-1.19,0-1.98,0,0,.39,0,.58,0,.97-.79,0-1.19,0-1.98,0,0,.42,0,.64,0,1.06-.43,0-.65,0-1.08,0,0,.35,0,.53,0,.88-.36,0-.54,0-.9,0,0,.81,0,1.22,0,2.04-.43,0-.65,0-1.08,0,0,1.59,0,2.39,0,3.98.43,0,.65,0,1.08,0,0,.81,0,1.22,0,2.03.8,0,1.19,0,1.99,0,0,.35,0,.53,0,.88.8,0,1.19,0,1.99,0,0,.42,0,.64,0,1.06,2.42,0,3.64-.01,6.06-.03,0,.39,0,.58,0,.97.43,0,.65,0,1.09,0,0-.39,0-.58,0-.97,2.03-.01,3.04-.02,5.07-.03,0-.42,0-.64,0-1.06.83,0,1.25,0,2.08-.02,0-.35,0-.53,0-.88.8,0,1.19,0,1.99-.02,0-.42,0-.64,0-1.06.83,0,1.25-.01,2.08-.02,0-.39,0-.58,0-.97.36,0,.54,0,.9,0,0-.81-.01-1.22-.02-2.04Z"/>
        <path class="cls-2" d="M505.67,1083.3v-1.06s-2.09,0-2.09,0v-.97s-1.99,0-1.99,0v-1.06h-2.08s0-.89,0-.89h-1.09s0-2.04,0-2.04h-.9s0-1.95,0-1.95h-1.08s.01-7.24.01-7.24h1.08s0-1.94,0-1.94h.9s0-2.04,0-2.04h1.08s0-1.06,0-1.06h.99s0-.97,0-.97h.12c.75,0,1.14,0,1.85,0v-1.06s2.07,0,2.07,0v-.89s1.98,0,1.98,0v-1.06s3.05,0,3.05,0v-.97s.12,0,.12,0c1.58,0,2.38,0,3.92-.01v-.97s.12,0,.12,0c2.36-.01,3.57-.02,5.89-.03v-.88s1.32,0,1.32,0v.88c1.89-.01,2.9-.02,4.79-.04v-.89s2.95-.03,2.95-.03v-1.07s1.07-.01,1.07-.01v-.98s.98-.01.98-.01l-.08-7.76h-.98s-.01-.97-.01-.97h-1.07s0-.11,0-.11v-.94s-.9,0-.9,0v-.98s-2.06.02-2.06.02v-.98c-3.1.03-4.71.04-7.8.06v.97s-2.05.01-2.05.01v.97s-1.96,0-1.96,0v1.06s-.98,0-.98,0v.97s-1.07,0-1.07,0v3.01s-.88,0-.88,0v.97s-1.07,0-1.07,0v1.06s-.12,0-.12,0c-2.01,0-3.01,0-5.02.01h-.12v-1.06s-.99,0-.99,0v-.97s-1.08,0-1.08,0v-5.29s1.07,0,1.07,0v-1.95s2.05,0,2.05,0v-.97s1.96,0,1.96,0v-1.06s.12,0,.12,0c.74,0,1.13,0,1.84,0v-.97s1.96,0,1.96,0v-.88s.12,0,.12,0c1.99,0,3.01-.01,4.96-.02v-1.06s.12,0,.12,0c5.55-.03,8.3-.05,13.99-.12h.12s.01,1.06.01,1.06l1.96-.02v.88s2.06-.03,2.06-.03v.97s1.08-.01,1.08-.01v1.06s.99-.01.99-.01v.97s1.08-.01,1.08-.01l.03,1.95h.89s0,.11,0,.11l.15,11.1h-.9s.28,20.64.28,20.64c1.43-.02,2.21-.03,3.64-.05v-.88s.11,0,.11,0c1.27-.02,1.9-.03,3.16-.05h.12s.01.88.01.88h.9s.02,1.05.02,1.05l1.08-.02.05,3.17-1.09.02.02,1.06-4.08.06v.97s-2.98.04-2.98.04v1.06s-.11,0-.11,0c-2.83.04-4.24.06-7.07.09h-.12s-.01-1.06-.01-1.06h-1.09s-.01-.96-.01-.96l-2.08.02v-1.06s-1.75.02-1.75.02v1.06s-2.98.03-2.98.03v.97s-.12,0-.12,0c-1.63.01-2.46.02-4.04.03v1.06s-.12,0-.12,0c-5.72.04-8.5.05-14.15.06h-.12ZM505.92,1081.99v1.06c5.52,0,8.3-.02,13.9-.06v-1.06s.12,0,.12,0c1.63-.01,2.46-.02,4.04-.03v-.97s2.98-.03,2.98-.03v-1.06s2.23-.02,2.23-.02v1.06s2.09-.02,2.09-.02v.97s1.1-.01,1.1-.01v1.06c2.72-.03,4.13-.05,6.83-.09v-1.06s2.98-.04,2.98-.04v-.97s4.06-.06,4.06-.06l-.02-1.06,1.09-.02-.05-2.67-1.08.02-.02-1.06h-.9s-.01-.87-.01-.87c-1.14.02-1.77.03-2.91.04v.88s-.11,0-.11,0c-1.56.02-2.33.03-3.89.06h-.13s0-.12,0-.12l-.28-21.01h.9s-.15-10.73-.15-10.73h-.89s-.03-1.93-.03-1.93h-1.07s-.01-.96-.01-.96h-.98s-.01-1.05-.01-1.05h-1.07s-.01-.96-.01-.96l-2.04.02v-.12s-.02-.76-.02-.76l-1.96.02v-1.06c-5.58.06-8.33.08-13.76.11v1.06s-.12,0-.12,0c-1.99.01-3.01.02-4.96.02v.88s-1.96,0-1.96,0v.97s-.12,0-.12,0c-.74,0-1.13,0-1.84,0v1.06s-1.96,0-1.96,0v.97s-2.05,0-2.05,0v1.95s-1.07,0-1.07,0v4.79s1.08,0,1.08,0v.97s.99,0,.99,0v1.06c1.88,0,2.89,0,4.77-.01v-1.06s1.07,0,1.07,0v-.97s.89,0,.89,0v-3.01s1.06,0,1.06,0v-.97s.98,0,.98,0v-1.06s1.96,0,1.96,0v-.97s2.05-.01,2.05-.01v-.97s.12,0,.12,0c3.21-.02,4.82-.03,8.04-.06h.12s0,.98,0,.98l2.05-.02v.98s.9,0,.9,0v.12s.02.94.02.94h1.07s.01.97.01.97h.98s.09,8.25.09,8.25h-.99s.01.99.01.99h-1.08s.01,1.08.01,1.08l-2.96.03v.89s-.12,0-.12,0c-2.01.02-3.02.03-5.03.04h-.12s0-.88,0-.88h-.83s0,.89,0,.89h-.12c-2.36.02-3.57.02-5.89.03v.97s-.12,0-.12,0c-1.57,0-2.38.01-3.92.02v.97s-3.05,0-3.05,0v1.06s-.12,0-.12,0h-1.85s0,.89,0,.89h-2.07s0,1.06,0,1.06h-.12c-.75,0-1.15,0-1.85,0v.97h-.99s0,1.06,0,1.06h-1.08s0,2.04,0,2.04h-.9s0,1.95,0,1.95h-1.08s-.01,6.74-.01,6.74h1.08s0,1.95,0,1.95h.9s0,2.04,0,2.04h1.09s0,.89,0,.89h2.08v1.06h1.99s0,.97,0,.97h2.08ZM515.71,1078.23v-.97c-2.35.01-3.56.02-5.94.02h-.12v-1.06s-1.99,0-1.99,0v-.88s-1.99,0-1.99,0v-2.04s-1.09,0-1.09,0v-4.23s1.08,0,1.08,0v-2.04s.9,0,.9,0v-.88s1.08,0,1.08,0v-1.06s1.98,0,1.98,0v-.97s.12,0,.12,0h1.86s0-1.07,0-1.07h3.15s0-.98,0-.98h.12c5.56-.03,8.32-.05,14.03-.11h.12s0,.97,0,.97h1.08s.09,8.2.09,8.2h-1.08s.02,2.05.02,2.05h-.9s0,.98,0,.98l-2.08.02v1.06s-1.98.02-1.98.02v.88s-2.07.02-2.07.02v1.06s-.12,0-.12,0c-1.98.01-3,.02-4.94.03v.97s-1.33,0-1.33,0ZM515.95,1077v.97s.84,0,.84,0v-.97s.12,0,.12,0c1.98-.01,3-.02,4.94-.03v-1.06s2.07-.02,2.07-.02v-.88s1.98-.02,1.98-.02v-1.06s2.07-.02,2.07-.02v-.97s.89,0,.89,0l-.02-2.04h1.08s-.08-7.72-.08-7.72h-1.08s0-.96,0-.96c-5.59.06-8.34.08-13.79.1v.97s-3.15.01-3.15.01v1.06s-1.98,0-1.98,0v.97s-1.98,0-1.98,0v1.06s-1.08,0-1.08,0v.88s-.9,0-.9,0v2.04s-1.08,0-1.08,0v3.73s1.09,0,1.09,0v2.04s1.99,0,1.99,0v.88s1.99,0,1.99,0v1.06c2.35,0,3.56-.01,5.94-.03h.12Z"/>
      </g>
      <g>
        <path class="cls-2" d="M580.7,1036.53c3.6-.11,5.4-.16,9-.28.01.42.02.64.03,1.06.43-.01.64-.02,1.07-.04.01.35.02.53.03.88.75-.02,1.12-.04,1.87-.06.01.42.02.64.04,1.06.82-.03,1.23-.04,2.05-.07.01.39.02.58.03.97.43-.01.64-.02,1.07-.04.01.35.02.53.03.88.36-.01.54-.02.89-.03.02.42.02.64.04,1.06.43-.02.64-.02,1.07-.04.03.81.04,1.22.07,2.03.39-.01.59-.02.98-.04.04,1.17.06,1.75.11,2.92.43-.02.64-.02,1.07-.04.34,9.28.68,18.57,1.02,27.85.4-.01.6-.02.99-.04.02.42.02.64.04,1.06,2.06-.08,3.09-.12,5.15-.2.02.39.02.58.04.97.76-.03,1.14-.04,1.9-.07.08,2.02.12,3.02.2,5.04-.76.03-1.14.05-1.9.07.02.39.02.58.04.97-3.3.13-4.95.19-8.25.31-.01-.39-.02-.58-.03-.97-4.06.15-6.09.22-10.15.35-.03-.81-.04-1.22-.07-2.03-.4.01-.6.02-1,.03-.01-.42-.02-.64-.03-1.06.4-.01.6-.02,1-.03-.01-.35-.02-.53-.03-.88.43-.01.65-.02,1.09-.04-.01-.42-.02-.64-.03-1.06.36-.01.54-.02.9-.03-.01-.39-.02-.58-.03-.97.43-.01.65-.02,1.09-.04-.01-.42-.02-.64-.04-1.06.4-.01.6-.02.99-.03-.16-4.74-.24-7.11-.4-11.85.36-.01.54-.02.9-.03-.12-3.57-.18-5.36-.3-8.93-.36.01-.54.02-.9.03-.07-2.02-.1-3.02-.17-5.04-.39.01-.59.02-.99.03-.03-.81-.04-1.22-.07-2.03-.43.01-.64.02-1.07.04-.01-.35-.02-.53-.03-.89-.36.01-.54.02-.89.03-.01-.42-.02-.64-.03-1.06-.43.01-.64.02-1.07.03-.01-.39-.02-.58-.03-.97-.82.03-1.23.04-2.06.07-.01-.42-.02-.64-.03-1.06-2.79.09-4.18.13-6.97.21.01.42.02.64.03,1.06-.82.02-1.23.04-2.06.06.01.39.02.58.03.97-1.18.03-1.77.05-2.95.08.01.42.02.64.03,1.06-.82.02-1.23.03-2.06.05,0,.35.01.53.02.89-1.22.03-1.83.05-3.04.08.02.81.03,1.22.05,2.03-.39,0-.59.01-.99.02.09,3.57.13,5.36.22,8.93-.43.01-.65.02-1.08.03.11,4.42.16,6.63.27,11.06.43-.01.65-.02,1.08-.03.06,2.34.09,3.5.14,5.84.4,0,.6-.01.99-.02.01.42.02.64.03,1.06,2.06-.05,3.09-.08,5.16-.13.01.39.02.58.03.97.83-.02,1.25-.03,2.08-.06.01.42.02.64.03,1.06.36,0,.54-.01.91-.03,0,.35.01.53.02.88.4-.01.6-.02,1-.03.01.42.02.64.03,1.06-.4.01-.6.02-1,.03.01.39.02.58.03.97-.36.01-.54.02-.91.03.01.42.02.64.03,1.06-7.76.22-11.64.31-19.4.47,0-.42-.01-.64-.02-1.06-.44,0-.65.01-1.09.02,0-.39-.01-.58-.02-.97-.4,0-.6.01-1,.02,0-.42-.01-.64-.02-1.06.4,0,.6-.01,1-.02-.02-.78-.02-1.17-.04-1.95.43,0,.65-.01,1.09-.02,0-.39-.01-.58-.02-.97.8-.02,1.19-.02,1.99-.04,0-.42-.01-.64-.02-1.06.4,0,.6-.01.99-.02-.22-9.94-.43-19.88-.65-29.81-.39,0-.59.01-.98.02,0-.39-.01-.58-.02-.97-2.83.06-4.24.09-7.06.14,0-.42-.01-.64-.02-1.06-.39,0-.59.01-.98.02-.02-1.17-.03-1.75-.05-2.92.39,0,.59-.01.98-.02,0-.39-.01-.58-.02-.97.79-.01,1.18-.02,1.96-.04,0-.42-.01-.64-.02-1.06,2.03-.04,3.05-.06,5.08-.1,0-.35-.01-.53-.02-.88,2.39-.05,3.58-.08,5.97-.13,0,.35.01.53.02.88.43,0,.64-.02,1.07-.03.01.42.02.64.03,1.06.36,0,.54-.01.89-.02.02.74.03,1.11.05,1.86,1.61-.04,2.41-.06,4.02-.1,0-.35-.01-.53-.02-.88.43-.01.64-.02,1.07-.03-.01-.39-.02-.58-.03-.97.82-.02,1.23-.03,2.05-.05-.01-.42-.02-.64-.03-1.06,1.57-.04,2.35-.06,3.92-.11-.01-.35-.02-.53-.03-.88,1.21-.03,1.82-.05,3.03-.09-.01-.42-.02-.64-.03-1.06Z"/>
        <path class="cls-2" d="M557.54,1083.09l-.02-1.06-1.09.02-.02-.97-1,.02-.02-1.31,1-.02-.04-1.95,1.09-.02-.02-.97,1.99-.04-.02-1.06.99-.02-.64-29.56-.98.02-.02-.97c-2.74.06-4.16.09-6.94.14h-.12s-.02-1.06-.02-1.06l-.97.02v-.12s-.07-3.04-.07-3.04l.98-.02-.02-.97h.13c.74-.01,1.13-.02,1.84-.04l-.02-1.06h.12c1.99-.04,3.01-.06,4.96-.1l-.02-.88h.12c2.39-.05,3.58-.08,5.97-.14h.12s.02.88.02.88l1.07-.03.03,1.06.89-.02.05,1.86c1.48-.04,2.28-.06,3.77-.09l-.02-.88,1.07-.03-.03-.97,2.05-.05-.03-1.04.12-.02c1.29-.03,2.05-.06,3.15-.09l.65-.02-.02-.88h.12c1.17-.04,1.78-.05,2.91-.09l-.03-1.06h.12c3.6-.11,5.4-.17,9-.29h.12s.04,1.06.04,1.06l1.07-.04.03.88,1.87-.06.04,1.06,2.05-.07.03.97,1.07-.04.03.88.89-.03.04,1.06,1.05-.04.03.12.07,1.91.98-.04.11,2.92,1.07-.04.04,1.08.98,26.78,1-.04.04,1.06c1.98-.07,3.01-.11,5.03-.19h.12s.04.97.04.97l1.9-.08.21,5.29-1.9.08.04.97h-.12c-3.3.13-4.95.2-8.25.31h-.12s-.04-.97-.04-.97c-3.98.14-6.01.21-10.03.34h-.12s-.07-2.03-.07-2.03l-1,.03-.04-1.31,1-.03-.03-.88,1.09-.04-.03-1.06.9-.03-.03-.97,1.08-.04-.04-1.06,1-.03-.4-11.85.9-.03-.3-8.68-.9.03-.17-5.04-.99.03-.07-2.03-1.07.04-.03-.89-.89.03-.04-1.06-1.07.04-.03-.97-2.06.07-.03-1.06c-2.66.08-4.06.13-6.72.2l.03,1.06h-.12c-.78.03-1.19.04-1.93.06l.03.97-2.95.08.03,1.06-2.06.06.02.89-3.04.08.05,2.03-.99.02.22,8.93-1.08.03.26,10.81,1.08-.03.14,5.84,1-.02.03,1.06c1.98-.05,3.01-.08,5.03-.13h.12s.03.97.03.97l2.08-.06.03,1.06.91-.02.02.88,1-.03.04,1.31-1,.03.03.97-.91.03.03,1.06h-.12c-7.79.22-11.6.31-19.4.47h-.12ZM557.76,1081.77l.02,1.06c7.67-.16,11.48-.25,19.15-.46l-.03-1.06.91-.03-.03-.97,1-.03-.02-.81-1,.03-.02-.88-.91.02-.03-1.06-2.08.06-.03-.97c-1.98.05-3.01.08-5.03.13h-.12s-.03-1.06-.03-1.06l-1,.02-.14-5.84-1.08.03-.27-11.31,1.08-.03-.22-8.93.99-.02-.05-2.03,3.04-.08-.02-.89,2.06-.05-.03-1.06,2.95-.08-.03-.97h.12c.78-.03,1.19-.04,1.93-.06l-.03-1.06h.12c2.79-.08,4.18-.13,6.97-.21h.12s.03,1.06.03,1.06l2.06-.07.03.97,1.07-.04.04,1.06.89-.03.03.89,1.07-.04.07,2.03.99-.03.17,5.04.9-.03.02.46.3,8.72-.9.03.4,11.85-1,.03.04,1.06-1.08.04.03.97-.9.03.03,1.06-1.09.04.03.88-1,.03.03.81,1-.03.07,2.03c3.98-.13,6.01-.2,10.03-.34h.12s.04.97.04.97c3.18-.11,4.83-.18,8-.3l-.04-.97,1.9-.08-.19-4.79-1.9.08-.04-.97c-1.98.08-3.01.12-5.03.19h-.12s-.04-1.06-.04-1.06l-1,.04v-.12s-1.02-27.73-1.02-27.73l-1.07.04-.11-2.92-.98.04-.07-2.03-1.07.04-.04-1.06-.89.03-.03-.88-1.07.04-.03-.97-2.05.07-.04-1.06-1.87.06-.03-.88-1.07.04-.04-1.06c-3.47.11-5.28.17-8.75.27l.03,1.06h-.12c-1.17.04-1.78.06-2.91.09l.03.88-.9.03c-1.06.03-1.81.05-3.02.08l.03,1.06-2.05.06.03.97-1.07.03.02.88h-.12c-1.61.04-2.41.06-4.02.1h-.12s-.05-1.86-.05-1.86l-.89.02-.03-1.06-1.07.03-.02-.88c-2.27.05-3.46.08-5.72.13l.02.88h-.12c-1.99.04-3.01.07-4.96.1l.02,1.06h-.12c-.75.02-1.14.03-1.84.04l.02.97-.98.02.05,2.67.98-.02.02,1.06c2.74-.05,4.15-.08,6.94-.14h.12s.02.97.02.97l.98-.02v.12s.65,29.94.65,29.94l-.99.02.02,1.06-1.99.04.02.97-1.09.02.04,1.95-1,.02.02.81,1-.02.02.97,1.09-.02Z"/>
      </g>
      <g>
        <path class="cls-2" d="M643.67,1033.57c.02.42.03.64.06,1.06,1.18-.06,1.76-.09,2.94-.16.02.36.03.54.05.9.78-.04,1.18-.06,1.96-.11.02.4.03.59.05.99.43-.02.64-.04,1.07-.06.02.43.04.65.06,1.08.39-.02.59-.03.98-.05.02.4.03.59.06.99.36-.02.54-.03.89-.05.02.4.03.59.06.99.43-.02.64-.04,1.07-.06.05.81.07,1.21.11,2.02.39-.02.59-.03.98-.06.11,1.96.17,2.95.28,4.91.43-.02.64-.04,1.07-.06.04.77.07,1.16.11,1.93-.43.02-.64.04-1.07.06.05.81.07,1.21.11,2.02-.39.02-.59.03-.99.06.02.39.03.58.05.97-1.97.11-2.96.17-4.93.27-.02-.39-.03-.58-.05-.97-.82.05-1.24.07-2.06.11-.04-.81-.07-1.21-.11-2.02-.43.02-.64.03-1.07.06-.13-2.35-.19-3.53-.31-5.88-.36.02-.54.03-.89.05-.02-.39-.03-.58-.05-.96-.43.02-.64.03-1.07.06-.02-.42-.03-.63-.06-1.05-1.21.06-1.82.1-3.04.16-.02-.39-.03-.58-.05-.96-3.21.17-4.82.25-8.03.4.02.39.03.58.05.96-.79.04-1.18.06-1.96.09.02.42.03.63.05,1.05-.82.04-1.23.06-2.05.1.02.39.03.58.05.96-.39.02-.59.03-.98.05.02.42.03.63.05,1.05-.43.02-.64.03-1.07.05.02.35.02.53.04.88-.36.02-.54.02-.89.04.02.42.03.63.05,1.05-.43.02-.64.03-1.07.05.02.39.03.58.04.96-.39.02-.59.03-.98.04.03.77.05,1.16.09,1.93-.43.02-.64.03-1.07.05.05,1.19.08,1.79.13,2.98-.36.02-.54.02-.9.04.2,4.42.3,6.63.49,11.05.36-.02.54-.02.9-.04.05,1.17.08,1.75.13,2.92.43-.02.65-.03,1.08-.05.02.35.02.53.04.88.4-.02.59-.03.99-.05.04.81.06,1.22.09,2.03.43-.02.65-.03,1.08-.05.02.42.03.64.05,1.06.36-.02.54-.02.9-.04.02.39.03.58.05.97.83-.04,1.25-.06,2.08-.1.02.42.03.64.05,1.06.83-.04,1.25-.06,2.08-.1.02.35.03.53.04.88,2.06-.1,3.09-.15,5.15-.25.02.42.03.64.05,1.06,2.39-.12,3.58-.18,5.97-.3-.02-.42-.03-.64-.06-1.06,2.46-.13,3.69-.19,6.14-.33-.02-.35-.03-.53-.05-.88.79-.04,1.19-.06,1.99-.11-.02-.42-.03-.64-.06-1.06,1.19-.07,1.79-.1,2.98-.17-.02-.39-.03-.58-.05-.97,2.09-.12,3.14-.18,5.23-.3.02.39.03.58.06.97.36-.02.54-.03.9-.05.07,1.2.11,1.8.18,3-.36.02-.54.03-.9.05.02.39.03.58.06.97-.43.03-.65.04-1.09.06.02.42.04.64.06,1.06-.83.05-1.25.07-2.08.12.02.35.03.53.05.88-1.19.07-1.79.1-2.99.17.02.42.04.64.06,1.06-.83.05-1.25.07-2.08.12.02.39.03.58.05.97-1.99.11-2.99.16-4.98.27.02.42.03.64.06,1.06-1.27.07-1.9.1-3.17.17.02.39.03.58.05.97-.14,0-.22.01-.36.02.55,1.53.83,2.3,1.38,3.83-.14.04-.21.06-.36.11.78,2.3,1.16,3.45,1.94,5.75-.32.09-.49.13-.81.22.09.31.13.47.22.79-.29.09-.43.13-.72.21.09.28.13.42.22.7-1.54.51-2.31.76-3.86,1.26-.09-.28-.13-.42-.22-.7-.65.17-.97.26-1.62.44-.39-1.19-.58-1.78-.97-2.96-.32.12-.48.18-.81.31-1.21-3.8-1.81-5.7-3.02-9.51-1.27.06-1.9.09-3.17.15-.02-.39-.03-.58-.05-.97-1.63.08-2.45.12-4.08.19-.02-.42-.03-.64-.05-1.06-1.27.06-1.9.09-3.17.14-.02-.39-.03-.58-.04-.97-.36.02-.54.02-.91.04-.02-.42-.03-.64-.05-1.06-.4.02-.6.03-1,.04-.02-.35-.02-.53-.04-.88-.43.02-.65.03-1.09.05-.02-.42-.03-.64-.05-1.06-.36.02-.54.02-.9.04-.02-.39-.03-.58-.04-.97-.43.02-.65.03-1.08.05-.02-.42-.03-.64-.05-1.06-.4.02-.6.03-.99.04-.03-.78-.05-1.16-.08-1.94-.43.02-.65.03-1.08.05-.03-.81-.05-1.22-.09-2.03-.4.02-.6.03-.99.04-.05-1.16-.07-1.75-.12-2.91-.43.02-.65.03-1.08.05-.05-1.16-.07-1.75-.12-2.91-.36.01-.54.02-.9.04-.12-2.82-.17-4.23-.29-7.05.36-.01.54-.02.9-.04-.1-2.36-.15-3.54-.24-5.91.43-.02.65-.03,1.08-.04-.03-.78-.05-1.16-.08-1.94.39-.02.59-.02.99-.04-.03-.81-.05-1.22-.09-2.03.43-.02.64-.03,1.07-.05-.03-.78-.05-1.16-.08-1.94.39-.02.59-.03.98-.04-.02-.42-.03-.63-.05-1.06.43-.02.64-.03,1.07-.05-.02-.39-.03-.58-.04-.97.36-.02.54-.02.89-.04-.02-.42-.03-.63-.05-1.06.43-.02.64-.03,1.07-.05-.02-.39-.03-.58-.04-.97.39-.02.59-.03.98-.04-.02-.4-.03-.59-.04-.99.36-.02.54-.02.89-.04-.02-.4-.03-.59-.04-.99.82-.04,1.23-.06,2.05-.09-.02-.43-.03-.65-.05-1.08.43-.02.64-.03,1.07-.05-.02-.4-.03-.59-.05-.99,1.18-.05,1.77-.08,2.94-.14-.02-.36-.03-.54-.04-.9,1.25-.06,1.87-.09,3.12-.15-.02-.42-.03-.64-.05-1.06,5.2-.25,7.8-.38,13-.66Z"/>
        <path class="cls-2" d="M640.56,1093.52l-.22-.7-1.62.43-.97-2.95-.81.31-.04-.13c-1.2-3.77-1.8-5.67-2.99-9.42l-3.2.15-.05-.97c-1.55.07-2.36.11-3.95.18h-.12s-.05-1.05-.05-1.05l-3.17.14-.04-.97-.91.04-.05-1.06-1,.04-.04-.88-1.09.05-.05-1.06-.9.04-.04-.97-1.08.05-.05-1.06-.99.04-.08-1.94-1.08.05-.09-2.03-.99.04-.12-2.91-1.08.04-.12-2.91-.9.04-.3-7.3.9-.04-.25-5.91,1.08-.04-.08-1.94.99-.04-.09-2.03,1.07-.04-.08-1.94.98-.04-.04-1.06,1.07-.05-.04-.97.89-.04-.05-1.06,1.07-.05-.04-.97.98-.04-.04-.99.89-.04-.04-.96.12-.03,1.93-.09-.05-1.08,1.07-.05-.04-.99h.12c1.13-.06,1.72-.08,2.82-.14l-.04-.88.12-.03c1.21-.06,1.83-.09,2.99-.14l-.05-1.06h.12c5.07-.25,7.62-.38,13-.67h.12s.06,1.05.06,1.05l2.94-.16.05.9,1.96-.11.05.99,1.07-.06.06,1.08.98-.05.05.99.89-.05.06.99,1.07-.06.11,2.02.98-.06.28,4.91,1.07-.06.12,2.18-1.07.06.12,2.02-.99.06.05.97h-.12c-1.97.12-2.96.17-4.93.28h-.12s-.05-.96-.05-.96l-2.06.11-.11-2.02-1.07.06-.31-5.88-.89.05-.05-.96-1.07.06-.06-1.05c-1.12.06-1.72.09-2.87.15h-.17s-.05-.96-.05-.96c-3.09.16-4.7.24-7.79.39l.05.96-1.96.09.05,1.05-2.05.1.04.96-.98.05.05,1.02-.12.03-.95.04.04.88-.89.04.05,1.05-1.07.05.04.96-.98.04.09,1.93-1.08.05.13,2.98-.9.04.48,10.8.9-.04.13,2.92,1.08-.05.04.88.99-.04.09,2.03,1.08-.05.05,1.06.9-.04.04.97,2.08-.1.05,1.06,2.08-.1.04.88c1.98-.09,3.01-.14,5.03-.25h.12s.05,1.05.05,1.05c2.26-.11,3.45-.17,5.72-.29l-.05-1.06h.12c2.42-.13,3.64-.2,6.02-.33l-.05-.88,1.99-.11-.06-1.06h.12c1.15-.07,1.74-.1,2.85-.17l-.05-.97h.12c2.09-.12,3.14-.18,5.23-.31h.12s.06.96.06.96l.9-.05.19,3.25-.9.05.06.97-1.08.06.06,1.06-2.08.12.05.88-2.99.17.06,1.06-2.08.12.05.97h-.12c-1.95.11-2.95.17-4.85.27l.06,1.06-3.17.17.05.97-.32.02.19.51c.4,1.12.67,1.87,1.14,3.15l.04.12-.36.11c.75,2.22,1.14,3.37,1.9,5.62l.04.13-.82.22.22.78-.72.21.22.69-.12.04c-1.54.51-2.31.76-3.86,1.26l-.12.04ZM640.51,1092.51l.21.69c1.43-.47,2.2-.72,3.62-1.18l-.22-.7.72-.21-.22-.79.8-.22c-.75-2.22-1.14-3.36-1.9-5.62l-.04-.12.36-.11c-.44-1.21-.7-1.95-1.09-3.03l-.3-.83.41-.02-.05-.97,3.17-.17-.06-1.06h.12c1.95-.11,2.95-.16,4.85-.27l-.05-.97,2.08-.12-.06-1.06,2.99-.17-.05-.88,2.08-.12-.06-1.06,1.08-.06-.06-.97.9-.05-.16-2.75-.9.05-.06-.97c-1.97.12-3.01.17-4.98.29l.05.97h-.12c-1.15.07-1.74.1-2.85.17l.06,1.06-1.99.11.05.88h-.12c-2.42.14-3.64.2-6.02.33l.05,1.06h-.12c-2.39.13-3.58.19-5.97.31h-.12s-.05-1.05-.05-1.05c-1.98.1-3.01.15-5.03.25h-.12s-.04-.88-.04-.88l-2.08.1-.05-1.06-2.08.1-.04-.97-.9.04-.05-1.06-1.08.05-.09-2.03-.99.04-.04-.88-1.08.05-.13-2.92-.9.04v-.12s-.5-11.17-.5-11.17l.9-.04-.13-2.98,1.08-.05-.09-1.93.98-.04-.04-.96,1.07-.05-.05-1.05.89-.04-.04-.88,1.07-.05-.05-1.05.98-.05-.04-.94.12-.03,1.93-.09-.05-1.05,1.96-.09-.05-.96h.12c3.21-.16,4.82-.24,8.03-.41h.12s.05.96.05.96c1.13-.06,1.74-.09,2.91-.15h.12s.06,1.05.06,1.05l1.07-.06.05.96.89-.05.31,5.88,1.07-.06.11,2.02,2.06-.11.05.96c1.85-.1,2.83-.16,4.68-.26l-.05-.97.99-.06-.12-2.02,1.07-.06-.1-1.68-1.07.06-.28-4.91-.98.06-.11-2.02-1.07.06-.06-.99-.89.05-.05-.99-.98.05-.06-1.08-1.07.06-.05-.99-1.96.11-.05-.9-2.94.16-.06-1.06c-5.25.28-7.81.41-12.75.65l.05,1.06h-.12c-1.21.06-1.83.09-2.99.15l.04.9h-.12c-1.13.06-1.72.09-2.82.14l.04.99-1.07.05.05,1.08-2.05.09.04.99-.89.04.04.99-.98.04.04.97-1.07.05.05,1.06-.89.04.04.97-1.07.05.04,1.06-.98.04.08,1.94-1.07.05.09,2.03-.99.04.08,1.94-1.08.05.25,5.91-.9.04.28,6.8.9-.04.12,2.91,1.08-.04.12,2.91.99-.04.09,2.03,1.08-.05.08,1.94.99-.04.05,1.06,1.08-.05.04.97.9-.04.05,1.06,1.06-.05.03.12.03.76,1-.04.05,1.06.91-.04.04.97,3.17-.14.05,1.06c1.55-.07,2.36-.11,3.95-.18h.12s.05.97.05.97l3.14-.15.03.09c1.19,3.76,1.79,5.66,2.98,9.38l.8-.3.97,2.97,1.62-.44Z"/>
      </g>
      <g>
        <path class="cls-2" d="M681.5,1031.29c5.59-.38,8.38-.57,13.97-.98.03.42.05.64.08,1.06.78-.06,1.17-.09,1.96-.14.03.35.04.53.06.88.82-.06,1.23-.09,2.05-.15.03.39.04.58.07.97.43-.03.64-.05,1.07-.08.03.42.05.64.08,1.06.39-.03.59-.04.98-.07.03.39.04.58.07.97.43-.03.64-.05,1.07-.08.06.78.09,1.16.15,1.94.36-.03.54-.04.89-.07.33,4.38.5,6.56.83,10.94-.36.03-.54.04-.9.07.63,8.33.94,12.49,1.57,20.82,1.55-.12,2.33-.18,3.88-.3-.03-.35-.04-.53-.07-.88,1.26-.1,1.89-.15,3.16-.24.03.35.04.53.07.88.36-.03.54-.04.9-.07.03.42.05.64.08,1.06.43-.03.65-.05,1.08-.09.09,1.16.14,1.75.23,2.91-.43.03-.65.05-1.08.09.03.42.05.64.08,1.06-1.63.13-2.44.19-4.07.32.03.39.04.58.07.97-1.19.09-1.79.14-2.98.23.03.42.05.64.08,1.06-2.82.21-4.23.32-7.06.52-.03-.42-.05-.64-.08-1.06-.43.03-.65.05-1.09.08-.03-.39-.04-.58-.07-.97-.83.06-1.25.09-2.08.15-.03-.42-.05-.64-.08-1.06-.8.06-1.19.09-1.99.14.03.42.05.64.08,1.06-1.19.08-1.79.13-2.98.21.03.39.04.58.07.97-1.66.12-2.5.17-4.16.29.03.42.04.64.07,1.06-5.65.39-8.47.57-14.12.93-.03-.42-.04-.64-.07-1.06-.83.05-1.25.08-2.08.13-.02-.39-.04-.58-.06-.97-.8.05-1.19.07-1.99.12-.03-.42-.04-.64-.07-1.06-.83.05-1.25.08-2.08.13-.02-.35-.03-.53-.05-.88-.43.03-.65.04-1.08.07-.05-.81-.07-1.22-.12-2.03-.36.02-.54.03-.9.05-.05-.78-.07-1.17-.12-1.94-.43.03-.65.04-1.08.07-.17-2.79-.25-4.19-.42-6.98.43-.03.65-.04,1.08-.06-.05-.78-.07-1.17-.12-1.94.36-.02.54-.03.9-.05-.05-.81-.07-1.22-.12-2.03.43-.03.65-.04,1.08-.07-.03-.42-.04-.64-.06-1.06.4-.02.59-.04.99-.06-.02-.39-.04-.58-.06-.97.79-.05,1.19-.07,1.98-.12-.03-.42-.04-.64-.07-1.06.83-.05,1.24-.08,2.07-.13-.02-.35-.03-.53-.06-.88.79-.05,1.19-.07,1.98-.12-.03-.42-.04-.64-.07-1.06,1.22-.08,1.83-.12,3.05-.2-.03-.39-.04-.58-.06-.97,1.61-.1,2.42-.16,4.04-.26-.03-.39-.04-.58-.06-.97,2.4-.16,3.6-.24,6.01-.4-.02-.35-.04-.53-.06-.88.43-.03.65-.04,1.08-.07.02.35.04.53.06.88,2.01-.14,3.01-.21,5.02-.35-.03-.36-.04-.53-.06-.89,1.18-.08,1.77-.13,2.96-.21-.03-.43-.05-.64-.08-1.06.43-.03.64-.05,1.07-.08-.03-.39-.04-.59-.07-.98.39-.03.59-.04.98-.07-.23-3.2-.35-4.79-.58-7.99-.39.03-.59.04-.98.07-.03-.39-.04-.59-.07-.98-.43.03-.64.05-1.07.08-.03-.43-.05-.64-.08-1.07-.36.03-.54.04-.89.06-.03-.39-.04-.59-.07-.98-.82.06-1.23.09-2.05.15-.03-.39-.04-.59-.07-.98-3.21.23-4.81.34-8.02.56.03.39.04.58.07.97-.82.06-1.23.08-2.05.14.03.39.04.58.07.97-.79.05-1.18.08-1.96.13.03.42.04.64.07,1.06-.39.03-.59.04-.98.06.03.39.04.58.06.97-.43.03-.64.04-1.07.07.08,1.2.12,1.8.2,3-.36.02-.54.04-.89.06.03.39.04.58.06.97-.43.03-.64.04-1.07.07.03.42.04.64.07,1.06-2,.13-3.01.19-5.01.32-.03-.42-.04-.64-.07-1.06-.39.02-.59.04-.98.06-.02-.39-.04-.58-.06-.97-.43.03-.64.04-1.07.07-.13-2.01-.19-3.02-.31-5.03.43-.03.64-.04,1.07-.07-.05-.78-.07-1.17-.12-1.94.82-.05,1.23-.08,2.05-.13-.02-.39-.04-.58-.06-.97.78-.05,1.18-.07,1.96-.12-.03-.42-.04-.64-.07-1.06.78-.05,1.18-.08,1.96-.13-.03-.39-.04-.58-.06-.97.78-.05,1.18-.08,1.96-.13-.02-.35-.03-.53-.06-.88,2.03-.13,3.04-.2,5.07-.34-.03-.42-.04-.64-.07-1.06ZM695.85,1064.18c.43-.03.65-.05,1.08-.08-.23-3.18-.34-4.77-.57-7.94-.43.03-.65.05-1.08.08l-.07-.97c-5.6.4-8.41.6-14.01.97.03.39.04.58.06.97-1.26.08-1.89.13-3.15.21.03.42.04.64.07,1.06-.79.05-1.19.08-1.98.13.03.39.04.58.06.97-.79.05-1.19.08-1.98.13.03.42.04.64.07,1.06-.43.03-.65.04-1.08.07.02.35.03.53.06.88-.36.02-.54.03-.9.06.05.81.08,1.22.13,2.03-.43.03-.65.04-1.08.07.1,1.59.15,2.38.25,3.97.43-.03.65-.04,1.08-.07.05.81.08,1.22.13,2.03.79-.05,1.19-.08,1.99-.13.02.35.03.53.06.88.79-.05,1.19-.08,1.99-.13.03.42.04.64.07,1.06,2.42-.16,3.63-.24,6.05-.4.03.39.04.58.07.97.43-.03.65-.04,1.08-.07-.03-.39-.04-.58-.07-.97,2.02-.14,3.03-.21,5.06-.35-.03-.42-.04-.64-.07-1.06.83-.06,1.25-.09,2.08-.14-.02-.35-.04-.53-.06-.88.79-.06,1.19-.08,1.99-.14-.03-.42-.04-.64-.07-1.06.83-.06,1.24-.09,2.07-.15-.03-.39-.04-.58-.07-.97.36-.03.54-.04.9-.06-.06-.81-.09-1.22-.15-2.03Z"/>
        <path class="cls-2" d="M673.33,1077.88l-.07-1.06-2.08.13-.06-.97-1.99.12-.07-1.06-2.08.13-.05-.88-1.08.06-.12-2.03-.9.06-.12-1.94-1.08.06-.43-7.23,1.08-.06-.12-1.94.9-.05-.12-2.03,1.08-.07-.06-1.06.99-.06-.06-.97,1.98-.12-.07-1.06,2.07-.13-.06-.88,1.98-.12-.07-1.06,3.05-.2-.06-.97h.12c1.57-.11,2.38-.16,3.91-.26l-.06-.97h.12c2.36-.17,3.56-.25,5.88-.4l-.06-.88,1.33-.09.06.88c1.88-.13,2.89-.2,4.77-.33l-.06-.89,2.96-.21-.08-1.06,1.07-.08-.07-.98.99-.07-.56-7.74-.98.07-.07-.98-1.07.08-.08-1.07-.89.06-.07-.98-2.05.15-.07-.98c-3.08.22-4.69.33-7.77.54l.07.97-2.05.14.06.97-1.96.13.07,1.06-.98.07.06.97-1.07.07.2,3-.89.06.06.97-1.07.07.07,1.06h-.12c-2,.14-3.01.2-5.01.33h-.12s-.07-1.05-.07-1.05l-.98.06-.06-.97-1.07.07-.33-5.28,1.07-.07-.12-1.94,2.05-.13-.06-.97,1.96-.12-.07-1.06,1.96-.13-.06-.97,1.96-.13-.06-.88h.12c1.99-.14,3-.21,4.95-.34l-.07-1.06h.12c5.67-.39,8.41-.58,13.97-.99h.12s.08,1.05.08,1.05l1.96-.14.06.88,2.05-.15.07.97,1.07-.08.08,1.06.98-.07.07.97,1.07-.08.15,1.94.89-.07v.12s.85,11.07.85,11.07l-.9.07,1.55,20.57c1.43-.11,2.2-.17,3.63-.28l-.07-.88,3.41-.26.07.88.9-.07.08,1.06,1.08-.08.25,3.16-1.08.08.08,1.06h-.12c-1.58.13-2.4.2-3.94.32l.08.97-2.99.23.08,1.06h-.12c-2.82.22-4.24.33-7.06.54h-.12s-.08-1.05-.08-1.05l-1.08.08-.07-.97-2.08.15-.08-1.06-1.74.12.08,1.06-2.98.21.07.97h-.12c-1.62.12-2.45.18-4.04.29l.07,1.06h-.12c-5.6.39-8.37.57-14.12.94h-.12ZM673.5,1076.56l.07,1.06c5.62-.36,8.4-.54,13.87-.91l-.07-1.06h.12c1.62-.12,2.45-.18,4.04-.29l-.07-.97,2.98-.21-.08-1.06,2.24-.16.08,1.06,2.08-.15.07.97,1.08-.08.08,1.06c2.7-.2,4.11-.3,6.81-.51l-.08-1.06,2.98-.23-.08-.97h.12c1.59-.13,2.4-.19,3.94-.32l-.08-1.06,1.08-.08-.21-2.66-1.08.08-.08-1.06-.9.07-.07-.88-2.91.22.07.88h-.12c-1.52.13-2.3.18-3.8.3l-.21.02v-.12s-1.59-20.95-1.59-20.95l.9-.07-.81-10.69-.89.07-.15-1.94-1.07.08-.07-.97-.98.07-.08-1.06-1.07.08-.07-.97-2.05.15-.06-.88-1.96.14-.08-1.06c-5.44.39-8.18.59-13.72.96l.07,1.06h-.12c-1.99.14-3,.21-4.95.34l.06.88-1.96.13.06.97-1.96.13.07,1.06-1.96.13.06.97-2.05.13.12,1.94-1.07.07.3,4.78,1.07-.07.06.97.98-.06.07,1.06c1.88-.12,2.88-.18,4.76-.3l-.07-1.06,1.07-.07-.06-.97.89-.06-.2-3,1.07-.07-.06-.97.98-.07-.07-1.06,1.96-.13-.06-.97,2.05-.14-.07-.97h.12c3.21-.23,4.81-.34,8.02-.56h.12s.07.97.07.97l2.05-.15.07.98.89-.06.08,1.07,1.07-.08.07.98.98-.07v.12s.6,8.11.6,8.11l-.99.07.07.98-1.07.08.08,1.07-2.96.21.06.89h-.12c-1.97.15-2.98.22-4.92.35l-.23.02-.06-.88-.83.06.06.88h-.12c-2.36.17-3.56.25-5.88.4l.06.97h-.12c-1.57.11-2.38.17-3.91.26l.06.97h-.12s-2.93.2-2.93.2l.07,1.06-1.98.12.06.88-2.07.13.07,1.06-1.98.12.06.97-.99.06.06,1.06-1.08.07.12,2.03-.9.05.12,1.94-1.08.06.4,6.73,1.08-.06.12,1.94.9-.05.12,2.03,1.08-.07.05.88,2.08-.13.07,1.06,1.99-.12.06.97,2.08-.13ZM683.04,1072.2l-.06-.97c-2.34.16-3.55.24-5.93.39h-.12s-.07-1.05-.07-1.05l-1.99.13-.06-.88-1.99.13-.13-2.03-1.08.07-.27-4.22,1.08-.07-.13-2.03.9-.06-.06-.88,1.08-.07-.07-1.06,1.98-.13-.06-.97,1.98-.13-.07-1.06h.12c1.22-.09,1.84-.13,3.02-.21l-.06-.97h.12c5.59-.38,8.34-.57,14.01-.98h.12s.07.96.07.96l1.08-.08v.12s.59,8.07.59,8.07l-1.08.08.15,2.03-.9.06.07.97-2.08.15.08,1.06-1.99.14.06.88h-.12c-.79.06-1.2.09-1.95.14l.07,1.06h-.12c-1.98.15-2.99.21-4.93.34l.07.97-1.33.09ZM683.21,1070.96l.06.97.83-.06-.07-.97h.12c1.98-.14,2.99-.21,4.93-.34l-.07-1.06h.12c.79-.06,1.2-.09,1.95-.14l-.06-.88,1.99-.14-.08-1.06,2.08-.15-.07-.97.9-.06-.15-2.03,1.08-.08-.56-7.69-1.08.08-.07-.97c-5.55.4-8.3.59-13.76.95l.06.97h-.12c-1.22.09-1.84.13-3.02.21l.07,1.06-1.98.13.06.97-1.98.13.07,1.06-1.08.07.06.88-.9.06.13,2.03-1.08.07.23,3.72,1.08-.07.13,2.03,1.99-.13.06.88,1.99-.13.07,1.06c2.34-.15,3.55-.23,5.93-.39h.12Z"/>
      </g>
    </g>
    <g>
      <path class="cls-2" d="M383.54,1132.32c5.62.39,8.43.58,14.05.92-.03.42-.04.64-.07,1.06.79.05,1.18.07,1.97.12-.02.35-.03.53-.05.88.82.05,1.24.08,2.06.12-.02.39-.03.58-.06.97.43.03.65.04,1.08.06-.03.42-.04.64-.06,1.06.76.05,1.14.07,1.9.11-.02.41-.04.61-.06,1.02.44.03.65.04,1.09.06-.02.41-.04.61-.06,1.02.36.02.54.03.91.05-.02.39-.03.58-.06.97.44.03.65.04,1.09.06-.05.81-.07,1.21-.11,2.02.4.02.6.03,1,.06-.02.42-.04.63-.06,1.05.44.02.66.04,1.09.06-.04.77-.06,1.16-.11,1.94.4.02.6.03,1,.06-.06,1.16-.1,1.74-.16,2.9.4.02.6.03.99.05-.17,3.2-.26,4.8-.44,8-.4-.02-.6-.03-1-.05-.02.35-.03.53-.05.88-1.24-.07-1.85-.1-3.09-.17-.02.42-.04.63-.06,1.05-8.85-.49-17.7-1.06-26.54-1.69-.03.39-.04.58-.07.97-2.07-.15-3.11-.22-5.18-.37-.03.42-.05.64-.08,1.06-.36-.03-.55-.04-.91-.07-.09,1.16-.13,1.75-.22,2.91.36.03.55.04.91.07-.06.81-.09,1.22-.15,2.03.44.03.65.05,1.09.08-.06.78-.08,1.16-.14,1.94.4.03.6.04,1,.07-.03.39-.04.58-.07.97.44.03.66.05,1.09.08-.03.42-.05.64-.08,1.06.36.03.55.04.91.07-.03.39-.04.58-.07.97.84.06,1.26.09,2.1.15-.03.42-.04.64-.07,1.06.84.06,1.26.09,2.1.15-.02.35-.04.53-.06.88,1.64.11,2.46.17,4.11.28-.03.46-.05.69-.08,1.15,3.29.22,4.93.33,8.22.53.03-.46.04-.69.07-1.15,2.48.16,3.73.23,6.21.38.02-.35.03-.53.05-.88,1.21.07,1.81.11,3.01.18.02-.42.04-.64.06-1.06,1.2.07,1.81.1,3.01.17.02-.39.03-.58.05-.97,1.64.09,2.46.14,4.1.23-.02.4-.03.6-.05.99.44.02.66.04,1.1.06-.07,1.23-.1,1.84-.16,3.07-.44-.02-.66-.04-1.1-.06-.02.38-.03.57-.05.94-.37-.02-.55-.03-.91-.05-.02.41-.03.62-.06,1.03-.84-.05-1.26-.07-2.1-.12-.02.34-.03.51-.05.86-.84-.05-1.26-.07-2.11-.12-.02.42-.04.64-.06,1.06-1.65-.09-2.47-.14-4.12-.24-.02.39-.03.58-.06.97-1.65-.1-2.47-.15-4.12-.25-.03.42-.04.64-.06,1.06-2.05-.13-3.08-.19-5.13-.32-.02.39-.04.58-.06.97-4.11-.26-6.16-.4-10.27-.68.03-.39.04-.58.07-.97-1.69-.12-2.53-.18-4.21-.3.03-.42.05-.64.08-1.06-1.21-.09-1.81-.13-3.02-.22.03-.39.04-.58.07-.97-.81-.06-1.21-.09-2.01-.15.03-.42.05-.64.08-1.06-.44-.03-.66-.05-1.1-.08.03-.34.04-.51.06-.86-.4-.03-.6-.05-1.01-.08.03-.41.05-.62.08-1.03-.8-.06-1.21-.09-2.01-.15.03-.38.04-.56.07-.94-.4-.03-.6-.05-1-.08.06-.78.09-1.16.15-1.94-.44-.03-.66-.05-1.09-.08.03-.42.05-.64.08-1.06-.4-.03-.6-.05-1-.08.06-.81.09-1.22.16-2.03-.44-.03-.66-.05-1.09-.09.15-1.98.23-2.96.39-4.94-.36-.03-.54-.04-.91-.07.28-3.56.42-5.35.7-8.91.36.03.54.04.9.07.15-1.98.23-2.96.39-4.94.43.03.65.05,1.08.08.06-.78.09-1.16.15-1.94.4.03.59.05.99.08.06-.81.09-1.22.16-2.03.43.03.65.05,1.08.08.06-.78.09-1.16.15-1.94.4.03.59.05.99.08.03-.42.05-.64.08-1.06.43.03.65.05,1.08.08.03-.39.04-.58.07-.97.36.03.54.04.9.07.06-.81.09-1.22.15-2.03.39.03.59.04.99.07.03-.41.05-.61.08-1.02.43.03.65.05,1.08.08.03-.41.04-.61.07-1.01.79.06,1.18.09,1.97.14.03-.42.05-.64.08-1.06.82.06,1.24.09,2.06.15.03-.39.04-.58.07-.97.79.06,1.18.08,1.97.14.02-.35.04-.53.06-.88.82.06,1.24.09,2.06.14.03-.42.04-.64.07-1.06ZM401.74,1149.54c.36.02.54.03.9.05.02-.42.04-.64.06-1.06-.36-.02-.54-.03-.9-.05.05-.78.07-1.17.12-1.94-.43-.03-.65-.04-1.08-.06.02-.39.03-.58.06-.97-.4-.02-.59-.04-.99-.06.03-.42.04-.64.06-1.06-.43-.03-.65-.04-1.08-.07.05-.78.07-1.17.12-1.94-.79-.05-1.19-.07-1.98-.12.02-.39.04-.58.06-.97-.4-.02-.59-.04-.99-.06.03-.42.04-.64.07-1.06-1.26-.08-1.89-.12-3.14-.2.02-.39.04-.58.06-.97-3.16-.2-4.74-.31-7.9-.52-.03.39-.04.58-.07.97-.83-.06-1.24-.09-2.07-.14-.03.42-.04.64-.07,1.06-.43-.03-.65-.05-1.08-.08-.03.39-.04.58-.07.97-.4-.03-.59-.04-.99-.07-.03.42-.04.64-.07,1.06-.43-.03-.65-.05-1.08-.08-.03.35-.04.53-.06.88-.36-.03-.54-.04-.9-.06-.03.42-.05.64-.08,1.06-.43-.03-.65-.05-1.08-.08-.03.39-.04.58-.07.97-.4-.03-.59-.04-.99-.07-.06.78-.08,1.17-.14,1.94-.43-.03-.65-.05-1.08-.08-.15,1.98-.22,2.97-.36,4.94,6.54.48,9.82.71,16.36,1.13.02-.35.03-.53.06-.88,3.65.24,5.48.35,9.13.57.03-.42.04-.64.06-1.06.43.03.65.04,1.08.06.05-.78.07-1.17.12-1.94ZM385.41,1122.07c2.04-1,3.05-1.49,5.08-2.49.16.29.24.44.4.74,2.81-1.41,4.21-2.12,7-3.54-.12-.29-.19-.44-.31-.73,1.58-.79,2.37-1.18,3.95-1.97.12.29.19.44.31.73.22-.13.33-.19.55-.32.13.26.19.38.32.64.22-.09.33-.14.55-.23.66,1.39,1,2.08,1.66,3.47-.18.1-.28.14-.46.24.29.55.43.82.72,1.37-.81.41-1.21.62-2.02,1.03.16.29.24.44.4.73-6.22,3.14-9.34,4.7-15.61,7.79-.12-.29-.19-.44-.31-.73-.22.09-.33.14-.55.23-.13-.26-.19-.39-.32-.64-.22.09-.33.14-.55.23-.82-1.65-1.23-2.48-2.05-4.13.19-.09.28-.14.46-.23-.13-.26-.19-.39-.31-.64.59-.31.89-.47,1.49-.78-.16-.29-.24-.44-.4-.74Z"/>
      <path class="cls-2" d="M484.45,1114.33c3.19.05,4.78.07,7.97.11,0,.35,0,.53-.01.88,4.39.05,6.59.07,10.99.1,0,.42,0,.64,0,1.06.43,0,.64,0,1.06,0,0,.39,0,.58,0,.97.35,0,.53,0,.89,0,0,.42,0,.64,0,1.06-.36,0-.53,0-.89,0,0,1.59-.01,2.39-.02,3.98-.82,0-1.23,0-2.05-.01,0,.39,0,.58,0,.97-.43,0-.64,0-1.07,0,0,.42,0,.64,0,1.06-2.78-.02-4.17-.03-6.94-.06,0-.42,0-.64.01-1.06-1.99-.02-2.99-.03-4.98-.06,0-.39,0-.58.01-.97-3.2-.04-4.8-.07-8-.12,0,.39-.01.58-.02.97-.82-.01-1.23-.02-2.05-.04,0,.42-.01.64-.02,1.06-.36,0-.53,0-.89-.02,0,.35-.01.53-.02.88-.43,0-.64-.01-1.07-.02-.02.81-.02,1.22-.04,2.04-.39,0-.59-.01-.98-.02-.08,4-.12,6-.2,10,.39,0,.59.01.99.02,0,.35-.01.53-.02.89.43,0,.65.01,1.08.02,0,.42-.01.64-.02,1.06,6.42.12,9.64.17,16.06.24,0-.42,0-.64.01-1.06,1.61.02,2.42.02,4.04.04,0,.42,0,.64,0,1.06.83,0,1.24.01,2.06.02-.01,1.56-.02,2.34-.03,3.89-.43,0-.65,0-1.08,0,0,.42,0,.64,0,1.06-1.19,0-1.78-.01-2.97-.03,0,.39,0,.58,0,.97-.43,0-.65,0-1.08-.01,0-.39,0-.58,0-.97-6.48-.07-9.72-.11-16.19-.23,0,.39-.01.58-.02.97-.79-.01-1.19-.02-1.98-.04-.19,9.64-.38,19.29-.57,28.93.44,0,.66.01,1.1.02-.01.78-.02,1.17-.04,1.95.37,0,.55.01.91.02,0,.39-.01.58-.02.97,4.54.09,6.81.12,11.35.18,0,.42,0,.64-.01,1.06,1.25.02,1.87.02,3.11.04,0-.42,0-.64.01-1.06.81,0,1.21.01,2.01.02,0,.42,0,.64-.01,1.06.81,0,1.21.01,2.01.02-.01,1.59-.02,2.39-.04,3.98-.37,0-.55,0-.92,0,0,.39,0,.58,0,.97-1.69-.02-2.53-.03-4.22-.05,0,.42,0,.64-.01,1.06-.37,0-.55,0-.92-.01,0-.42,0-.64.01-1.06-11.39-.14-22.77-.38-34.15-.72.01-.39.02-.58.03-.97-.37-.01-.55-.02-.92-.03.04-1.24.06-1.86.09-3.1.37.01.55.02.92.03.01-.35.02-.53.03-.88.84.03,1.26.04,2.11.06.01-.42.02-.64.03-1.06,2.85.08,4.28.12,7.14.19l.02-.97c.84.02,1.26.03,2.1.05.01-.42.02-.64.03-1.06.44.01.66.02,1.1.03.22-9.58.45-19.17.67-28.75-.43-.01-.65-.02-1.08-.03.01-.42.02-.64.03-1.06-.83-.02-1.24-.03-2.07-.05l.02-.97c-2.81-.07-4.21-.11-7.02-.19.01-.42.02-.64.03-1.06-.4-.01-.59-.02-.99-.03.01-.35.02-.53.03-.89-.43-.01-.65-.02-1.08-.03.01-.42.02-.64.03-1.06.43.01.65.02,1.08.03.02-.78.03-1.17.06-1.95.83.02,1.24.04,2.06.06.01-.42.02-.64.03-1.06,2.8.08,4.2.12,6.99.18,0-.35.01-.53.02-.89.39,0,.59.01.99.02.08-3.22.12-4.83.19-8.05.43.01.64.02,1.07.03.04-1.59.06-2.39.09-3.98.36,0,.53.01.89.02.02-.78.03-1.17.04-1.95.43,0,.64.01,1.07.02.02-.81.03-1.22.05-2.03.39,0,.59.01.98.02,0-.39.01-.58.02-.97.43,0,.64.01,1.07.02,0-.42.01-.64.02-1.06.35,0,.53.01.89.02,0-.35.01-.53.02-.89.82.02,1.22.03,2.04.04,0-.42.01-.64.02-1.06.43,0,.64.01,1.06.02,0-.39.01-.58.02-.97.74.01,1.12.02,1.86.03,0-.42.01-.64.02-1.06,1.59.03,2.39.04,3.99.07,0-.35,0-.53.01-.88Z"/>
      <path class="cls-2" d="M525.43,1137.19c1.59,0,2.39-.01,3.99-.03,0,.42,0,.64,0,1.06.83,0,1.25-.01,2.09-.02.01,1.17.02,1.75.03,2.92.4,0,.59,0,.99,0,.01,1.17.02,1.75.03,2.92-.4,0-.59,0-.99,0,.09,10.32.19,20.65.28,30.97.4,0,.6,0,1.01,0,0,.35,0,.53,0,.88.8,0,1.21-.01,2.01-.02,0,.42,0,.64.01,1.06,6.55-.07,9.83-.12,16.38-.25,0,.39.01.58.02.97.84-.02,1.26-.02,2.11-.04.03,1.59.05,2.39.08,3.98-.4,0-.61.01-1.01.02,0,.42.01.64.02,1.06-.81.02-1.21.02-2.02.04,0,.39.01.58.02.97-2.09.04-3.14.06-5.24.09,0-.39,0-.58-.02-.97-11.02.18-22.03.26-33.05.25,0,.39,0,.58,0,.97-.77,0-1.16,0-1.93,0,0-.39,0-.58,0-.97-.84,0-1.27,0-2.11,0,0-.81,0-1.22,0-2.03-.44,0-.66,0-1.1,0,0-.42,0-.64,0-1.06.44,0,.66,0,1.1,0,0-.78,0-1.17,0-1.95.4,0,.6,0,1.01,0,0-.39,0-.58,0-.97,4.14.01,6.21.01,10.34,0,0-.42,0-.64,0-1.06.81,0,1.21,0,2.01,0,0-.35,0-.53,0-.88.84,0,1.26,0,2.1,0-.05-9.97-.1-19.94-.15-29.91-1.26,0-1.89,0-3.15.01,0-.42,0-.64,0-1.06-2.81,0-4.21.01-7.02,0,0,.42,0,.64,0,1.06-1.62,0-2.43,0-4.05,0,0-.42,0-.64,0-1.06-.4,0-.59,0-.99,0,0-.39,0-.58,0-.97-.43,0-.65,0-1.08,0,0-1.17,0-1.75.01-2.92.43,0,.65,0,1.08,0,0-.42,0-.64,0-1.06,3.19.01,4.79.01,7.99,0,0-.35,0-.53,0-.88,3.67,0,5.5-.01,9.17-.03,0-.42,0-.64,0-1.06ZM526.3,1117.27c2.01-.01,3.01-.02,5.02-.04,0,.39,0,.58,0,.97.76,0,1.15-.01,1.91-.02,0,.42,0,.64.01,1.06.42,0,.63,0,1.04-.01,0,.35,0,.53,0,.88.38,0,.57,0,.95-.01.03,2.41.04,3.61.07,6.02-.39,0-.59,0-.98.01,0,.39,0,.58.01.97-.43,0-.64,0-1.07.01,0,.42,0,.64.01,1.06-.36,0-.54,0-.89,0,0,.35,0,.53,0,.88-.39,0-.59,0-.98,0,0,.42,0,.64,0,1.06-.83,0-1.25.01-2.08.02,0,.39,0,.58,0,.97-1.19,0-1.79.01-2.98.02,0-.39,0-.58,0-.97-1.19,0-1.79.01-2.98.02,0-.42,0-.64,0-1.06-.43,0-.64,0-1.07,0,0-.35,0-.53,0-.88-.39,0-.59,0-.98,0,0-2.41-.01-3.61-.02-6.02.39,0,.59,0,.98,0,0-.81,0-1.22,0-2.04.43,0,.64,0,1.07,0,0-.35,0-.53,0-.88.36,0,.54,0,.9,0,0-.42,0-.64,0-1.06.83,0,1.24,0,2.06-.01,0-.39,0-.58,0-.97Z"/>
      <path class="cls-2" d="M558.59,1137.58c6.06-.14,9.09-.23,15.15-.42.01.42.02.64.03,1.06,1.97-.06,2.96-.09,4.93-.16.03.79.04,1.19.07,1.98.43-.01.65-.02,1.08-.04.01.4.02.59.03.99-.43.01-.65.02-1.08.04.01.4.02.59.03.99-.36.01-.54.02-.9.03.01.4.02.59.03.99-.4.01-.59.02-.99.03.01.39.02.58.03.97-.43.01-.65.02-1.08.04.04,1.24.06,1.86.1,3.1.83-.03,1.24-.04,2.07-.07.03.78.04,1.17.07,1.95.36-.01.54-.02.9-.03.01.39.02.58.03.97.43-.01.65-.02,1.08-.04.01.42.02.64.04,1.06.4-.01.6-.02.99-.03.01.35.02.53.03.88.43-.02.65-.02,1.08-.04.02.42.02.64.04,1.06.8-.03,1.19-.04,1.99-.07.01.39.02.58.04.97.4-.01.6-.02.99-.04-.01-.39-.02-.58-.04-.97.83-.03,1.25-.05,2.08-.08-.02-.42-.02-.64-.04-1.06.43-.02.65-.03,1.08-.04-.01-.35-.02-.53-.03-.88.36-.01.54-.02.9-.04-.02-.42-.03-.64-.04-1.06.43-.02.65-.03,1.08-.04-.02-.39-.02-.58-.04-.97.4-.02.6-.02.99-.04-.02-.42-.03-.64-.04-1.06.43-.02.65-.03,1.08-.04-.01-.35-.02-.53-.04-.88.36-.01.54-.02.9-.04-.05-1.24-.08-1.86-.13-3.09-.36.01-.54.02-.9.04-.02-.39-.02-.58-.04-.97-.83.03-1.24.05-2.07.08-.02-.4-.02-.59-.04-.99-.43.02-.65.03-1.08.04-.02-.4-.02-.59-.04-.99-.36.01-.54.02-.9.04-.02-.4-.02-.59-.04-.99.36-.01.54-.02.9-.04-.02-.43-.03-.65-.04-1.08.43-.02.65-.03,1.08-.04-.01-.36-.02-.54-.04-.9,7.25-.29,10.87-.45,18.11-.81.02.36.03.54.04.9.36-.02.54-.03.9-.04.08,1.62.12,2.43.2,4.05-1.98.1-2.97.15-4.94.24.02.39.03.58.05.97-.83.04-1.24.06-2.07.1.02.42.03.64.05,1.06-.36.02-.54.03-.9.04.02.39.03.58.04.97-.43.02-.65.03-1.08.05.02.42.03.64.05,1.06-.4.02-.59.03-.99.04.02.35.02.53.04.88-.83.04-1.24.06-2.07.09.02.42.03.64.05,1.06-.43.02-.65.03-1.08.05.04.81.05,1.22.09,2.03-.36.02-.54.02-.9.04.02.35.02.53.04.88-.43.02-.65.03-1.08.05.03.81.05,1.22.09,2.03-.4.02-.6.03-.99.04.02.42.03.64.04,1.06-.36.01-.54.02-.9.04.02.39.02.58.04.97-.43.02-.65.03-1.09.04.08,1.95.12,2.92.2,4.86.44-.02.65-.03,1.09-.04.02.42.03.64.04,1.06.36-.01.54-.02.91-.04.02.39.02.58.04.97.4-.02.6-.03,1-.04.02.42.03.64.04,1.06.44-.02.65-.03,1.09-.05.02.39.02.58.04.97.36-.02.55-.02.91-.04.03.78.05,1.17.08,1.94.84-.04,1.26-.05,2.09-.09.02.42.03.64.05,1.06.44-.02.66-.03,1.09-.05.02.39.03.58.04.97.4-.02.6-.03,1-.05.04.78.05,1.17.09,1.94.44-.02.66-.03,1.09-.05.02.39.03.58.04.97.37-.02.55-.03.91-.04.02.42.03.64.05,1.06.44-.02.66-.03,1.1-.05.02.39.03.58.05.97.4-.02.6-.03,1-.05.02.42.03.64.05,1.06.8-.04,1.21-.06,2.01-.1.02.35.03.53.04.88,1.65-.08,2.47-.12,4.11-.2.02.42.03.64.05,1.06.4-.02.6-.03,1.01-.05.02.39.03.58.05.97.44-.02.66-.03,1.1-.06.04.78.06,1.17.1,1.94.4-.02.6-.03,1.01-.05.02.42.03.64.06,1.06-.4.02-.61.03-1.01.05.02.39.03.58.05.97-8.66.45-12.99.65-21.65,1-.02-.39-.02-.58-.04-.97-.4.02-.61.02-1.01.04-.06-1.59-.1-2.39-.16-3.98,1.21-.05,1.81-.07,3.02-.12-.02-.42-.03-.64-.04-1.06.4-.02.6-.03,1.01-.04-.05-1.17-.07-1.75-.12-2.92-.4.02-.6.03-1,.04-.02-.42-.03-.64-.04-1.06-.37.02-.55.02-.91.04-.02-.39-.02-.58-.04-.97-.44.02-.66.03-1.09.04-.03-.78-.05-1.17-.08-1.95-.4.02-.6.02-1,.04-.02-.39-.02-.58-.04-.97-.44.02-.66.03-1.09.04-.02-.42-.03-.64-.04-1.06-.36.01-.55.02-.91.04-.01-.35-.02-.53-.03-.88-.44.02-.66.03-1.09.04-.02-.42-.02-.64-.04-1.06-.4.02-.6.02-1,.04-.01-.39-.02-.58-.04-.97-1.64.06-2.45.09-4.09.15.01.39.02.58.03.97-.44.02-.65.02-1.09.04.03.78.04,1.17.07,1.95-.4.01-.6.02-1,.04.01.42.02.64.04,1.06-.8.03-1.2.04-2,.07.03.81.04,1.22.07,2.03-.4.01-.6.02-1,.03.01.35.02.53.03.88-.44.01-.66.02-1.09.04.01.39.02.58.03.97-.37.01-.55.02-.91.03.03.81.04,1.22.07,2.03-.44.01-.66.02-1.1.03.01.42.02.64.03,1.06.44-.01.66-.02,1.1-.04.02.78.04,1.17.06,1.95,1.57-.05,2.36-.08,3.94-.13.01.39.02.58.03.97.44-.01.66-.02,1.1-.04.03.78.04,1.17.07,1.95-.44.02-.66.02-1.1.04.03.81.04,1.22.07,2.03-7.78.27-11.67.38-19.46.57,0-.39-.01-.58-.02-.97-.44.01-.66.02-1.1.03-.04-1.59-.06-2.39-.09-3.98.44-.01.66-.02,1.1-.03-.01-.42-.02-.64-.03-1.06,1.21-.03,1.81-.04,3.02-.08,0-.35-.01-.53-.02-.88,1.21-.03,1.81-.05,3.02-.08-.01-.42-.02-.64-.03-1.06.44-.01.66-.02,1.1-.03-.01-.39-.02-.58-.03-.97.4-.01.6-.02,1-.03-.01-.42-.02-.64-.03-1.06.44-.01.66-.02,1.1-.03-.01-.39-.02-.58-.03-.97.36-.01.55-.02.91-.03-.01-.35-.02-.53-.03-.89.44-.01.66-.02,1.09-.03-.02-.81-.04-1.22-.06-2.03.4-.01.6-.02,1-.03-.01-.42-.02-.64-.03-1.06.84-.03,1.26-.04,2.09-.06-.02-.78-.04-1.17-.06-1.95.44-.01.65-.02,1.09-.03-.01-.39-.02-.58-.03-.97.36-.01.55-.02.91-.03-.01-.42-.02-.64-.03-1.06.44-.01.65-.02,1.09-.04-.01-.39-.02-.58-.03-.97.4-.01.6-.02,1-.03-.07-2.02-.1-3.02-.17-5.04-.4.01-.6.02-1,.03-.02-.74-.04-1.11-.06-1.86-.43.01-.65.02-1.09.04-.01-.42-.02-.64-.03-1.06-.36.01-.54.02-.9.03l-.03-.97c-.43.01-.65.02-1.08.03-.01-.42-.02-.64-.03-1.06-.4.01-.6.02-.99.03-.01-.35-.02-.53-.03-.88-.43.01-.65.02-1.08.03-.01-.42-.02-.64-.03-1.06-.4.01-.6.02-.99.03-.01-.39-.02-.58-.03-.97-.43.01-.65.02-1.08.03-.01-.42-.02-.64-.03-1.06-.36.01-.54.02-.9.03-.01-.35-.02-.53-.03-.88-.43.01-.65.02-1.08.03-.01-.42-.02-.64-.03-1.06-.4.01-.59.02-.99.03-.01-.39-.02-.58-.03-.97-.43.01-.65.02-1.08.03-.01-.42-.02-.64-.03-1.06-.79.02-1.19.03-1.98.05-.01-.39-.02-.58-.03-.97-2.41.06-3.62.09-6.03.15,0-.4-.01-.59-.02-.99-.43,0-.65.01-1.08.02-.03-1.22-.04-1.84-.07-3.06.43,0,.65-.01,1.08-.02,0-.36-.01-.54-.02-.9.39,0,.59-.01.99-.02,0-.42-.01-.64-.02-1.06Z"/>
      <path class="cls-2" d="M631.99,1133.18c5.62-.35,8.43-.54,14.05-.93.03.42.04.64.07,1.06.79-.06,1.18-.08,1.97-.14.03.35.04.53.06.88.82-.06,1.24-.09,2.06-.15.03.39.04.58.07.97.43-.03.64-.05,1.07-.08.03.42.05.64.08,1.06.76-.06,1.14-.08,1.9-.14.03.41.04.61.07,1.01.44-.03.65-.05,1.09-.08.03.41.05.61.08,1.02.36-.03.54-.04.91-.07.03.39.04.58.07.97.44-.03.65-.05,1.09-.08.06.81.09,1.21.15,2.02.4-.03.6-.05,1-.08.03.42.05.63.08,1.05.44-.03.65-.05,1.09-.08.06.77.09,1.16.15,1.93.4-.03.6-.05,1-.08.09,1.16.13,1.74.22,2.9.4-.03.59-.05.99-.08.25,3.2.37,4.79.62,7.99-.4.03-.6.05-1,.08.03.35.04.53.07.88-1.23.1-1.85.14-3.09.24.03.42.05.63.08,1.05-8.84.67-17.68,1.28-26.53,1.82.02.39.04.58.06.97-2.07.13-3.11.19-5.18.31.02.42.04.64.06,1.06-.36.02-.55.03-.91.05.07,1.17.1,1.75.17,2.92.36-.02.55-.03.91-.05.05.81.07,1.22.12,2.03.44-.03.66-.04,1.09-.06.05.78.07,1.17.12,1.94.4-.02.6-.04,1-.06.02.39.03.58.06.97.44-.03.66-.04,1.09-.07.03.42.04.64.06,1.06.36-.02.55-.03.91-.06.02.39.04.58.06.97.84-.05,1.26-.08,2.1-.13.03.42.04.64.07,1.06.84-.05,1.26-.08,2.1-.13.02.35.03.53.06.88,1.64-.1,2.47-.16,4.11-.26.03.46.04.69.07,1.15,3.29-.21,4.93-.33,8.22-.55-.03-.46-.05-.69-.08-1.15,2.48-.17,3.72-.26,6.21-.44-.03-.35-.04-.53-.06-.88,1.2-.09,1.81-.13,3.01-.22-.03-.42-.05-.64-.08-1.06,1.2-.09,1.81-.13,3.01-.23-.03-.39-.04-.58-.07-.97,1.64-.12,2.46-.19,4.1-.32.03.4.05.6.08.99.44-.03.66-.05,1.09-.09.1,1.23.14,1.84.24,3.07-.44.03-.66.05-1.1.09.03.38.04.56.07.94-.37.03-.55.04-.91.07.03.41.05.62.08,1.03-.84.07-1.26.1-2.1.16.03.34.04.51.07.86-.84.06-1.26.1-2.1.16.03.42.05.64.08,1.06-1.65.12-2.47.19-4.12.31.03.39.04.58.07.97-1.65.12-2.47.18-4.12.3.03.42.05.64.08,1.06-2.05.15-3.08.22-5.13.36.03.39.04.58.07.97-4.11.28-6.16.42-10.27.68-.02-.39-.04-.58-.06-.97-1.69.11-2.53.16-4.22.26-.03-.42-.04-.64-.06-1.06-1.21.07-1.81.11-3.02.18-.02-.39-.03-.58-.06-.97-.81.05-1.21.07-2.01.12-.02-.42-.04-.64-.06-1.06-.44.03-.66.04-1.1.06-.02-.34-.03-.51-.05-.86-.4.02-.6.03-1.01.06-.02-.41-.04-.62-.06-1.03-.8.05-1.21.07-2.01.11-.02-.38-.03-.57-.05-.94-.4.02-.6.03-1.01.06-.04-.78-.06-1.17-.11-1.94-.44.02-.66.04-1.1.06-.02-.42-.04-.64-.06-1.06-.4.02-.6.03-1,.05-.04-.81-.07-1.22-.11-2.03-.44.02-.66.04-1.09.06-.11-1.98-.16-2.97-.27-4.95-.36.02-.55.03-.91.05-.19-3.57-.29-5.35-.48-8.92.36-.02.54-.03.9-.05-.11-1.98-.16-2.97-.27-4.95.43-.02.65-.04,1.08-.06-.04-.78-.06-1.17-.11-1.94.4-.02.6-.03.99-.05-.04-.81-.07-1.22-.11-2.03.43-.02.65-.04,1.08-.06-.04-.78-.06-1.17-.11-1.94.4-.02.59-.03.99-.06-.02-.42-.04-.64-.06-1.06.43-.02.65-.04,1.08-.06l-.06-.97c.36-.02.54-.03.9-.05-.05-.81-.07-1.22-.12-2.03.4-.02.59-.03.99-.06-.02-.41-.04-.61-.06-1.02.43-.02.65-.04,1.08-.06-.02-.41-.04-.61-.06-1.02.79-.05,1.18-.07,1.97-.12-.03-.42-.04-.64-.06-1.06.82-.05,1.24-.07,2.06-.12-.02-.39-.04-.58-.06-.97.79-.05,1.18-.07,1.97-.12-.02-.35-.03-.53-.05-.88.82-.05,1.24-.08,2.06-.13-.03-.42-.04-.64-.07-1.06ZM652.3,1147.86c.36-.03.54-.04.9-.07-.03-.42-.05-.64-.08-1.06-.36.03-.54.04-.9.07-.06-.78-.08-1.16-.14-1.94-.43.03-.65.05-1.08.08-.03-.39-.04-.58-.07-.97-.4.03-.59.04-.99.07-.03-.42-.05-.64-.08-1.06-.43.03-.65.05-1.08.08-.06-.78-.08-1.17-.14-1.94-.79.06-1.19.08-1.98.14-.03-.39-.04-.58-.07-.97-.4.03-.59.04-.99.07-.03-.42-.04-.64-.07-1.06-1.26.09-1.89.13-3.14.22-.03-.39-.04-.58-.07-.97-3.16.21-4.74.32-7.9.52.02.39.04.58.06.97-.83.05-1.24.08-2.07.13.03.42.04.64.07,1.06-.43.03-.65.04-1.08.07.02.39.04.58.06.97-.4.02-.59.04-.99.06.03.42.04.64.07,1.06-.43.03-.65.04-1.08.07.02.35.03.53.05.88-.36.02-.54.03-.9.05.03.42.04.64.06,1.06-.43.03-.65.04-1.08.06.02.39.03.58.06.97-.4.02-.59.04-.99.06.05.78.07,1.17.12,1.94-.43.03-.65.04-1.08.06.12,1.98.17,2.97.29,4.95,6.55-.38,9.82-.59,16.37-1.03-.02-.35-.04-.53-.06-.88,3.65-.25,5.48-.37,9.13-.64-.03-.42-.05-.64-.08-1.06.43-.03.65-.05,1.08-.08-.06-.78-.08-1.16-.14-1.94Z"/>
    </g>
  </g>
</svg>