<?xml version="1.0" encoding="UTF-8"?>
<svg id="Camada_1" xmlns="http://www.w3.org/2000/svg" viewBox="0 0 1080 1920">
  <defs>
    <style>
      .cls-1 {
        fill: #f1bf66;
      }

      .cls-2 {
        fill: #252856;
      }

      .cls-3 {
        fill: #1d1d1b;
      }

      .cls-4 {
        fill: #f3efe9;
      }
    </style>
  </defs>
  <rect class="cls-4" x="5.51" y="0" width="1068.98" height="1920"/>
  <path class="cls-1" d="M541.62,371.1h0c295.35,0,535.14,239.79,535.14,535.14v557.75H6.48v-557.75c0-295.35,239.79-535.14,535.14-535.14Z"/>
  <g>
    <path d="M851.12,103.05h.5v.6h1.74v.5h.5v2.84h-.5v1.15h-.6v1.05h-.55v1.15h-.6v1.1h-.5v.6h-.55v1.69h-.6v1.1h-.5v1.15h-.6v1.1h-.55v1.14h-.6v1.14h-.55v1.09h-.6v1.14h-.5v1.09h-.6v1.14h-.55v.55h-.6v1.09h-.5v1.14h-.6v.5h-.55v1.14h-.5v1.69h-.6v.55h.6v.59h1.04v.55h10.11v-.55h1.64v-1.15h.6v-10.11h.55v-.5h.6v-.6h1.64v.6h.6v.5h.5v10.66h.55v.6h.6v.55h4.48v.61h.55v1.11h.6v.56h-.6v.56h-.55v.56h-4.48v.55h-.6v1.15h-.55v.6h.55v3.34h-.55v2.19h-.5v.6h-.6v.55h-1.64v-.55h-1.15v-1.64h-.6v-.6h.6v-1.64h-.6v-4.53h-15.69v-.55h-1.1v-1.1h-.55v-3.93h.55v-1.69h.6v-.6h.5v-1.1h.6v-1.05h.55v-.6h.6v-1.15h.55v-1.15h.6v-1.1h.5v-1.15h.55v-1.64h.6v-1.15h.5v-1.1h.6v-1.15h.55v-1.1h.6v-1.69h.5v-.6h.6v-1.64h.55v-1.64h.6v-1.15h.55v-1.1h.6v-1.15h.5v-.6h.6v-.5h.55v-.6Z"/>
    <path d="M872.34,137.92h1.64v.6h.6v.55h1.15v.6h.5v1.1h.55v6.18h-.55v1.15h-.5v.5h-.6v.6h-.55v.55h-.6v.6h-.5v.5h-.6v.55h-.55v.6h-.6v.55h-1.05v.6h-.6v-.6h-1.15v-1.15h-.5v-.55h.5v-1.1h.6v-.55h.55v-1.1h.6v-.6h.5v-.55h.55v-2.24h-.55v-.6h-.5v-.55h-.6v-1.64h-.55v-1.15h.55v-1.69h1.1v-.55h1.15v-.6Z"/>
    <path d="M897.54,104.74h1.64v.55h1.14v2.84h-.6v.55h-1.15v.5h-11.2v.6h-.55v2.24h-.5v5.03h1.14v.55h7.24v.6h1.14v.55h1.09v.6h.6v.5h1.05v.6h.6v.55h.55v.6h.6v1.1h.5v.55h.6v1.15h.55v1.1h.6v2.24h.55v.55h-.55v1.69h.55v.55h-.55v3.39h-.6v1.1h-.55v1.15h-.6v.55h-.5v1.69h-.6v.55h-.55v.6h-.6v1.1h-.5v.55h-1.15v.6h-.5v.55h-1.15v.5h-1.14v.6h-2.24v.55h-8.37v-.55h-2.24v-.6h-1.15v-.5h-.55v-.55h-.6v-1.74h.6v-.5h2.79v.5h2.24v.6h4.53v-.6h1.64v-.5h1.1v-.6h1.15v-.55h1.1v-.6h.55v-.5h.6v-.6h.55v-1.15h.6v-.55h.5v-1.1h.6v-2.79h.55v-2.84h-.55v-2.24h-.6v-1.05h-.5v-.6h-.59v-1.15h-1.14v-.55h-.54v-.6h-.59v-.5h-1.09v-.6h-6.15v.6h-3.39v-1.15h-.55v-6.72h.55v-7.82h1.1v-.6h13.5v-.55Z"/>
    <path d="M915.34,104.15h5.05v.6h2.25v.55h.6v.6h1.05v.5h.6v.6h.55v.55h.58v.6h.49v.55h.59v.5h.54v1.15h.62v1.7h.52v1.15h.6v2.79h.55v3.39h.55v9.53h-.55v3.39h-.55v1.65h-.6v1.65h-.52v.6h-.62v1.15h-.54v1.1h-.59v.55h-.49v.55h-.58v1.1h-1.15v.55h-.55v.6h-.5v.55h-.6v.5h-2.25v.6h-3.4v-.6h-2.8v-.5h-1.1v-.55h-1.15v-.6h-.5v-.55h-1.1v-.6h-.55v-.5h-.56v-.55h-.56v-1.15h-.56v-1.1h-.61v-1.15h-.56v-1.65h-.5v-1.65h-.6v-3.99h-.55v-7.83h.55v-5.04h.6v-1.7h.5v-1.7h.56v-1.1h.61v-1.15h.56v-.6h.56v-1.05h.56v-.6h.55v-.55h.52v-.6h.57v-.5h.5v-.6h1.75v-.55h1.65v-.6ZM925.44,122.1h.6v-2.25h-.6v-3.29h-.55v-2.25h-.6v-1.75h-.55v-1.15h-.5v-1.1h-.6v-.55h-.55v-.6h-.6v-.5h-1.1v-.55h-1.15v-.6h-2.79v.6h-1.1v.55h-1.15v.5h-.5v.6h-.6v.55h-.55v1.1h-.62v1.15h-.52v1.75h-.57v2.25h-.52v4.44h-.55v7.28h.55v3.39h.52v2.25h.57v1.65h.52v.6h.62v1.15h.55v.5h.6v.6h.5v.55h1.15v.55h3.88v-.55h1.15v-.55h1.1v-.6h.6v-.5h.55v-.6h.6v-.55h.5v-1.7h.55v-1.1h.6v-2.25h.55v-5.09h.6v-.55h-.6v-3.39Z"/>
  </g>
  <g>
    <path d="M589.33,958.12h2.41v.73h1.61v4.17h-1.61v.8h-4.1v.88h-3.29v.8h-1.68v.73h-.88v.88h-1.61v.8h-.8v.88h-.73v.73h-.88v1.68h-.8v.88h-.88v.8h-.8v1.61h-.8v1.68h-.73v1.61h-.88v1.7h-.8v2.44h-.95v2.58h2.62v-.88h.75v-.85h2.55v-.93h1.67v-.78h2.4v-.73h5.68v.73h2.55v.78h.73v.93h1.68v.85h1.61v.85h.8v.71h.88v.85h.73v.8h.88v2.56h.8v.73h.88v3.29h.8v3.29h-.8v1.68h.8v.8h-.8v4.9h-.88v2.49h-.8v1.61h-.88v1.68h-.73v.88h-.88v1.61h-1.68v.8h-1.54v.88h-.88v.8h-.73v.73h-1.68v.88h-3.29v.8h-5.71v-.8h-3.37v-.88h-1.57v-.73h-1.64v-.8h-.95v-.88h-.73v-.8h-.88v-1.61h-.8v-.88h-.88v-1.68h-.73v-1.61h-.83v-1.68h-.9v-3.22h-.83v-4.17h-.8v-10.68h.8v-4.1h.83v-3.29h.9v-2.42h.83v-2.56h.73v-1.61h.88v-1.68h.8v-.8h.88v-1.61h.73v-.88h.95v-.8h.8v-.88h.88v-.73h.73v-.8h.8v-.88h.8v-.8h1.68v-.88h.88v-.73h2.42v-.88h1.61v-.8h1.68v-.88h4.97v-.73ZM571.11,1001.72h.95v2.42h.8v1.68h.88v1.68h.73v.73h.8v.88h.8v.8h.88v.88h.8v.73h2.41v.88h2.49v-.88h2.41v-.73h1.68v-.88h.88v-.8h.8v-.88h.88v-1.61h.73v-.8h.88v-2.49h.8v-11.49h-.8v-.88h-.88v-1.54h-.73v-.88h-.88v-.8h-1.68v-.88h-2.41v-.8h-4.17v.8h-2.41v.88h-1.68v.8h-.8v.88h-.8v.73h-.73v.8h-.88v1.61h-.8v1.68h-.95v7.46Z"/>
    <path d="M631.41,992.14v.88h28.89v1.68h.8v2.42h-.8v.88h-22.29v.8h-4.99v-.8h-3.22v.88h.88v3.17h.75v2.58h.82v.81h.9v1.62h.75v.88h.88v.81h.8v.88h1.68v.74h1.61v.84h1.68v.77h7.39v-.77h1.61v-.84h1.68v-.73h.88v-.88h.73v-1.68h.88v-.73h.8v-3.37h.88v-2.41h.73v-.88h.8v-.73h2.56v.73h1.61v10.68h-.88v.84h-.73v.77h-.88v.88h-1.68v.8h-.8v.73h-1.61v.88h-1.69v.8h-3.3v.88h-3.3v.73h-4.84v-.73h-4.18v-.88h-2.5v-.8h-1.62v-.88h-1.69v-.73h-.73v-.8h-.88v-.88h-.8v-.77h-.87v-.84h-.72v-1.62h-.87v-.81h-.79v-.88h-.87v-2.43h-.79v-1.69h-.95v-2.43h-.7v-2.5h-1.64v-.88h-.8v-.8h-.88v-1.61h.88v-.88h.8v-.8h.8v-5.16h-1.61v-1.6h-.88v-1.67h.88v-.87h.8v-.8h1.64v-1.33h.7v-2.52h.95v-2.52h.79v-1.63h.87v-1.7h.79v-.81h.87v-1.63h.72v-.89h.87l.07-.77h.77v-.84h.84v-.75h.75v-.89h.82v-.82h1.65v-.89h.88v-.75h1.68v-.77h2.41v-.84h9.07v.84h4.17v.77l7.39.07v.73h.73v1.68h.88v1.61h-.88v8.27h.88v1.68h-.88v.8h-.73v.8h-3.37v-.81h-.73v-1.7h-.88v-4.13h-.8v-1.62h-.88v-.81h-.73v-.89h-.88v-.77h-1.68v-.84h-9.8v.84h-1.61v.77h-1.68v.89h-.88v.81h-.8v.82h-.88v1.7h-.75v.82h-.9v1.63h-.82v2.52h-.75v3.33h-.88v.51h13.2v-.8h4.99v.8h12.32v.79h.8v2.53h-.8v1.59h-4.97v.79h-.88v-.8h-3.3v.8h-4.04v-.8h-3.38v.8h-3.3v-.8h-2.42v.8h-8.22v1.1h-.81v2.49h.73v-.07h1.69Z"/>
  </g>
  <g>
    <path d="M160.32,117.4h.6v.6h2.14v.48h1.14v.57h1.15v.55h1.69v-.55h1.15v-.57h2.24v-.48h5.03v.48h1.1v.57h.55v.56h.6v1.12h.5v.56h.6v1.75h.55v10.09h-.55v6.14h.55v.6h1.14v.55h1.64v1.08h.6v.59h-.6v1.12h-8.42v-.55h-.5v-.55h-.6v-.6h.6v-.5h.5v-.6h.6v-1.65h.55v-15.28h-.55v-1.05h-1.1v-1.15h-4.53v.6h-.5v.55h-.6v.6h-.55v16.23h.55v.6h.6v.55h1.64v1.08h.6v.59h-.6v1.12h-7.82v-.55h-.6v-1.64h.6v-.6h.55v-.55h.5v-3.41h.6v-11.22h-.6v-1.75h-.5v-.49h-.55v-1.12h-.6v-.58h-3.88v.6h-.6v.55h-1.15v.57h-.5v.48h-.6v15.78h.6v.6h.5v.55h2.29v.6h.6v.5h.5v.6h-.5v.55h-.6v.55h-7.82v-.55h-1.14v-2.24h.55v-.55h.6v-.6h.55v-16.23h-.55v-.6h-3.39v-1.15h-.6v-1.17h.6v-1.07h1.64v-.57h2.89v-.48h2.24v.48h1.05v.57h.6v-.57h2.24v-.48h2.79v-.6Z"/>
    <path d="M196.15,116.85h3.9v.5h2.8v.62h1.7v.52h1.65v.6h.55v.55h.6v.5h.5v.6h.6v.55h.55v1.15h.6v.6h.55v1.1h.55v1.15h.52v2.79h.62v3.89h-.62v1.74h-.52v2.74h-.55v1.15h-.55v.55h-.6v.6h-.55v.5h-.6v.6h-.5v.55h-1.14v.6h-.6v.5h-.5v.6h-1.15v.55h-1.1v.6h-2.3v.55h-5.55v-.55h-1.75v-.6h-1.65v-.55h-1.1v-.6h-.59v-.5h-1.13v-.6h-.49v-.55h-.54v-.6h-.59v-1.1h-.54v-1.15h-.6v-1.64h-.5v-1.15h-.6v-7.27h.6v-1.64h.5v-1.15h.6v-1.1h.55v-.6h.6v-1.15h.55v-.55h1.1v-.6h.52v-.5h.57v-.55h1.1v-.6h1.15v-.52h1.1v-.62h2.3v-.5ZM206.75,131.94h.6v-2.79h-.6v-2.24h-.55v-1.15h-.6v-.5h-.5v-1.74h-.55v-.5h-.6v-.6h-.5v-.55h-1.15v-.6h-1.15v-.55h-6.75v.55h-1.15v.6h-.5v.55h-.6v.6h-.55v.5h-.6v1.15h-.5v1.69h-.57v2.19h-.52v3.99h.52v2.24h.57v.55h.5v1.1h.6v.55h.55v.6h.6v.55h.5v.6h.6v.5h1.15v.6h1.65v.55h3.4v-.55h1.65v-.6h1.15v-.5h1.1v-.6h.6v-.55h.55v-1.15h.5v-1.1h.6v-1.15h.55v-2.24Z"/>
    <path d="M230.81,118.04h2.24v.5h.6v.6h.5v15.07h.6v3.93h-.6v2.24h.6v1.09h-.6v.6h.6v6.17h-.6v2.79h-.5v1.1h-1.15v.6h-.6v.55h-.5v.5h-1.15v.6h-1.69v.55h-3.94v.6h-1.64v-.6h-3.89v-.55h-2.24v-.6h-1.15v-.5h-.6v-.55h-.5v-.6h-.6v-1.1h.6v-1.15h.5v-.55h.6v-.6h1.64v.6h1.14v.55h1.1v.6h.55v.55h1.14v.6h1.1v.5h3.98v-.5h1.1v-.6h.55v-.55h.55v-.6h1.1v-3.89h.6v-1.15h-.6v-2.79h.6v-1.69h-.6v-17.93h-6.67v-.54h-1.7v-.59h-.55v-.54h-.6v-.59h.6v-1.03h1.15v-.59h8.92v-.5ZM228.02,106.74h3.88v.6h.6v.5h.55v1.15h.6v.6h-.6v1.64h-.55v.55h-.6v.6h-.5v.5h-.6v.6h-1.15v.55h-1.64v-.55h-1.15v-.6h-1.1v-1.64h-.55v-1.15h.55v-1.64h.6v-.6h.5v-.5h1.15v-.6Z"/>
    <path d="M247.06,117.4h2.21v.6h1.16v1.64h.55v1.64h-.55v17.43h.55v.5h1.1v.6h8.92v.55h1.15v2.24h-.55v.6h-1.1v.55h-2.84v-.55h-17.93v.55h-1.05v-.55h-1.14v-1.15h-.6v-.6h.6v-1.1h.55v-.55h5.63v-.6h1.1v-.5h1.14v-16.84h-1.74v-.6h-3.88v.6h-2.24v-.6h-.55v-.55h-.6v-1.64h.6v-.6h4.43v-.5h5.09v-.6ZM247.61,106.19h2.82v.55h1.07v.6h.59v.5h.54v3.39h-.55v.55h-.6v.6h-.5v.5h-.55v.6h-1.16v.55h-1.66v-.55h-1.66v-.6h-.6v-.5h-.55v-3.39h.55v-1.15h.6v-.5h.5v-.6h1.16v-.55Z"/>
    <path d="M270.49,111.62h2.21v.6h.55v1.15h.6v.55h-.6v3.34h.6v.55h2.24v.55h1.1v-.55h8.92v-.55h.6v.55h.55v.56h.6v2.27h-1.14v.56h-3.34v-.55h-.6v.55h-10.06v4.5h-.55v12.94h.55v.52h.55v.56h.6v.52h5.58v-.52h3.94v-.56h1.64v-.52h2.84v.54h1.15v1.67h-.6v.54h-1.15v.59h-1.14v.54h-1.64v.6h-2.84v.5h-5.03v.6h-2.74v-.6h-1.69v-.5h-1.1v-.6h-1.14v-1.15h-.6v-.55h-.48v-1.1h-.57v-12.9h.6v-5.03h-1.14v-.6h-2.84v-.56h-.55v-1.67h.55v-.61h3.39v-.56h.57v-1.09h.48l.05-4.5h1.13v-.59Z"/>
    <path d="M301.86,116.85h3.9v.5h2.8v.62h1.7v.52h1.65v.6h.55v.55h.6v.5h.5v.6h.6v.55h.55v1.15h.6v.6h.55v1.1h.55v1.15h.52v2.79h.62v3.89h-.62v1.74h-.52v2.74h-.55v1.15h-.55v.55h-.6v.6h-.55v.5h-.6v.6h-.5v.55h-1.14v.6h-.6v.5h-.5v.6h-1.15v.55h-1.1v.6h-2.3v.55h-5.55v-.55h-1.75v-.6h-1.65v-.55h-1.1v-.6h-.59v-.5h-1.13v-.6h-.49v-.55h-.54v-.6h-.59v-1.1h-.54v-1.15h-.6v-1.64h-.5v-1.15h-.6v-7.27h.6v-1.64h.5v-1.15h.6v-1.1h.55v-.6h.6v-1.15h.55v-.55h1.1v-.6h.52v-.5h.57v-.55h1.1v-.6h1.15v-.52h1.1v-.62h2.3v-.5ZM312.45,131.94h.6v-2.79h-.6v-2.24h-.55v-1.15h-.6v-.5h-.5v-1.74h-.55v-.5h-.6v-.6h-.5v-.55h-1.15v-.6h-1.15v-.55h-6.75v.55h-1.15v.6h-.5v.55h-.6v.6h-.55v.5h-.6v1.15h-.5v1.69h-.57v2.19h-.52v3.99h.52v2.24h.57v.55h.5v1.1h.6v.55h.55v.6h.6v.55h.5v.6h.6v.5h1.15v.6h1.65v.55h3.4v-.55h1.65v-.6h1.15v-.5h1.1v-.6h.6v-.55h.55v-1.15h.5v-1.1h.6v-1.15h.55v-2.24Z"/>
    <path d="M352.25,116.75h2.79v.5h2.24v.6h4.53v.55h.5v.6h.6v2.19h.55v2.84h-.55v1.64h-1.1v.6h-.6v-.6h-1.69v-1.1h-.6v-1.15h-.5v-1.64h-.55v-.6h-1.7v-.55h-6.21v.55h-1.1v.6h-.55v.5h-.6v1.15h-.5v1.74h.5v1.1h.6v.55h.55v.6h1.65v.5h4v.54h3.35v.59h1.64v.54h1.15v.59h1.14v.49h.5v.59h.6v.54h.55v.65h.6v1.64h.5v3.89h-.5v.6h-.6v.55h-.55v1.2h-.6v.54h-.5v.54h-1.15v.59h-.6v.54h-1.15v.59h-3.3v.5h-5.1v-.5h-3.3v-.6h-.59v.6h-2.75v-.6h-.6v-.55h-.55v-.6h-.6v-2.24h-.5v-1.64h.5v-.6h-.5v-1.05h.5v-1.15h.6v-.6h2.24v.6h.55v.55h.6v1.64h.52v1.1h.57v.6h.5v.55h1.15v.62h1.1v.57h6.2v-.57h1.1v-.62h1.15v-.55h.5v-1.1h.6v-3.39h-.6v-.55h-1.05v-.6h-1.69v-.5h-2.24v-.65h-4.43v-.55h-1.74v-.59h-1.1v-.5h-1.15v-.59h-.55v-.55h-.6v-.59h-.5v-1.04h-.6v-1.14h-.55v-2.83h.55v-1.64h.6v-.59h.5v-.55h.6v-.6h.55v-.5h.6v-.55h.55v-.6h1.1v-.55h1.14v-.6h3.34v-.5Z"/>
    <path d="M376.26,117.2h7.82v.6h1.1v.5h1.15v.55h.6v.6h1.06v.57h.61v.57h.5v.55h.6v1.14h.55v.59h.6v1.09h.55v1.64h.55v4.51h-.55v.5h-1.7v.59h-14.58v.55h-2.85v.6h-.5v1.64h.5v1.15h.6v1.1h.55v.55h.6v.6h.5v.55h1.15v.6h1.14v.5h2.24v.65h4.48v-.65h3.39v-.5h1.64v-.6h1.64v-.55h2.24v.56h.6v1.73h-.6v.53h-.5v.58h-1.15v.48h-1.15v.6h-2.24v.55h-2.24v.6h-2.79v.55h-5.58v-.55h-2.29v-.6h-1.64v-.55h-1.1v-.6h-.6v-.48h-.55v-.58h-1.1v-.53h-.55v-1.1h-.6v-.6h-.55v-1.15h-.6v-2.79h-.5v-5.03h.5v-2.79h.6v-1.1h.55v-1.15h.6v-1.1h.55v-.6h.6v-.55h.5v-1.15h.55v-.57h.6v-.57h1.1v-.6h1.15v-.55h1.1v-.5h1.15v-.6ZM386.92,126.21h.5v-.6h-.5v-1.1h-.6v-.55h-.55v-.6h-.6v-1.1h-1.1v-.55h-.55v-.6h-1.74v-.55h-4.38v.55h-1.14v.6h-.6v.55h-.55v.6h-.6v.5h-.5v.6h-.6v.55h-.55v1.1h-.6v2.79h9.02v-.5h5.03v-.6h.6v-1.1Z"/>
    <path d="M409.29,117.4h.6v.6h2.14v.48h1.14v.57h1.15v.55h1.69v-.55h1.15v-.57h2.24v-.48h5.03v.48h1.1v.57h.55v.56h.6v1.12h.5v.56h.6v1.75h.55v10.09h-.55v6.14h.55v.6h1.14v.55h1.64v1.08h.6v.59h-.6v1.12h-8.42v-.55h-.5v-.55h-.6v-.6h.6v-.5h.5v-.6h.6v-1.65h.55v-15.28h-.55v-1.05h-1.1v-1.15h-4.53v.6h-.5v.55h-.6v.6h-.55v16.23h.55v.6h.6v.55h1.64v1.08h.6v.59h-.6v1.12h-7.82v-.55h-.6v-1.64h.6v-.6h.55v-.55h.5v-3.41h.6v-11.22h-.6v-1.75h-.5v-.49h-.55v-1.12h-.6v-.58h-3.88v.6h-.6v.55h-1.15v.57h-.5v.48h-.6v15.78h.6v.6h.5v.55h2.29v.6h.6v.5h.5v.6h-.5v.55h-.6v.55h-7.82v-.55h-1.14v-2.24h.55v-.55h.6v-.6h.55v-16.23h-.55v-.6h-3.39v-1.15h-.6v-1.17h.6v-1.07h1.64v-.57h2.89v-.48h2.24v.48h1.05v.57h.6v-.57h2.24v-.48h2.79v-.6Z"/>
    <path d="M467.02,117.2h7.82v.6h1.1v.5h1.14v.55h.6v.6h.55v.55h.6v1.1h.5v6.18h-.5v11.76h2.14v-.5h1.74v.5h.5v.6h.6v1.64h-.6v.6h-2.24v.55h-1.64v.6h-3.88v-.6h-.6v-.55h-1.15v-.6h-1.1v.6h-1.64v.55h-2.29v.6h-7.77v-.6h-1.14v-.55h-1.1v-.6h-1.15v-.5h-.6v-1.15h-.5v-1.1h-.6v-3.94h.6v-1.1h.5v-1.15h.6v-.6h.55v-.55h1.1v-.6h1.14v-.5h1.1v-.6h1.69v-.55h2.24v-.55h3.34v-.5h.6v.5h2.79v-.5h1.64v-.6h.6v-.55h.55v-4.51h-.55v-.55h-.6v-.6h-.5v-.55h-1.15v-.55h-4.48v.55h-1.15v.55h-1.1v.6h-.55v.55h-.6v1.69h-.5v.55h-.6v.6h-2.79v-.6h-.55v-.55h-.6v-2.84h.6v-1.1h1.14v-.55h1.1v-.6h1.1v-.55h1.1v-.5h2.84v-.6ZM473.7,136.23h.6v-4.48h-.6v-.55h-7.77v.55h-1.74v.6h-1.1v.55h-1.1v.6h-.6v.5h-.5v1.15h-.6v2.24h.6v1.15h1.1v.5h1.1v.6h3.34v.55h.6v-.55h2.79v-.6h1.14v-.5h1.1v-.6h1.15v-.55h.5v-1.15ZM468.76,111.47l2.74-1.59.25.4,3.79-2.24-.2-.4,2.14-1.25.2.4.3-.2.2.35.3-.15,1.05,1.89-.25.15.45.75-1.1.65.25.4-8.42,4.93-.2-.4-.3.15-.2-.35-.3.15-1.29-2.24.25-.15-.2-.35.8-.5-.25-.4Z"/>
    <path d="M495.56,105.09h3.29v.5h.6v4.48h.5v.6h-.5v12.85h-.6v6.18h.6v3.98h-.6v4.43h.6v1.1h1.1v.6h7.27v.55h1.15v.6h.55v.5h.6v.6h-.6v1.15h-1.69v.55h-2.84v-.55h-9.42v.55h-2.29v-.55h-6.13v-2.24h.55v-.6h.5v-.55h5.63v-.6h.6v-.5h.55v-3.39h-.55v-1.64h.55v-23.61h-.55v-.5h-3.99v.5h-3.88v-.5h-.55v-2.24h.55v-.6h2.24v-.55h3.88v-.6h2.89v-.5Z"/>
    <path d="M522.96,117.2h7.27v.6h1.64v.51h1.1v.56h.6v.61h.55v.56h.5v.56h.6v1.14h.55v2.77h.6v1.09h-.6v1.14h-.55v.54h-2.74v-.54h-1.14v-1.14h-.6v-3.31h-.5v-.54h-.6v-.59h-1.69v-.54h-4.48v.54h-1.1v.59h-1.15v.54h-.55v.59h-.6v.49h-.5v.59h-.6v.54h-.55v1.09h-.6v1.68h-.5v6.23h.5v1.64h.6v.5h.55v1.15h.6v.6h.5v.55h1.14v.6h1.15v.5h2.84v.65h3.29v-.65h3.39v-.5h1.1v-.6h1.64v-.55h2.89v.56h.5v1.73h-.5v.53h-.6v.58h-1.15v.48h-1.64v.6h-1.15v.55h-2.74v.6h-1.74v.55h-6.68v-.55h-2.24v-.6h-1.74v-.55h-.5v-.6h-.55v-.48h-.6v-.58h-.5v-.53h-.6v-.65h-.55v-1.09h-.6v-1.14h-.55v-1.64h-.6v-1.64h-.5v-3.97h.5v-3.33h.6v-1.09h.55v-1.14h.6v-1.09h.55v-.6h.6v-.55h.5v-.6h.6v-.55h.55v-.56h.5v-.56h1.14v-.61h.6v-.56h1.64v-.51h1.74v-.6Z"/>
    <path d="M551.42,116.85h3.9v.5h2.8v.62h1.7v.52h1.65v.6h.55v.55h.6v.5h.5v.6h.6v.55h.55v1.15h.6v.6h.55v1.1h.55v1.15h.52v2.79h.62v3.89h-.62v1.74h-.52v2.74h-.55v1.15h-.55v.55h-.6v.6h-.55v.5h-.6v.6h-.5v.55h-1.14v.6h-.6v.5h-.5v.6h-1.15v.55h-1.1v.6h-2.3v.55h-5.55v-.55h-1.75v-.6h-1.65v-.55h-1.1v-.6h-.59v-.5h-1.13v-.6h-.49v-.55h-.54v-.6h-.59v-1.1h-.54v-1.15h-.6v-1.64h-.5v-1.15h-.6v-7.27h.6v-1.64h.5v-1.15h.6v-1.1h.55v-.6h.6v-1.15h.55v-.55h1.1v-.6h.52v-.5h.57v-.55h1.1v-.6h1.15v-.52h1.1v-.62h2.3v-.5ZM562.01,131.94h.6v-2.79h-.6v-2.24h-.55v-1.15h-.6v-.5h-.5v-1.74h-.55v-.5h-.6v-.6h-.5v-.55h-1.15v-.6h-1.15v-.55h-6.75v.55h-1.15v.6h-.5v.55h-.6v.6h-.55v.5h-.6v1.15h-.5v1.69h-.57v2.19h-.52v3.99h.52v2.24h.57v.55h.5v1.1h.6v.55h.55v.6h.6v.55h.5v.6h.6v.5h1.15v.6h1.65v.55h3.4v-.55h1.65v-.6h1.15v-.5h1.1v-.6h.6v-.55h.55v-1.15h.5v-1.1h.6v-1.15h.55v-2.24Z"/>
    <path d="M580.51,116.85h3.9v.5h2.8v.62h1.7v.52h1.65v.6h.55v.55h.6v.5h.5v.6h.6v.55h.55v1.15h.6v.6h.55v1.1h.55v1.15h.52v2.79h.62v3.89h-.62v1.74h-.52v2.74h-.55v1.15h-.55v.55h-.6v.6h-.55v.5h-.6v.6h-.5v.55h-1.15v.6h-.6v.5h-.5v.6h-1.15v.55h-1.1v.6h-2.3v.55h-5.55v-.55h-1.75v-.6h-1.65v-.55h-1.1v-.6h-.59v-.5h-1.13v-.6h-.49v-.55h-.54v-.6h-.59v-1.1h-.54v-1.15h-.6v-1.64h-.5v-1.15h-.6v-7.27h.6v-1.64h.5v-1.15h.6v-1.1h.55v-.6h.6v-1.15h.55v-.55h1.1v-.6h.52v-.5h.57v-.55h1.1v-.6h1.15v-.52h1.1v-.62h2.3v-.5ZM591.11,131.94h.6v-2.79h-.6v-2.24h-.55v-1.15h-.6v-.5h-.5v-1.74h-.55v-.5h-.6v-.6h-.5v-.55h-1.15v-.6h-1.15v-.55h-6.75v.55h-1.15v.6h-.5v.55h-.6v.6h-.55v.5h-.6v1.15h-.5v1.69h-.57v2.19h-.52v3.99h.52v2.24h.57v.55h.5v1.1h.6v.55h.55v.6h.6v.55h.5v.6h.6v.5h1.15v.6h1.65v.55h3.4v-.55h1.65v-.6h1.15v-.5h1.1v-.6h.6v-.55h.55v-1.15h.5v-1.1h.6v-1.15h.55v-2.24Z"/>
    <path d="M607.94,105.09h3.29v.5h.6v4.48h.5v.6h-.5v12.85h-.6v6.18h.6v3.98h-.6v4.43h.6v1.1h1.1v.6h7.27v.55h1.15v.6h.55v.5h.6v.6h-.6v1.15h-1.69v.55h-2.84v-.55h-9.42v.55h-2.29v-.55h-6.13v-2.24h.55v-.6h.5v-.55h5.63v-.6h.6v-.5h.55v-3.39h-.55v-1.64h.55v-23.61h-.55v-.5h-3.99v.5h-3.88v-.5h-.55v-2.24h.55v-.6h2.24v-.55h3.88v-.6h2.89v-.5Z"/>
  </g>
  <g>
    <path class="cls-2" d="M170.98,1177.24c0-8.02.38-20.31,1.22-36.8h-10.61c-16.56-1.98-24.81-4.66-24.81-8.09v-4.58c1.3-3.05,4.05-4.58,8.25-4.58h23.59c4.2,0,7.71-.38,10.69-1.14,4.12.76,8.02,1.14,11.76,1.14h21.3c8.63,0,12.98,3.44,12.98,10.31-2.75,5.42-5.88,8.09-9.47,8.09-8.02-.76-14.35-1.15-18.86-1.15h-8.32v10.31c0,7.94.38,14.05,1.22,18.4-.84,4.81-1.22,10.23-1.22,16.11,0,1.91.38,7.63,1.22,17.33-2.75,5.34-5.88,8.02-9.46,8.02-5.04,0-8.17-3.44-9.47-10.38v-22.98Z"/>
    <path class="cls-2" d="M258.46,1195.64c0,2.37,2.6,3.97,7.79,4.66,6.34,0,16.72-3.13,31.22-9.31h1.6c1.45,0,3.05,1.53,4.66,4.66v1.53c-2.9,12.52-14.35,18.78-34.35,18.78h-4.73c-18.7-4.28-28.09-14.66-28.09-31.22v-9.39c3.44-18.78,11.22-28.17,23.44-28.17h3.13c20.84,1.76,31.22,8.55,31.22,20.38-10.69,17.63-22.67,26.49-35.88,26.49v1.6ZM252.2,1181.59v1.53c17.71-4.5,26.57-9.7,26.57-15.57-8.24-3.13-13.44-4.73-15.65-4.73-7.25,2.52-10.92,8.78-10.92,18.78Z"/>
    <path class="cls-2" d="M340.53,1214.34c-5.27,0-10.61-21.68-15.96-65.12,1.45-3.89,2.9-5.8,4.35-5.8h2.9c4.43,0,7.79,9.16,10.15,27.48h1.45c5.88-14.43,15.57-21.68,28.93-21.68,3.89,1.45,5.8,2.82,5.8,4.27v5.8c0,2.37-5.34,5.27-15.96,8.7-5.8,6.41-10.15,20.92-13.05,43.44l-4.28,2.9h-4.35Z"/>
    <path class="cls-2" d="M411.98,1214.34c-5.27,0-10.61-21.68-15.96-65.12,1.45-3.89,2.9-5.8,4.35-5.8h2.9c4.43,0,7.79,9.16,10.15,27.48h1.45c5.88-14.43,15.57-21.68,28.93-21.68,3.89,1.45,5.8,2.82,5.8,4.27v5.8c0,2.37-5.34,5.27-15.96,8.7-5.8,6.41-10.15,20.92-13.05,43.44l-4.28,2.9h-4.35Z"/>
    <path class="cls-2" d="M487.78,1195.64c0,2.37,2.6,3.97,7.79,4.66,6.34,0,16.72-3.13,31.22-9.31h1.6c1.45,0,3.05,1.53,4.66,4.66v1.53c-2.9,12.52-14.35,18.78-34.35,18.78h-4.73c-18.7-4.28-28.09-14.66-28.09-31.22v-9.39c3.44-18.78,11.22-28.17,23.44-28.17h3.13c20.84,1.76,31.22,8.55,31.22,20.38-10.69,17.63-22.67,26.49-35.88,26.49v1.6ZM481.52,1181.59v1.53c17.71-4.5,26.57-9.7,26.57-15.57-8.24-3.13-13.44-4.73-15.65-4.73-7.25,2.52-10.92,8.78-10.92,18.78Z"/>
    <path class="cls-2" d="M567.1,1209.22c-2.82,0-4.73-2.98-5.8-8.86-2.67-15.19-3.97-29.85-3.97-43.97,1.45-.99,2.6-1.53,3.36-1.53h3.66c1.14,0,3.66,2.37,7.63,7.02,6.79-7.33,14.81-10.99,24.12-10.99h8.24c2.9,0,6.87,2.37,11.91,7.02h.31c6.95-7.33,14.43-10.99,22.6-10.99h4.89c15.8,0,26.79,9.77,32.98,29.31,2.67,9.85,3.97,17.18,3.97,21.99-4.35,3.66-6.95,5.5-7.94,5.5h-1.22c-5.42,0-9.31-9.69-11.6-29.01-5.5-8.55-11.83-12.83-18.93-12.83-8.24,0-14.58,5.8-18.93,17.41.84,3.36,1.22,6.11,1.22,8.25v7.94c0,4.05-1.76,6.79-5.19,8.24h-6.11c-4.28,0-6.41-10.69-6.41-32.06-2.52-4.5-5.12-6.72-7.63-6.72h-.3c-3.13,0-8.02,2.37-14.66,7.02-4.5,4.43-6.72,9.62-6.72,15.57v16.49c-.84,3.44-2.44,5.19-4.89,5.19h-4.58Z"/>
    <path class="cls-2" d="M730.24,1146.4l4.2,2.75c.23-1.83,1.14-2.75,2.75-2.75h6.87c16.49,4.58,24.73,12.83,24.73,24.73v12.44c0,16.26-10.53,26.34-31.6,30.23-24.81-5.73-37.18-16.72-37.18-32.98v-8.32c0-13.44,9.16-22.14,27.48-26.11h2.75ZM715.12,1175.25v1.37c0,10.69,6.87,17.56,20.69,20.69h2.75c9.01,0,14.05-6.87,15.12-20.69,0-10.99-7.79-16.49-23.44-16.49-10.08,3.13-15.12,8.17-15.12,15.12Z"/>
    <path class="cls-2" d="M786.95,1154.79c0-3.59,6.18-5.65,18.63-6.18v-16.11c0-1.22,1.22-2.44,3.66-3.74h2.52c5.8,3.28,8.7,9.92,8.7,19.85h14.88c8.25,0,12.37,3.28,12.37,9.92,0,4.27-2.9,7.18-8.7,8.7-8.47-1.68-14.2-2.52-17.33-2.52v1.22c3.28,24.66,4.96,39.09,4.96,43.44,0,2.21-2.9,3.82-8.7,4.96-5.96,0-10.08-16.57-12.37-49.62h-2.52c-9.47,0-14.81-2.06-16.11-6.18v-3.74Z"/>
    <path class="cls-2" d="M898.26,1146.4l4.2,2.75c.23-1.83,1.14-2.75,2.75-2.75h6.87c16.49,4.58,24.73,12.83,24.73,24.73v12.44c0,16.26-10.53,26.34-31.6,30.23-24.81-5.73-37.18-16.72-37.18-32.98v-8.32c0-13.44,9.16-22.14,27.48-26.11h2.75ZM883.14,1175.25v1.37c0,10.69,6.87,17.56,20.69,20.69h2.75c9.01,0,14.05-6.87,15.12-20.69,0-10.99-7.79-16.49-23.44-16.49-10.08,3.13-15.12,8.17-15.12,15.12Z"/>
  </g>
  <g>
    <path class="cls-2" d="M257.52,1256.23l5.23.76-.76-3.74v-5.27c0-.73.76-1.45,2.25-2.25h1.53c3.48,0,5.46,13.26,6,39.77,0,3.48-3.02,5.24-9.02,5.24-.31,1.49-2.29,2.25-6,2.25h-.76c-9.97,0-16.47-5.23-19.49-15.74v-3.75c0-9.32,6-15.09,18-17.27h3.02ZM245.14,1273.2v2.41c0,5.46,4.17,8.63,12.49,9.51,3.13-1.3,5.35-2.64,6.69-3.97,0-10.2-2.22-16.01-6.69-17.46-8.33,1.3-12.49,4.47-12.49,9.51Z"/>
    <path class="cls-2" d="M289.35,1292.38c-2.64,0-5.31-10.85-7.98-32.59.72-1.95,1.45-2.9,2.18-2.9h1.45c2.22,0,3.9,4.58,5.08,13.75h.73c2.94-7.22,7.79-10.85,14.48-10.85,1.95.73,2.9,1.41,2.9,2.14v2.9c0,1.18-2.68,2.64-7.99,4.36-2.9,3.21-5.08,10.47-6.53,21.74l-2.14,1.45h-2.18Z"/>
    <path class="cls-2" d="M316.6,1247.71c.54-1.41,2.14-2.14,4.81-2.14h.8c2.14.76,3.21,2.45,3.21,5.04,0,.69-.8,1.41-2.41,2.14h-4.01c-.77,0-1.57-.73-2.41-2.14v-2.9ZM319.81,1259.17h1.6c4.28,0,6.42,8.86,6.42,26.63v1.22c0,.61-1.07,1.41-3.21,2.41-2.87,0-4.74-.8-5.62-2.41-1.07-13.37-1.61-22.28-1.61-26.67l2.41-1.18Z"/>
    <path class="cls-2" d="M358.14,1266.89c-4.24,0-6.88,3.36-7.87,10.12,0,9.51-2.03,14.29-6.11,14.29-3.25,0-5.58-8.14-6.99-24.42l1.76-.84h1.76l2.6,1.68c3.48-6.15,9.63-9.25,18.38-9.25,7.91,0,14.6,6.46,20.1,19.37v4.2c0,6.72-2.33,10.09-6.99,10.09-2.33-1.15-3.52-2.56-3.52-4.2,0-1.18.3-4.28.88-9.25,0-5.85-4.36-9.78-13.11-11.81h-.88Z"/>
    <path class="cls-2" d="M398.91,1264.45h.76l18.3-8.9c2.03.57,3.06,1.18,3.06,1.76v1.8c0,.84-3.29,3.4-9.9,7.72v.61c6.65,8.48,10.47,14.63,11.42,18.46v.57c0,.57-.76,1.18-2.29,1.8h-2.29c-1.53,0-5.58-6.15-12.19-18.46h-1.53c-3.55,1.64-5.35,2.87-5.35,3.59,0,1.22.27,4.97.76,11.27-.34,3.17-2.37,4.78-6.07,4.78-2.03-1.34-3.06-4.89-3.06-10.7,1.03-18.72,1.53-30.41,1.53-35.11l2.29-1.18h.76c2.03,0,3.29,3.55,3.78,10.7v11.31Z"/>
    <path class="cls-2" d="M477.21,1284.16h1.49c.69,0,1.41.69,2.21,2.03v2.71c0,1.34-2.21,2.48-6.65,3.36h-5.88c-8.67,0-14.06-6.53-16.24-19.6,2.48-9.9,6.88-14.82,13.26-14.82h8.14c.65,0,1.87,1.11,3.67,3.36v.69c0,1.64-4.16,2.98-12.53,4.05-2.45,3.4-3.67,5.88-3.67,7.41,1.57,7.68,4.78,11.5,9.55,11.5,2.67-.46,4.89-.69,6.65-.69Z"/>
    <path class="cls-2" d="M506.25,1258.37l2.1,1.38c.12-.92.57-1.38,1.38-1.38h3.44c8.25,2.29,12.38,6.42,12.38,12.38v6.23c0,8.14-5.27,13.18-15.82,15.13-12.42-2.87-18.61-8.37-18.61-16.51v-4.17c0-6.72,4.59-11.08,13.76-13.07h1.38ZM498.69,1272.81v.69c0,5.35,3.44,8.79,10.35,10.35h1.38c4.51,0,7.03-3.44,7.57-10.35,0-5.5-3.9-8.25-11.73-8.25-5.04,1.57-7.56,4.09-7.56,7.57Z"/>
    <path class="cls-2" d="M541.79,1289.82c-1.41,0-2.37-1.49-2.9-4.43-1.34-7.6-1.99-14.94-1.99-22.01.73-.5,1.3-.76,1.68-.76h1.83c.57,0,1.83,1.18,3.82,3.51,3.4-3.67,7.41-5.5,12.07-5.5h4.13c1.45,0,3.44,1.18,5.96,3.52h.15c3.48-3.67,7.22-5.5,11.31-5.5h2.45c7.91,0,13.41,4.89,16.51,14.67,1.34,4.93,1.99,8.6,1.99,11-2.18,1.83-3.48,2.75-3.97,2.75h-.61c-2.71,0-4.66-4.85-5.81-14.52-2.75-4.28-5.92-6.42-9.48-6.42-4.13,0-7.3,2.9-9.47,8.71.42,1.68.61,3.06.61,4.13v3.97c0,2.03-.88,3.4-2.6,4.13h-3.06c-2.14,0-3.21-5.35-3.21-16.05-1.26-2.25-2.56-3.36-3.82-3.36h-.15c-1.57,0-4.01,1.18-7.34,3.52-2.25,2.22-3.36,4.81-3.36,7.79v8.25c-.42,1.72-1.22,2.6-2.45,2.6h-2.29Z"/>
    <path class="cls-2" d="M665.37,1281.14v6.23c0,5.54-.92,8.29-2.75,8.29h-.69c-1.26,0-2.22-2.29-2.79-6.92v-2.06h-.69c-3.86,3.71-7.3,5.54-10.35,5.54h-2.79c-12.42,0-18.65-6.46-18.65-19.37,0-10.28,6.92-16.28,20.75-17.96,11.96,0,17.96,8.75,17.96,26.25ZM645.69,1284.66c7.34-2.9,11-6.76,11-11.62,0-6.23-2.37-9.67-7.15-10.35h-3.21c-7.76,1.41-11.65,4.43-11.65,9.06,0,8.21,3.67,12.3,11,12.3v.61ZM639.81,1251.49c.69-2.22,4.09-5.35,10.16-9.4,1.95-1.18,3.32-1.76,4.12-1.76,2.33.19,3.52,1.26,3.52,3.13,0,2.48-2.22,4.43-6.65,5.88-4.7,1.8-7.79,2.71-9.21,2.71-1.3-.08-1.95-.27-1.95-.57Z"/>
    <path class="cls-2" d="M677.18,1245.11h2.14c3.67,2.52,7.03,16.24,10.09,41.11-.96,2.14-1.91,3.21-2.87,3.21h-3.59c-3.09,0-5.23-10.7-6.49-32.06-.5,0-.96-3.74-1.45-11.19l2.18-1.07Z"/>
    <path class="cls-2" d="M725.98,1284.16h1.49c.69,0,1.41.69,2.22,2.03v2.71c0,1.34-2.22,2.48-6.65,3.36h-5.88c-8.67,0-14.06-6.53-16.24-19.6,2.48-9.9,6.88-14.82,13.26-14.82h8.14c.65,0,1.87,1.11,3.67,3.36v.69c0,1.64-4.16,2.98-12.53,4.05-2.45,3.4-3.67,5.88-3.67,7.41,1.57,7.68,4.78,11.5,9.55,11.5,2.67-.46,4.89-.69,6.65-.69Z"/>
    <path class="cls-2" d="M755.02,1258.37l2.1,1.38c.12-.92.57-1.38,1.38-1.38h3.44c8.25,2.29,12.38,6.42,12.38,12.38v6.23c0,8.14-5.27,13.18-15.82,15.13-12.42-2.87-18.61-8.37-18.61-16.51v-4.17c0-6.72,4.59-11.08,13.76-13.07h1.38ZM747.46,1272.81v.69c0,5.35,3.44,8.79,10.35,10.35h1.38c4.51,0,7.03-3.44,7.57-10.35,0-5.5-3.9-8.25-11.73-8.25-5.04,1.57-7.56,4.09-7.56,7.57Z"/>
    <path class="cls-2" d="M798.81,1258.37l2.1,1.38c.12-.92.57-1.38,1.38-1.38h3.44c8.25,2.29,12.38,6.42,12.38,12.38v6.23c0,8.14-5.27,13.18-15.82,15.13-12.42-2.87-18.61-8.37-18.61-16.51v-4.17c0-6.72,4.58-11.08,13.75-13.07h1.38ZM791.25,1272.81v.69c0,5.35,3.44,8.79,10.36,10.35h1.38c4.51,0,7.03-3.44,7.56-10.35,0-5.5-3.9-8.25-11.73-8.25-5.04,1.57-7.56,4.09-7.56,7.57Z"/>
    <path class="cls-2" d="M829.65,1245.11h2.14c3.67,2.52,7.03,16.24,10.09,41.11-.96,2.14-1.91,3.21-2.87,3.21h-3.59c-3.1,0-5.23-10.7-6.5-32.06-.5,0-.96-3.74-1.45-11.19l2.18-1.07Z"/>
  </g>
  <path class="cls-2" d="M603.01,1348.91c.54-.94,1.14-1.84,1.59-2.8,1.42-3.07,3.96-5.04,6.62-6.91,1.71-.18,3.09-1.45,4.94-1.35,1.54.08,3.09-.16,4.64-.31,1.6-.16,4.62,1.34,5.6,3.28,1.38,2.74,1.47,5.56,1.18,8.53-.32,3.21-1.17,6.29-2.27,9.27-.88,2.36-2.22,4.56-3.47,6.77-2.17,3.81-4.69,7.41-7.5,10.79-2.03,2.44-4.14,4.83-6.89,6.54-.89.55-1.66,1.32-2.43,2.05-1.14,1.09-2.45,1.5-3.83.71-1.68-.96-3.47-1.89-4.8-3.24-2.38-2.39-5.03-4.43-7.68-6.48-3.54-2.75-7.16-5.39-10.66-8.19-2.42-1.93-4.48-4.21-5.8-7.07-.64-1.4-.55-2.87-.13-4.28,1.11-3.74,2.42-7.45,4.45-10.77,1.41-2.31,3.43-4,6.43-4.4,3.88-.51,7.39.47,10.81,1.99,3.18,1.4,6.12,3.22,8.7,5.58.11.1.27.16.51.3ZM603.74,1378.6c.98-.82,1.86-1.73,2.9-2.38,2.2-1.38,3.8-3.36,5.37-5.31,2.64-3.27,5.03-6.75,7.59-10.08,1.35-1.76,2.23-3.72,2.65-5.86.42-2.14.68-4.29.1-6.5-.69-2.64-4.52-4.4-6.76-2.85-2.48,1.71-4.85,3.59-7.19,5.48-2.67,2.16-4.41,5.01-5.79,8.11-.13.29-.3.58-.49.84-.39.52-1.22.68-1.89.39-.58-.26-.83-.73-.66-1.32.22-.74.08-1.35-.37-1.95-.15-.2-.21-.51-.2-.77.05-1.25-.74-2-1.59-2.68-2.43-1.93-5.05-3.54-7.96-4.63-2.86-1.07-5.81-1.72-8.83-.62-.84.31-1.82.6-2.4,1.21-1.6,1.69-2.38,4.06-1.03,6.41.83,1.44,1.72,2.86,3.09,3.92,2.09,1.62,4.11,3.33,6.19,4.97,2.17,1.7,4.41,3.31,6.55,5.04,2.14,1.73,4.22,3.54,6.27,5.37,1.33,1.18,2.54,2.5,4.46,3.23Z"/>
  <path class="cls-2" d="M223.74,576.12c-2.69-6.4-5.15-11.86-7.28-17.44-2-5.25-4.01-10.55-5.37-15.99-1.8-7.21-4.47-13.98-7.86-20.57-1.48-2.86-2.18-6.12-3.3-9.38-11,2.82-17.14,10.46-21.37,19.58-3.45,7.43-2.04,15.62-2.34,24.39-.26.1-1.57.6-2.78,1.06-9.51-12.66,1.2-48.33,20.92-58.07-4.46-27.94-16.82-53.19-26.97-79.41-4.97,2.76-5.75,7.33-7.59,11.23-1.91,4.04-3.49,8.27-5.82,12.05-1.78,2.88-4.27,5.45-6.86,7.67-3.51,3-5.61,6.74-7.37,10.85-.78,1.82-1.95,3.56-4.31,3.29-2.28-.27-3.79-1.59-4.73-3.8-5.34-12.59-2.41-25.99,7.3-35.74,2.92-2.93,4.78-6.94,7.02-10.52.6-.96.71-2.23,1.29-3.21,3.84-6.65,7.67-13.3,11.68-19.84.88-1.43,2.3-2.67,3.73-3.6,3.62-2.34,7.2-1.37,9.34,2.35.48.84.83,1.76,1.18,2.66,3.25,8.32,6.42,16.67,9.74,24.97,3.32,8.29,7.31,16.35,10.05,24.81,4.48,13.84,8.17,27.94,12.24,41.91.81,2.78,1.82,5.5,2.81,8.47,7.9-2.33,15.28-4.59,21.31-10.37,6.72-6.44,15.52-9.47,24.19-12.3,5.18-1.69,8.89-4.25,10.58-9.69.97-3.12,2.72-6.03,4.32-8.92,3.92-7.08,5.26-14.97,7.23-22.65,2.63-10.28,7.41-19.14,16.26-25.46,5.04-3.6,10.66-5.92,16.74-5.89,9.1.05,15.41,5.52,19.11,13.15,2.29,4.71,2.58,10.42,3.64,15.7.53,2.65.58,5.4,1.22,8.01.92,3.75,2.3,4.91,5.78,3.65,4.13-1.51,8.48-3.38,11.7-6.25,6.2-5.52,12.59-11.05,16.78-18.44,3.64-6.42,6.77-13.16,10.75-19.35,7.24-11.27,14.6-22.56,24.59-31.67,10.18-9.28,21.61-16.77,35.44-19.07,6.99-1.16,14.36-1.35,21.41-.57,9.4,1.04,13.44,6,15.64,15.4,2.49,10.66,1.84,21.49,2.45,32.26.65,11.55-1.95,22.6-4.46,33.76-2.54,11.31-5.91,22.53-5.67,34.35.11,5.73,1.82,10.14,7.19,12.9,6.59,3.38,9.89,9.73,13.18,15.87,1.82,3.39,3.09,7.13,4.19,10.83,1,3.37,2.89,5.77,5.69,7.8,3.71,2.7,7.21,5.68,11.78,9.33,2.72.2,6.82.68,7.43,6.12.02.18.12.4.26.51,6.55,5.1,7.19,12.94,9.46,20.07,1.48,4.66,1.69,4.59,5.75,7.23-.66,2.6-1.2,5.43-2.09,8.15-6.99,21.5-10.99,43.65-13.56,66.02-1.74,15.2-2.37,30.53-3.58,45.8-1.01,12.75-1.84,25.5-4.17,38.14-1.41,7.61-1.75,15.41-2.63,23.12-1.86,16.38-3.79,32.76-5.62,49.14-1.31,11.76-2.4,23.54-3.78,35.28-2.13,18.1-4.47,36.18-6.62,54.28-1.83,15.42-3.59,30.84-5.27,46.28-1.45,13.31-2.85,26.62-4.09,39.94-.67,7.15-.8,14.35-1.47,21.5-1.01,10.81-2.29,21.6-3.45,32.4-.12,1.14-.18,2.29-.27,3.52,1.66.82,3.18,1.58,4.53,2.24,1.7,7.13-1.87,10.74-7.57,13.81-5.43,2.93-10.52,6.62-15.31,10.53-5.94,4.85-13.04,6.85-20.01,9.18-6.42,2.15-12.96,4.03-19.53,5.66-13.95,3.44-27.88,7-41.96,9.81-11.03,2.21-22.23,3.76-33.43,4.89-9.62.98-19.32,1.26-28.99-.65-3.94-.77-8.13-.21-12.19-.42-6.21-.32-12.5-.27-18.59-1.33-7.03-1.23-14.14-2.82-20.75-5.44-14.4-5.7-28.21-12.72-40.82-21.82-2.94-2.12-5.86-4.55-8.03-7.41-4.6-6.07-3.71-9.64,3.11-14.01-1.61-7.13-3.23-14.46-4.93-21.77-2.5-10.75-5.38-21.43-7.53-32.25-2.72-13.7-4.67-27.55-7.32-41.27-3.6-18.64-7.7-37.19-11.28-55.84-2.66-13.89-4.61-27.92-7.27-41.81-2.26-11.8-4.96-23.52-7.69-35.22-3.4-14.53-7.35-28.94-10.45-43.53-2.21-10.42-3.3-21.07-5.1-31.58-2.09-12.21-4.77-24.34-6.53-36.59-1.43-9.94-1.86-20.03-2.79-30.04-.57-6.1-1.24-12.19-1.87-18.29-.18-1.73-.51-3.46-.5-5.19.04-4.13-.06-8.11-3.14-11.45-1.73-1.87-1.6-4.23-.63-6.57,1.72-4.13,1.35-8.26.12-12.47-1.03-3.54-1.69-7.18-2.49-10.79-.17-.76-.12-1.58-.38-2.3-1.62-4.46,2.18-8.34,1.55-12.42-.67-4.29-1.47-8.31.22-12.53,2.81-6.99,4.19-14.7,9.89-20.22,3.05-2.94,6.26-5.77,9.69-8.24,2.93-2.11,5.95-1.87,7.45-.11,1.92,2.25,1.75,5.61-.68,8.18-4.13,4.36-8.52,8.48-12.57,12.91-4.33,4.73-3.41,8.81,2.68,11.12,4.33,1.64,8.92,2.66,13.43,3.78,14.31,3.53,28.36,8.19,43.09,9.9,4.22.49,8.43,1.16,13.84,1.92ZM496.43,719.18c-3.26,2.49-6.39,3.61-10.09,2.93-1.19-.22-2.6.45-3.84.89-7.28,2.64-14.43,5.72-21.85,7.91-8.16,2.4-16.71,3.51-24.8,6.09-8.59,2.74-17.15,2.72-25.94,2.31-4.97-.23-10.19.02-14.96,1.29-6.91,1.84-11.2,7.11-14.45,13.43-3.01,5.84-6.42,11.4-11.16,16.23-7.44,7.58-13.47,3.72-17.76-1.52-1.8-2.2-2.85-5.7-2.82-8.59.09-9.27.87-18.53,1.29-27.8.09-2.08-.09-4.19-.36-6.26-.4-3.05-2.5-3.73-5.13-3.14-4.52,1.01-7.69,3.84-9.27,8.07-1.14,3.06-1.56,6.38-2.38,9.57-1.16,4.5-2.05,9.11-3.67,13.44-1.95,5.21-5.9,8.12-11.75,7.69-2.13-.16-4.24-.45-6.36-.71-5.39-.66-10.79-1.94-16.17-1.87-8.52.11-16.55,1.74-21.48,10.26-1.26,2.18-4.58,4.13-7.14,4.41-9.78,1.07-19.57,3.27-29.49.33-5.3-1.57-9.71.27-12.36,5.18-2.84,5.26-5.33,10.8-7.2,16.47-4.04,12.2-6.01,24.83-7.36,37.63-.74,7.08-2.63,14.09-4.58,20.96-1.7,6-5.65,9.67-12.51,8.84-.25-.03-.56.43-1.17.93,1.72,9.5,3.44,19.22,5.25,28.91,2.04,10.86,4.62,21.64,6.16,32.58,2.68,19.04,6.4,37.85,10.96,56.52,2.39,9.79,5.01,19.54,6.79,29.44.89,4.94,2.86,8.46,6.77,11.42,6.7,5.08,14.58,7.9,21.94,11.66,7.52,3.85,15.53,6.73,23.33,10.04,9.61,4.08,19.44,7.3,29.95,8.12,12.72.98,25.42,2.47,38.16,2.99,8.51.34,17.12-.16,25.6-1.11,18.67-2.09,36.11-9.09,53.89-14.58,5.6-1.73,11.24-4.17,15.83-8.36,2.69-2.45,5.86-4.39,8.88-6.47,1.59-1.1,3.61-1.74,4.91-3.09,3.33-3.45,7.4-4.74,11.99-5.05.94-.06,1.87-.39,3.14-.67.45-1.88,1.08-3.71,1.3-5.58.49-4.24.8-8.49,1.12-12.75,1.27-16.6,2.49-33.2,3.79-49.79.77-9.86,1.42-19.75,2.55-29.57,1.62-14.06,3.71-28.06,5.46-42.11,1.46-11.71,2.75-23.44,4.04-35.16.44-4.04.52-8.13.96-12.17,1.45-13.29,3.01-26.58,4.5-39.87,1.06-9.43,2.03-18.87,3.14-28.3,1.19-10.02,2.57-20.01,3.71-30.03.43-3.78.42-7.61.64-12ZM506.41,613.09c-2.85,1.61-4.5,2.56-6.16,3.48-13.73,7.6-28.16,13.07-43.95,14.37-5.22.43-10.43.9-15.64,1.41-10.63,1.04-21.25,2.3-31.9,3.12-12.79.98-25.6,1.68-38.4,2.33-8.13.41-16.29.98-24.4.66-15.29-.61-30.55-1.86-45.83-2.71-3.44-.19-6.91,0-10.36.22-7.16.46-14.34,1.75-21.46,1.44-9.47-.42-18.95-.49-28.43-1.17-13.94-.99-27.85-2.04-41.72-3.8-10.19-1.29-20.42-2.36-30.6-3.73-5.12-.69-10.17-1.82-15.43-2.79-.22,1.25-.51,2-.47,2.74.34,5.6.59,11.21,1.16,16.79,1.09,10.8,2.14,21.61,3.61,32.37,1.83,13.46,4,26.87,6.12,40.29,1.72,10.92,3.07,21.93,5.48,32.7,4.02,17.97,8.72,35.79,13.19,53.66.64,2.56,1.89,5.01,2.3,7.6,1.77,11.3,3.27,22.64,4.98,33.95.52,3.41,2.19,6.22,5.48,7.74,4.74,2.19,8.03.34,8.43-4.82.57-7.32.98-14.64,1.51-21.96.91-12.63,3.65-24.89,7.77-36.85,3.23-9.38,6.73-18.64,12.66-26.74,3-4.09,6.53-7.55,12.04-6.58,9.91,1.74,19.75,3.87,29.61,5.86.56.11,1.12.36,1.62.66,3.35,1.97,6.16,1.15,9.03-1.26,8.94-7.53,19.31-9.45,30.65-7.57,3.64.61,7.33,1.04,11.01,1.16,6.57.21,8.14-1.21,9.31-7.63.35-1.91.74-3.81.97-5.73.81-6.68,3.09-12.86,6.57-18.57,2.71-4.46,6.55-7.66,11.84-8.69,4.08-.8,6.63.47,7.31,4.54.65,3.95.6,8.09.28,12.1-.68,8.49-1.63,16.95-.61,25.47.51,4.29,3.19,6.98,7.04,8.53,4,1.61,6.91-.61,9.06-3.45,2.44-3.23,4.45-6.82,6.39-10.4,2.04-3.75,3.64-7.74,5.66-11.51,3.81-7.1,9.32-12.55,17.08-14.99,3.99-1.25,8.35-1.33,12.55-1.88,9.37-1.23,19.16.27,28.03-4.33.66-.34,1.53-.25,2.29-.4,9.31-1.84,18.6-3.81,27.94-5.5,7.95-1.43,15.96-2.54,23.39-3.71,4.65-6.04,6.79-12.05,6.16-19.04-.2-2.25.54-4.58.69-6.88.44-6.76.76-13.53,1.18-20.29.62-9.81,1.09-19.63,1.99-29.41.6-6.53,1.85-13,3-20.8ZM500.17,534.87c-2.44,3.2-4.6,5.94-6.66,8.75-3.52,4.79-8.48,5.85-13.98,5.44-4.57-.34-5.86-2.44-4.06-6.62,2.77-6.41,6.41-12,14.92-13.56-2.09-1.55-3.22-2.59-4.52-3.32-6.06-3.38-9.3-8.82-10.6-15.32-1.19-6-3.56-11.45-6.65-16.58-1.56-2.59-3.62-5.12-6.03-6.9-6.59-4.87-9.34-11.33-8.17-19.17,1.77-11.88,3.14-23.84,6.8-35.38,1.75-5.53,3.59-11.19,4.13-16.9.94-10.01,1.32-20.13,1.15-30.19-.12-6.71-.4-13.58-3.2-19.99-1.71-3.91-4.35-6.18-8.62-6.88-16.44-2.71-31.07,1.61-44.51,10.99-14.06,9.81-24.03,23.1-32.32,37.8-3.24,5.75-5.93,11.82-9.15,17.58-7.15,12.8-16.85,23.29-29.65,30.55-8.12,4.6-17.08-.54-17.64-9.71-.09-1.55.12-3.12.02-4.67-.36-5.59-.23-11.29-1.32-16.75-1.65-8.33-10.24-13.75-18.02-11.8-10.74,2.69-20.92,12.74-21.69,22.73-.18,2.29-.72,4.66-1.61,6.78-5,12.02-9.99,24.05-15.42,35.87-.99,2.15-3.78,3.85-6.12,4.93-4.39,2.03-9.03,3.59-13.63,5.12-5.6,1.86-10.42,4.77-14.86,8.72-3.43,3.05-7.66,5.21-11.57,7.72-1.28.82-2.66,1.51-4.05,2.29,2.48,7.39,4.86,14.57,7.29,21.73,1.87,5.5,3.63,11.05,5.73,16.46,2.81,7.25,6.09,14.31,8.81,21.59,1.34,3.58,1.86,7.46,2.75,11.21,1.54.26,2.67.6,3.81.62,14.16.21,28.33.47,42.5.54,30.45.16,60.42-4.04,90.27-9.7,12.96-2.46,26.11-4.12,39.24-5.41,18.72-1.85,37.6-2.24,56.1-6.13,14.74-3.1,29.47-6.26,44.77-9.51-2.69-6.95-8.37-9.71-14.23-12.93ZM250.25,623.57c1.56.39,2.65.88,3.76.91,10.45.28,20.91.74,31.36.61,8.69-.1,17.38-1.4,26.06-1.34,26.13.15,52.2,3.34,78.38,1.37,8.87-.67,17.78-.8,26.66-1.37,15.49-1,30.98-1.99,46.44-3.31,10.67-.91,21.12-2.76,30.97-7.54,11.21-5.43,11.64-8.98,7.87-20.42-.06-.18-.1-.38-.17-.56-1.2-2.96-2.78-5.44-5.99-6.75-2.78-1.14-4.54-3.46-5.48-6.51.51-.65.86-1.41,1.46-1.82,3.36-2.31,6.7-4.67,10.2-6.77,5.1-3.06,6.34-2.78,10.52,1.61.85.89,1.75,1.72,2.9,2.85,1.6-4.83,3.02-9.13,4.76-14.41-11.21,2.97-21.22,5.63-30.65,8.13-1.71,4.26-3.32,8-4.71,11.82-1.66,4.57-1.18,5.4,2.73,8.23,3.77,2.72,7.46,5.58,10.91,8.68,1.15,1.04,2.06,3.02,2.05,4.56-.02,4.09-8.9,9.44-12.65,7.48-5.49-2.87-10.88-6.02-15.98-9.53-4.22-2.91-5.29-7.82-3.09-12.52,1.29-2.77,3.06-5.36,4.9-7.82,2.02-2.7,4.36-5.15,7.46-8.76-21.27,5.82-41.67,7.93-62.2,9.09-5.62.32-11.28.66-16.83,1.54-15.71,2.49-31.35,5.42-47.06,7.88-13.4,2.1-26.83,4.21-40.32,5.54-10.59,1.05-21.3.97-31.96,1.28-8.89.26-17.78.4-26.67.54-4.18.07-8.35.01-12.8.01,2.49,9.41,8.15,17.43,7.17,27.29ZM228.26,595.08c-15.35-2.36-31.03-4.78-46.84-7.21-2.42,4.94-4.38,10.27-7.46,14.85-3.05,4.52-7.23,8.26-11.4,12.89,24.9,2.86,48.96,5.62,73.54,8.44-2.75-10.18-5.25-19.42-7.84-28.96ZM146.84,593.68c4.91-2.81,8.88-5.17,12.95-7.32.77-.41,1.99.04,3,.1-.25,1.05-.16,2.46-.81,3.09-1.66,1.6-3.79,2.7-5.48,4.27-2.39,2.21-4.84,4.47-6.71,7.11-.77,1.08-.75,3.66.03,4.74,2.58,3.53,5.42,7,11.14,8.79-2.37-3.81-.76-5.98,1.18-8.34,2.56-3.12,4.7-6.59,6.93-9.96,2.21-3.35,4.31-6.77,6.63-10.45-11.21-2.92-21.99-5.73-33.26-8.66,1.51,5.73,2.96,11.21,4.4,16.65Z"/>
  <path class="cls-2" d="M304.23,448.84c-2.03,2.97-3.82,6.14-6.14,8.87-5.03,5.91-10.43,11.51-15.5,17.38-4.95,5.73-9.99,11.5-12,19.05-1.4,5.25-1.53,10.55.32,15.54,3.68.33,4.96-1.82,6.23-3.7,5.11-7.55,9.84-15.38,15.25-22.7,3.19-4.32,7.19-8.12,11.23-11.7,3.52-3.13,7.96-3.7,12.73-2.57,1.1,3.27.33,6.23-1.23,8.97-2.4,4.22-5.08,8.28-7.49,12.5-2.56,4.48-5.28,8.95-5.68,14.73,5.99.17,8.67-4.91,13.11-6.8-4.26,4.53-7.59,10.29-14.93,11.04-1.5-3.8-.33-7.03,1.03-9.9,2.98-6.3,6.41-12.4,9.68-18.56,1.07-2.01,2.21-3.99,3.61-6.51-6.17-1.44-10.69.91-13.99,4.58-4.78,5.31-8.88,11.26-13.03,17.1-4.04,5.69-7.78,11.6-11.67,17.4-.43.64-.88,1.29-1.42,1.84-1.6,1.65-3.79,2.87-5.71,1.61-1.54-1.01-2.99-3.2-3.2-5.01-1.15-10.14.87-19.71,6.08-28.55,4.67-7.92,10.54-14.83,17.37-20.98,5.04-4.53,9.85-9.31,14.77-13.98.19.12.37.24.56.36Z"/>
  <path class="cls-2" d="M444.31,511.79c-.82,1.71-1.36,3.65-2.52,5.08-3.44,4.21-7.11,8.23-10.73,12.28-1.5,1.68-3.51,3.09-5.62,1.94-2.29-1.25-3.68-3.66-2.74-6.42,1.69-4.94,3.64-9.79,5.5-14.67,1.06-2.78,2.15-5.55,3.56-9.2-5.37,1.32-8.27,4.19-11.09,6.96-4.99,4.91-9.74,10.07-14.59,15.12-.81.84-1.58,1.74-2.49,2.46-1.93,1.53-3.65,3.78-6.58,2.84-1.72-.55-3.42-5.64-2.46-8.41,1.06-3.09,2.35-6.24,4.2-8.9,6.54-9.42,13.1-18.86,20.19-27.88,4.85-6.17,6.01-12.58,4.89-20.15-.82-5.53-.22-11.27-.41-16.91-.11-3.15-1.7-6.41,1.38-9.73.33,1.21.76,2.1.8,3.02.42,9.31.68,18.63,1.17,27.93.3,5.57-1.76,10.28-4.86,14.62-6.67,9.33-13.47,18.58-20.18,27.88-1.13,1.57-2.13,3.24-3.13,4.91-2,3.34-1.89,6.59.53,9.96,4.42-1.75,7.13-5.35,10.24-8.48,5.62-5.63,11.27-11.23,16.99-16.75,1.81-1.75,3.88-3.27,7.41-2.31-.26,2.21-.16,4.55-.85,6.63-1.21,3.67-2.92,7.18-4.39,10.77-.89,2.15-2.19,4.28-2.44,6.51-.18,1.61.85,3.54,1.88,4.95.25.34,2.95-.48,3.91-1.41,3.48-3.34,6.69-6.97,10.04-10.45.75-.78,1.65-1.4,2.49-2.09l-.11-.09Z"/>
  <path class="cls-2" d="M256,552.93c.74-1.86.8-2.57,1.19-2.91,6.86-6.01,13.71-12.1,22.88-14.37,6.79-1.68,9.06.52,8.23,7.41-.51,4.23-.74,8.5-1.01,12.76-.06.91.26,1.84.41,2.86,4.09.39,6.33-2.2,8.5-4.58,5.49-6.04,10.72-12.31,16.21-18.36,9.03-9.94,18.11-19.82,27.31-29.6,2.44-2.59,4.92-5.42,9.53-6.13-.78,9.24-6.57,15.91-9.65,23.66-.45-2.88,1.41-4.96,2.43-7.32,1.88-4.37,4.91-8.29,5.69-13.73-4.33,1.12-6.78,4.07-9.07,6.65-13.41,15.12-26.51,30.51-39.86,45.69-2.67,3.03-5.76,5.82-9.07,8.12-3.09,2.14-5.39.96-5.63-2.79-.26-4.05.18-8.15.38-12.23.07-1.35.54-2.68.52-4.02-.04-2.32-1.27-3.92-3.7-3.22-4.06,1.18-8.14,2.46-11.95,4.27-3.31,1.57-6.23,3.95-9.36,5.91-.91.57-1.94.94-4,1.92Z"/>
  <path class="cls-2" d="M399.85,414.7c.05-4.1,2.84-6.86,5.41-9.29,6.75-6.39,13.86-12.41,20.92-18.47,1.27-1.09,3.02-1.62,4.46-2.36,2.79,1.89,1.41,3.99.65,5.85-3.89,9.58-8.8,18.57-14.98,26.91-6.93,9.35-13.97,18.66-20.25,28.45-5.86,9.12-11.61,18.47-14.17,29.22-.75,3.16-1.05,6.52-.93,9.77.13,3.68,2.94,5.57,6.5,4.56,2.31-.66,4.44-1.97,7.06-2.33-2.47,1.65-4.76,3.73-7.45,4.84-4.47,1.84-7.15-.04-8.54-4.75-1.49-5.03,0-9.74,1.68-14.15,7.11-18.64,17.31-35.56,29.71-51.14,6.68-8.39,12.83-17.08,17.35-26.84.57-1.23,1.19-2.45,1.66-3.71.18-.49.03-1.12.03-2.71-2.43,1.49-4.54,2.54-6.38,3.94-8.48,6.47-16.27,13.65-22.85,22.09l.13.11Z"/>
  <path class="cls-2" d="M470.12,531.06c-3.03,3.12-6.27,5.42-10.4,6.29-3.47.73-5.97,2.63-7.17,6.07-.19.55-.46,1.08-.77,1.56-7.34,11.47-12.32,14.8-26.59,11.12-3.16-.81-6.32-1.62-9.46-2.43,1.61-6.49,3.3-7.55,9.23-6.33,3.59.74,7.21,1.39,10.84,1.86,6.97.89,11.3-2.85,14.45-8.53,1.03-1.86,1.79-4.03,3.26-5.44,1.56-1.5,3.7-2.82,5.8-3.26,3.31-.7,6.79-.61,10.82-.9Z"/>
  <path class="cls-2" d="M399.72,414.59c.04.38.26.86.1,1.12-7.1,11.76-13.17,24.33-27.39,29.72-13.2,5-23.86,13.66-33.44,24.3.68-1.31,1.18-2.76,2.07-3.91,7.21-9.35,15.54-17.97,26.74-21.74,13.62-4.58,21.99-13.9,28.76-25.61.82-1.41,2.17-2.52,3.28-3.76,0,0-.13-.11-.13-.11Z"/>
  <path class="cls-2" d="M334.3,535.08c-.82,2.74-1.68,5.48-2.44,8.24-.59,2.16-1.06,4.36-1.56,6.41,3.39,1.94,5.92,1.07,8.17-.62,3.4-2.56,6.61-5.38,9.98-7.98,1.92-1.47,4.02-2.71,6.35-4.25,1.57,3.2,2.2,6.57,4.21,7.98,1.97,1.39,5.35.78,8.2,1.05-6.96,6.64-10.56,5.92-15.08-3.34-1.48.88-2.98,1.65-4.36,2.61-3.18,2.21-6.27,4.55-9.46,6.75-1.1.76-2.31,1.46-3.57,1.87-5.19,1.7-7.73-.47-6.07-5.69,1.42-4.47,3.8-8.65,5.75-12.95l-.12-.1Z"/>
  <path class="cls-2" d="M466.95,508.68c-1.98,2.58-4.23,2.5-6.04,1.33-1.48-.96-2.71-2.7-3.39-4.36-.63-1.54-.48-3.43-.51-5.17-.03-2.29-.73-4.11-3.13-5.38-1.48,1.06-2.95,2.12-4.45,3.19-.12-.45-.4-.88-.28-1.13,1.25-2.68,2.81-5.84,6.18-4.92,2.93.8,2.79,4.27,3.01,6.95.1,1.15-.07,2.33.02,3.48.35,4.76,3.1,6.79,8.59,6Z"/>
  <path class="cls-2" d="M444.42,511.88c.62-3.32,1.24-6.64,1.86-9.96.39.09.79.18,1.18.28-.13,3.46-.82,6.76-3.15,9.59,0,0,.11.09.11.09Z"/>
  <path class="cls-2" d="M334.42,535.18c.74-2.57,1.49-5.15,2.23-7.72.4.14.8.29,1.2.43-.74,2.58-1.15,5.31-3.55,7.19,0,0,.12.1.12.1Z"/>
  <path class="cls-2" d="M503.01,352.78c2.52-10.34,2.55-10.37,13.06-9.42,5.01.45,10.01.91,15.25,1.39,3.71-10.01,7.46-19.4,10.66-28.98,3.09-9.24,5.64-18.66,8.91-29.65,7.5,9.22,7.12,19.29,10.16,28.01,3.14,8.98,4.78,18.48,7.18,28.13,10.07-1.14,19.83-2.3,29.61-3.3,4.28-.44,8.61-.82,12.9-.69,3.88.11,5.13,2.1,3.47,5.47-1.43,2.9-3.32,5.74-5.58,8.05-5.67,5.79-11.79,11.15-17.49,16.91-4.69,4.74-4.19,4.75-1.95,10.53,2.56,6.57,4.43,13.41,6.58,20.13,1.69,5.27,3.02,10.69,5.09,15.81,2.31,5.7.49,9.65-4.43,13.53-6.03-5.79-11.67-11.86-18-17.11-6.2-5.14-13.1-9.44-19.46-13.94-13.05,11.55-25.47,22.54-37.93,33.48-.2.17-.93-.25-2.32-.68,2.18-16.66,11.37-30.87,17.27-46.94-13.43-7.14-22.66-18.97-32.98-30.73ZM551.24,306.05c-.49-.05-.98-.1-1.47-.16-.7,1.87-1.28,3.8-2.12,5.6-5.93,12.75-8.2,26.93-16.05,39.03-2.49,3.84-4.69,6.09-10.31,6.1,5.59,6.11,10.84,10.7,17.05,14.16,5.65,3.16,6.22,3.98,3.89,10.13-2.97,7.81-6.41,15.44-9.62,23.15-1.09,2.63-2.12,5.29-3.64,9.09,2.44-1.15,3.55-1.39,4.25-2.05,7.73-7.28,15.42-14.61,23.09-21.96,4.23-4.06,4.83-4.19,9.74-1.1,1.71,1.08,3.25,2.43,4.93,3.58,4.72,3.24,9.47,6.44,15.2,10.33-.2-2.52,0-3.83-.44-4.88-1.55-3.73-3.11-7.48-5.04-11.02-2.38-4.36-3.2-8.51,0-12.8,3.6-4.82,7.07-9.76,10.81-14.47,2.12-2.67,4.67-5.01,8.22-8.75-4.52.26-7.24.28-9.93.59-6.8.79-13.56,1.89-20.37,2.54-6.33.61-7.37-.59-8.66-6.68-2.42-11.37-5.11-22.68-7.73-34.01-.5-2.17-1.2-4.29-1.81-6.43Z"/>
  <g>
    <path class="cls-3" d="M587.15,793.23h.34v1.06h-.34l.04,1.19h-1.92v.51h-.47v.94h-.51v.47h-.43v1.49h-.51v1.41h-.47v.94h-.51v1.45h-.47v.94h-.51v.98h-.43v.51h-.51v1.41h-.47v.51h-.51v1.41h-.43v1.41h-.51v.98h-.47v.98h-.43v.94h-.51v.51h-.47v.98h-.51v.43h-2.89v-.43h-.43v-.51h-.51v-.98h-.47v-.47h-.51v-1.45h-.43v-.98h-.47v-.94h-.51v-.89h-.47v-.98h-.51v-.98h-.43v-1.45h-.51v-.47h-.47v-1.45h-.51v-.98h-.43v-1.41h-.51v-.98h-.47v-.94h-.51v-1.45h-.43v-.94h-.51v-.51h-3.37v-.47h-.43v-.51h-.51v-.89h.51v-.51h.43v-.47h7.71v.47h1.92v.51h.47v1.41h-1.45v.47h-.94v1.45h.43v1.45h.51v.94h.47v1.49h.51v.89h.47v.98h.43v1.45h.51v.98h.47v.94h.51v.98h.43v.98h.51v.43h.47v.47h.51v.94h.43v-.43h.51v-.51h.47v-.47h.51v-1.41h.47v-.98h.51v-1.45h.43v-.98h.47v-1.41h.51v-1.41h.43v-.98h.51v-.94h.47v-3.41h-1.4v-.47h-1.92v-.94h-.47v-.47h.47v-.51h.94v-.47h7.62v-.51h1.45v1.11Z"/>
    <path class="cls-3" d="M598.02,792.25h1.89v.51h.99v1.41h.47v1.41h-.47v14.9h.47v.43h.94v.51h7.62v.47h.98v1.92h-.47v.51h-.94v.47h-2.43v-.47h-15.33v.47h-.89v-.47h-.98v-.98h-.51v-.51h.51v-.94h.47v-.47h4.81v-.51h.94v-.43h.98v-14.39h-1.49v-.51h-3.32v.51h-1.92v-.51h-.47v-.47h-.51v-1.41h.51v-.51h3.79v-.43h4.35v-.51ZM598.5,782.67h2.41v.47h.92v.51h.5v.43h.46v2.9h-.47v.47h-.51v.51h-.43v.43h-.47v.51h-.99v.47h-1.42v-.47h-1.42v-.51h-.51v-.43h-.47v-2.9h.47v-.98h.51v-.43h.43v-.51h.99v-.47Z"/>
    <path class="cls-3" d="M627.14,792.25h4.3v.51h.51v.43h.89v.51h.98v.47h.51v.43h.43v.51h.51v.98h.47v1.41h.51v13.41h.47v.51h2.43v.47h.89v2.43h-.89v.47h-3.88v-.47h-4.77v-.98h-.47v-.51h.47v-.43h.51v-.51h.43v-.47h.51v-.51h.47v-5.71h.43v-4.3h-.43v-2.43h-.47v-.98h-.51v-.43h-.43v-.51h-.51v-.47h-.98v-.51h-3.32v.51h-.98v.47h-1.4v.51h-.98v.43h-1.45v.98h-.47v4.3h-.51v5.32h.51v2.81h.47v.51h2.43v.47h.98v.51h.43v.43h.47v.51h-.47v.47h-.43v.51h-9.11v-.51h-.51v-.47h-.47v-.51h.47v-.94h.51v-.47h.94v-.51h.47v-14.35h-.47v-.47h-3.36v-.51h-.47v-1.41h.47v-.47h.94v-.51h2.43v-.43h2.85v.43h.51v.51h.43v.89h1.92v-.43h.51v-.47h.98v-.51h1.87v-.43h1.45v-.51Z"/>
    <path class="cls-3" d="M648.13,781.78h1.49v.51h.47v.47h.51v2.43h-.51v3.32h-.47v1.45h.47v1.45h-.47v2.38h.47v1.36h.51v-.43h1.92v-.49h.43v-.45h1.41v-.45h.98v-.49h5.32v.49h1.4v.45h.47v.45h.51v.49h.43v.43h.51v.51h.47v.98h.51v1.41h.43v1.92h.51v2.9h-.51v9.14h2.9v.43h.98v1.49h-.51v.47h-.47v.51h-7.62v-.51h-.98v-1.96h.98v-.43h.43v-.51h.47v-5.28h.51v-5.71h-.51v-1.45h-.47v-.98h-.43v-.47h-.51v-.51h-.47v-.43h-.94v-.51h-3.88v.51h-1.41v.43h-1.45v.51h-.98v.47h-.43v.51h-.51v.47h-.47v11.03h.47v1.41h.94v.51h2.43v.43h.89v1.49h-.43v.47h-4.81v.51h-3.79v-.51h-.94v-2.38h.94v-.51h.47v-.47h.51v-20.57h.43v-1.49h-.43v-1.92h-.51v-.47h-.98v-.43h-1.92v-.51h-.47v-.47h-.51v-.98h.51v-.51h.98v-.43h1.92v-.51h.98v-.47h1.83v-.51Z"/>
    <path class="cls-3" d="M679.11,791.79h3.33v.43h2.39v.53h1.45v.45h1.41v.51h.47v.47h.51v.43h.43v.51h.51v.47h.47v.98h.51v.51h.47v.94h.47v.98h.45v2.38h.54v3.32h-.54v1.49h-.45v2.34h-.47v.98h-.47v.47h-.51v.51h-.47v.43h-.51v.51h-.43v.47h-.98v.51h-.51v.43h-.43v.51h-.98v.47h-.94v.51h-1.97v.47h-4.74v-.47h-1.5v-.51h-1.41v-.47h-.94v-.51h-.5v-.43h-.97v-.51h-.42v-.47h-.46v-.51h-.5v-.94h-.46v-.98h-.51v-1.41h-.43v-.98h-.51v-6.22h.51v-1.41h.43v-.98h.51v-.94h.47v-.51h.51v-.98h.47v-.47h.94v-.51h.45v-.43h.49v-.47h.94v-.51h.98v-.45h.94v-.53h1.97v-.43ZM688.16,804.69h.51v-2.38h-.51v-1.92h-.47v-.98h-.51v-.43h-.43v-1.49h-.47v-.43h-.51v-.51h-.43v-.47h-.98v-.51h-.98v-.47h-5.77v.47h-.98v.51h-.43v.47h-.51v.51h-.47v.43h-.51v.98h-.43v1.45h-.49v1.87h-.45v3.41h.45v1.92h.49v.47h.43v.94h.51v.47h.47v.51h.51v.47h.43v.51h.51v.43h.98v.51h1.41v.47h2.91v-.47h1.41v-.51h.98v-.43h.94v-.51h.51v-.47h.47v-.98h.43v-.94h.51v-.98h.47v-1.92Z"/>
    <path class="cls-3" d="M718.36,781.57h2.89v.43h.47v.98h.51v.51h-.51v4.73h-.47v4.81h.47v.47h1.45v-.47h2.38v-.43h4.81v.43h1.41v.47h.98v.51h.51v.47h.95v.47h.47v.47h.43v.51h.52v.98h.47v.43h.52v.98h.43v.94h.49v2.9h.45v3.36h-.45v1.92h-.49v1.41h-.43v.98h-.52v.51h-.47v.43h-.52v.51h-.43v.47h-.47v.51h-.52v.43h-.95v.51h-.47v.47h-1.49v.51h-1.4v.47h-6.22v-.47h-2.85v.47h-2.38v-.47h-.51v-9.62h.51v-17.71h-.51v-.94h-.47v-.47h-2.85v-.51h-.51v-.47h-.47v-.51h.47v-.94h.94v-.47h2.43v-.51h1.41v-.43ZM733.69,803.54h.51v-1.41h-.51v-1.45h-.43v-.94h-.51v-.94h-.47v-.51h-.51v-.47h-.47v-.51h-.51v-.43h-.43v-.51h-1.49v-.47h-5.24v.47h-.98v.51h-.94v.94h-.47v11.97h.47v.51h.51v.43h.43v.51h1.92v.47h3.88v-.47h.94v-.51h.98v-.43h.43v-.51h.98v-.98h.51v-.47h.47v-.94h.51v-.98h.43v-2.9Z"/>
    <path class="cls-3" d="M758.51,791.7h1.45v.43h1.92v.55h.98v.45h.43v.49h.51v2.38h-.51v.43h-.43v.51h-4.34v-.51h-1.45v-.43h-.43v.43h-1.92v.51h-.98v.47h-.94v.51h-.51v.47h-.47v.51h-.51v.43h-.47v.51h-.51v.47h-.43v10.05h.43v.47h.51v.51h7.2v.47h.47v.94h.51v.51h-.51v.47h-.47v.51h-4.81v-.51h-.43v.51h-10.09v-.51h-.43v-.47h-.51v-1.45h.51v-.47h2.34v-.51h.98v-.47h.47v-.94h.51v-7.71h-.51v-.89h.51v-.51h-.51v-3.88h-.47v-.43h-.98v-.51h-1.45v.51h-2.38v.43h-.43v-.94h-.51v-1.87h.51v-.49h2.81v-.45h2.89v-.55h2.43v.98h.43v.51h.51v1.41h.47v.98h.94v-.51h.98v-.47h.47v-.51h.51v-.43h.94v-.47h.98v-.49h.94v-.45h.98v-.55h1.88v-.43Z"/>
    <path class="cls-3" d="M773.97,792.08h6.69v.51h.94v.43h.98v.47h.51v.51h.47v.47h.51v.94h.43v5.28h-.43v10.05h1.83v-.43h1.49v.43h.43v.51h.51v1.41h-.51v.51h-1.92v.47h-1.41v.51h-3.32v-.51h-.51v-.47h-.98v-.51h-.94v.51h-1.41v.47h-1.96v.51h-6.64v-.51h-.98v-.47h-.94v-.51h-.98v-.43h-.51v-.98h-.43v-.94h-.51v-3.36h.51v-.94h.43v-.98h.51v-.51h.47v-.47h.94v-.51h.98v-.43h.94v-.51h1.45v-.47h1.92v-.47h2.85v-.43h.51v.43h2.38v-.43h1.4v-.51h.51v-.47h.47v-3.86h-.47v-.47h-.51v-.51h-.43v-.47h-.98v-.47h-3.83v.47h-.98v.47h-.94v.51h-.47v.47h-.51v1.45h-.43v.47h-.51v.51h-2.38v-.51h-.47v-.47h-.51v-2.43h.51v-.94h.98v-.47h.94v-.51h.94v-.47h.94v-.43h2.43v-.51ZM779.68,808.35h.51v-3.83h-.51v-.47h-6.64v.47h-1.49v.51h-.94v.47h-.94v.51h-.51v.43h-.43v.98h-.51v1.92h.51v.98h.94v.43h.94v.51h2.85v.47h.51v-.47h2.38v-.51h.98v-.43h.94v-.51h.98v-.47h.43v-.98Z"/>
    <path class="cls-3" d="M804.55,792.25h4.3v.51h.51v.43h.89v.51h.98v.47h.51v.43h.43v.51h.51v.98h.47v1.41h.51v13.41h.47v.51h2.43v.47h.89v2.43h-.89v.47h-3.88v-.47h-4.77v-.98h-.47v-.51h.47v-.43h.51v-.51h.43v-.47h.51v-.51h.47v-5.71h.43v-4.3h-.43v-2.43h-.47v-.98h-.51v-.43h-.43v-.51h-.51v-.47h-.98v-.51h-3.32v.51h-.98v.47h-1.41v.51h-.98v.43h-1.45v.98h-.47v4.3h-.51v5.32h.51v2.81h.47v.51h2.43v.47h.98v.51h.43v.43h.47v.51h-.47v.47h-.43v.51h-9.11v-.51h-.51v-.47h-.47v-.51h.47v-.94h.51v-.47h.94v-.51h.47v-14.35h-.47v-.47h-3.37v-.51h-.47v-1.41h.47v-.47h.94v-.51h2.43v-.43h2.85v.43h.51v.51h.43v.89h1.92v-.43h.51v-.47h.98v-.51h1.88v-.43h1.45v-.51Z"/>
    <path class="cls-3" d="M828.44,792.08h6.22v.51h1.41v.43h.94v.48h.51v.52h.47v.48h.43v.48h.51v.97h.47v2.37h.51v.93h-.51v.97h-.47v.46h-2.34v-.46h-.98v-.97h-.51v-2.83h-.43v-.46h-.51v-.51h-1.45v-.46h-3.83v.46h-.94v.51h-.98v.46h-.47v.51h-.51v.42h-.43v.51h-.51v.46h-.47v.93h-.51v1.44h-.43v5.32h.43v1.41h.51v.43h.47v.98h.51v.51h.43v.47h.98v.51h.98v.43h2.43v.55h2.81v-.55h2.9v-.43h.94v-.51h1.41v-.47h2.47v.48h.43v1.48h-.43v.45h-.51v.5h-.98v.41h-1.4v.51h-.98v.47h-2.34v.51h-1.49v.47h-5.71v-.47h-1.92v-.51h-1.49v-.47h-.43v-.51h-.47v-.41h-.51v-.5h-.43v-.45h-.51v-.55h-.47v-.93h-.51v-.98h-.47v-1.4h-.51v-1.4h-.43v-3.4h.43v-2.85h.51v-.93h.47v-.98h.51v-.93h.47v-.51h.51v-.47h.43v-.51h.51v-.47h.47v-.48h.43v-.48h.98v-.52h.51v-.48h1.41v-.43h1.49v-.51Z"/>
    <path class="cls-3" d="M852.77,791.79h3.33v.43h2.39v.53h1.45v.45h1.41v.51h.47v.47h.51v.43h.43v.51h.51v.47h.47v.98h.51v.51h.47v.94h.47v.98h.45v2.38h.54v3.32h-.54v1.49h-.45v2.34h-.47v.98h-.47v.47h-.51v.51h-.47v.43h-.51v.51h-.43v.47h-.98v.51h-.51v.43h-.43v.51h-.98v.47h-.94v.51h-1.97v.47h-4.74v-.47h-1.5v-.51h-1.41v-.47h-.94v-.51h-.5v-.43h-.97v-.51h-.42v-.47h-.46v-.51h-.5v-.94h-.46v-.98h-.51v-1.41h-.43v-.98h-.51v-6.22h.51v-1.41h.43v-.98h.51v-.94h.47v-.51h.51v-.98h.47v-.47h.94v-.51h.45v-.43h.49v-.47h.94v-.51h.98v-.45h.94v-.53h1.97v-.43ZM861.82,804.69h.51v-2.38h-.51v-1.92h-.47v-.98h-.51v-.43h-.43v-1.49h-.47v-.43h-.51v-.51h-.43v-.47h-.98v-.51h-.98v-.47h-5.77v.47h-.98v.51h-.43v.47h-.51v.51h-.47v.43h-.51v.98h-.43v1.45h-.49v1.87h-.45v3.41h.45v1.92h.49v.47h.43v.94h.51v.47h.47v.51h.51v.47h.43v.51h.51v.43h.98v.51h1.41v.47h2.91v-.47h1.41v-.51h.98v-.43h.94v-.51h.51v-.47h.47v-.98h.43v-.94h.51v-.98h.47v-1.92Z"/>
    <path class="cls-3" d="M869.23,809.8h1.4v.51h.51v.47h.98v.51h.43v.94h.47v5.28h-.47v.98h-.43v.43h-.51v.51h-.47v.47h-.51v.51h-.43v.43h-.51v.47h-.47v.51h-.51v.47h-.89v.51h-.51v-.51h-.98v-.98h-.43v-.47h.43v-.94h.51v-.47h.47v-.94h.51v-.51h.43v-.47h.47v-1.92h-.47v-.51h-.43v-.47h-.51v-1.41h-.47v-.98h.47v-1.45h.94v-.47h.98v-.51Z"/>
    <path class="cls-3" d="M567.49,845.14h5.3v.51h1.45v.45h1.45v.46h.94v.5h5.79v.47h.43v.98h.51v.51h-.51v.43h-.43v.51h-3.41v.47h-.47v.51h.47v3.79h-.47v.98h-.51v.94h-.43v.98h-.47v.51h-.51v.43h-.94v.51h-.98v.47h-1.41v.47h-4.3v.47h-.98v.43h-.51v.52h-.43v.47h-.51v.95h-.47v.52h.98v.47h7.15v.51h.47v-.51h2.9v.51h2.85v.43h.97v.51h.46v.47h.51v.51h.92v.47h.46v4.81h-.45v.94h-.49v.98h-.43v.43h-.51v.51h-.47v.47h-.98v.47h-.51v.51h-.94v.43h-1.4v.51h-1.41v.47h-2.48v.51h-3.76v-.51h-4.4v-.47h-1.41v-.51h-.94v-.43h-.95v-.51h-.45v-.47h-.51v-.98h-.43v-.43h-.51v-1.49h-.47v-1.92h.47v-1.41h.51v-.51h.43v-.89h.51v-.51h.45v-.47h.49v-.98h.47v-.51h-.47v-2.34h.47v-.98h.43v-.51h.51v-.43h.47v-.98h.51v-.47h-.51v-.51h-.47v-.43h-.51v-.51h-.43v-.98h-.47v-.43h-.49v-1.49h-.45v-4.3h.45v-1.41h.49v-.98h.47v-.51h.43v-.47h.98v-.5h.51v-.46h.94v-.45h1.41v-.51ZM579.96,871.54h.51v-2.9h-.51v-.51h-.43v-.47h-.98v-.43h-.94v-.51h-12.05v.51h-.43v.43h-.51v.47h-.47v.51h-.51v.94h-.43v2.38h.43v.98h.51v.51h.47v.43h.94v.51h2.44v.47h2.39v.47h.47v-.47h3.85v-.47h1.49v-.51h1.41v-.43h.94v-.51h.47v-.47h.51v-.51h.43v-.43ZM565.14,854.72h.44v.98h.53v.51h.48v.43h.51v.51h1.41v.47h4.3v-.47h.94v-.51h.98v-.94h.51v-.98h.47v-3.79h-.47v-.98h-.51v-.94h-.47v-.51h-.94v-.47h-.98v-.51h-3.83v.51h-.98v.47h-.94v.51h-.48v.94h-.53v.98h-.44v3.79Z"/>
    <path class="cls-3" d="M592.48,844.41h6.69v.51h.94v.43h.98v.47h.51v.51h.9v.49h.52v.49h.43v.47h.52v.97h.47v.51h.52v.93h.47v1.4h.47v3.86h-.47v.42h-1.45v.51h-12.47v.47h-2.43v.51h-.43v1.41h.43v.98h.51v.94h.47v.47h.51v.51h.43v.47h.98v.51h.98v.43h1.92v.55h3.83v-.55h2.9v-.43h1.4v-.51h1.41v-.47h1.92v.48h.51v1.48h-.51v.45h-.43v.5h-.98v.41h-.98v.51h-1.92v.47h-1.92v.51h-2.38v.47h-4.77v-.47h-1.96v-.51h-1.41v-.47h-.94v-.51h-.51v-.41h-.47v-.5h-.94v-.45h-.47v-.94h-.51v-.51h-.47v-.98h-.51v-2.38h-.43v-4.3h.43v-2.38h.51v-.94h.47v-.98h.51v-.94h.47v-.51h.51v-.47h.43v-.98h.47v-.49h.51v-.49h.94v-.51h.98v-.47h.94v-.43h.98v-.51ZM601.59,852.12h.43v-.51h-.43v-.94h-.51v-.47h-.47v-.51h-.51v-.94h-.94v-.47h-.47v-.51h-1.49v-.47h-3.75v.47h-.98v.51h-.51v.47h-.47v.51h-.51v.43h-.43v.51h-.51v.47h-.47v.94h-.51v2.38h7.71v-.43h4.3v-.51h.51v-.94Z"/>
    <path class="cls-3" d="M616.88,834.06h2.81v.43h.51v3.83h.43v.51h-.43v10.99h-.51v5.28h.51v3.41h-.51v3.79h.51v.94h.94v.51h6.22v.47h.98v.51h.47v.43h.51v.51h-.51v.98h-1.45v.47h-2.43v-.47h-8.05v.47h-1.96v-.47h-5.24v-1.92h.47v-.51h.43v-.47h4.81v-.51h.51v-.43h.47v-2.9h-.47v-1.41h.47v-20.18h-.47v-.43h-3.41v.43h-3.32v-.43h-.47v-1.92h.47v-.51h1.92v-.47h3.32v-.51h2.47v-.43Z"/>
    <path class="cls-3" d="M640.77,844.41h6.69v.51h.94v.43h.98v.47h.51v.51h.47v.47h.51v.94h.43v5.28h-.43v10.05h1.83v-.43h1.49v.43h.43v.51h.51v1.41h-.51v.51h-1.92v.47h-1.41v.51h-3.32v-.51h-.51v-.47h-.98v-.51h-.94v.51h-1.41v.47h-1.96v.51h-6.64v-.51h-.98v-.47h-.94v-.51h-.98v-.43h-.51v-.98h-.43v-.94h-.51v-3.36h.51v-.94h.43v-.98h.51v-.51h.47v-.47h.94v-.51h.98v-.43h.94v-.51h1.45v-.47h1.92v-.47h2.85v-.43h.51v.43h2.38v-.43h1.4v-.51h.51v-.47h.47v-3.86h-.47v-.47h-.51v-.51h-.43v-.47h-.98v-.47h-3.83v.47h-.98v.47h-.94v.51h-.47v.47h-.51v1.45h-.43v.47h-.51v.51h-2.38v-.51h-.47v-.47h-.51v-2.43h.51v-.94h.98v-.47h.94v-.51h.94v-.47h.94v-.43h2.43v-.51ZM646.47,860.68h.51v-3.83h-.51v-.47h-6.64v.47h-1.49v.51h-.94v.47h-.94v.51h-.51v.43h-.43v.98h-.51v1.92h.51v.98h.94v.43h.94v.51h2.85v.47h.51v-.47h2.38v-.51h.98v-.43h.94v-.51h.98v-.47h.43v-.98Z"/>
    <path class="cls-3" d="M674.73,833.89h2.36v1.41h.43v1.92h-.43v1.92h.43v1.41h-.43v21.12h.43v.98h2.43v.43h.98v1.92h-.51v.51h-1.92v.47h-1.41v.51h-2.9v-.51h-2.38v.51h-1.92v.47h-6.22v-.47h-.94v-.51h-.98v-.46h-.5v-.5h-.88v-.42h-.51v-.5h-.46v-.46h-.51v-.98h-.42v-.51h-.55v-.98h-.45v-1.87h-.49v-5.75h.49v-1.45h.45v-1.45h.55v-.98h.43v-.43h.51v-.51h.47v-.47h.51v-.51h.43v-.47h.47v-.47h.98v-.47h.94v-.51h.98v-.47h7.66v.47h1.41v-1.41h.51v-.98h-.51v-2.9h.51v-1.41h-.51v-.94h-1.41v-.47h-2.43v-1.92h.51v-.51h.98v-.47h2.34v-.51h1.47v-.43ZM660.82,857.36h.45v1.92h.49v.89h.48v.51h.53v.98h.44v.47h.51v.51h.47v.45h.94v.53h3.37v.47h.94v-.47h1.92v-.53h.98v-.45h.51v-.51h.43v-4.3h.51v-6.69h-.51v-1.92h-.94v-.51h-.98v-.47h-1.41v-.51h-3.32v.51h-1.49v.47h-.94v.51h-.98v.94h-.44v.47h-.53v.51h-.48v.94h-.49v1.45h-.45v3.83Z"/>
    <path class="cls-3" d="M692.44,844.11h3.33v.43h2.39v.53h1.45v.45h1.41v.51h.47v.47h.51v.43h.43v.51h.51v.47h.47v.98h.51v.51h.47v.94h.47v.98h.45v2.38h.53v3.32h-.53v1.49h-.45v2.34h-.47v.98h-.47v.47h-.51v.51h-.47v.43h-.51v.51h-.43v.47h-.98v.51h-.51v.43h-.43v.51h-.98v.47h-.94v.51h-1.96v.47h-4.74v-.47h-1.5v-.51h-1.41v-.47h-.94v-.51h-.5v-.43h-.97v-.51h-.42v-.47h-.46v-.51h-.5v-.94h-.46v-.98h-.51v-1.41h-.43v-.98h-.51v-6.22h.51v-1.41h.43v-.98h.51v-.94h.47v-.51h.51v-.98h.47v-.47h.94v-.51h.45v-.43h.49v-.47h.94v-.51h.98v-.45h.94v-.53h1.96v-.43ZM701.49,857.02h.51v-2.38h-.51v-1.92h-.47v-.98h-.51v-.43h-.43v-1.49h-.47v-.43h-.51v-.51h-.43v-.47h-.98v-.51h-.98v-.47h-5.77v.47h-.98v.51h-.43v.47h-.51v.51h-.47v.43h-.51v.98h-.43v1.45h-.49v1.87h-.45v3.41h.45v1.92h.49v.47h.43v.94h.51v.47h.47v.51h.51v.47h.43v.51h.51v.43h.98v.51h1.41v.47h2.91v-.47h1.41v-.51h.98v-.43h.94v-.51h.51v-.47h.47v-.98h.43v-.94h.51v-.98h.47v-1.92Z"/>
    <path class="cls-3" d="M744.19,833.89h2.36v1.41h.43v1.92h-.43v1.92h.43v1.41h-.43v21.12h.43v.98h2.43v.43h.98v1.92h-.51v.51h-1.92v.47h-1.41v.51h-2.9v-.51h-2.38v.51h-1.92v.47h-6.22v-.47h-.94v-.51h-.98v-.46h-.5v-.5h-.88v-.42h-.51v-.5h-.46v-.46h-.51v-.98h-.42v-.51h-.55v-.98h-.45v-1.87h-.49v-5.75h.49v-1.45h.45v-1.45h.55v-.98h.43v-.43h.51v-.51h.47v-.47h.51v-.51h.43v-.47h.47v-.47h.98v-.47h.94v-.51h.98v-.47h7.66v.47h1.41v-1.41h.51v-.98h-.51v-2.9h.51v-1.41h-.51v-.94h-1.41v-.47h-2.43v-1.92h.51v-.51h.98v-.47h2.34v-.51h1.47v-.43ZM730.28,857.36h.45v1.92h.49v.89h.48v.51h.53v.98h.44v.47h.51v.51h.47v.45h.94v.53h3.37v.47h.94v-.47h1.92v-.53h.98v-.45h.51v-.51h.43v-4.3h.51v-6.69h-.51v-1.92h-.94v-.51h-.98v-.47h-1.41v-.51h-3.32v.51h-1.49v.47h-.94v.51h-.98v.94h-.44v.47h-.53v.51h-.48v.94h-.49v1.45h-.45v3.83Z"/>
    <path class="cls-3" d="M760.43,844.41h6.69v.51h.94v.43h.98v.47h.51v.51h.9v.49h.52v.49h.43v.47h.52v.97h.47v.51h.52v.93h.47v1.4h.47v3.86h-.47v.42h-1.45v.51h-12.46v.47h-2.43v.51h-.43v1.41h.43v.98h.51v.94h.47v.47h.51v.51h.43v.47h.98v.51h.98v.43h1.92v.55h3.83v-.55h2.89v-.43h1.41v-.51h1.4v-.47h1.92v.48h.51v1.48h-.51v.45h-.43v.5h-.98v.41h-.98v.51h-1.92v.47h-1.92v.51h-2.38v.47h-4.77v-.47h-1.96v-.51h-1.4v-.47h-.94v-.51h-.51v-.41h-.47v-.5h-.94v-.45h-.47v-.94h-.51v-.51h-.47v-.98h-.51v-2.38h-.43v-4.3h.43v-2.38h.51v-.94h.47v-.98h.51v-.94h.47v-.51h.51v-.47h.43v-.98h.47v-.49h.51v-.49h.94v-.51h.98v-.47h.94v-.43h.98v-.51ZM769.54,852.12h.43v-.51h-.43v-.94h-.51v-.47h-.47v-.51h-.51v-.94h-.94v-.47h-.47v-.51h-1.49v-.47h-3.75v.47h-.98v.51h-.51v.47h-.47v.51h-.51v.43h-.43v.51h-.51v.47h-.47v.94h-.51v2.38h7.71v-.43h4.3v-.51h.51v-.94Z"/>
    <path class="cls-3" d="M804.97,844.41h6.69v.51h.94v.43h.98v.47h.51v.51h.47v.47h.51v.94h.43v5.28h-.43v10.05h1.83v-.43h1.49v.43h.43v.51h.51v1.41h-.51v.51h-1.92v.47h-1.4v.51h-3.32v-.51h-.51v-.47h-.98v-.51h-.94v.51h-1.4v.47h-1.96v.51h-6.64v-.51h-.98v-.47h-.94v-.51h-.98v-.43h-.51v-.98h-.43v-.94h-.51v-3.36h.51v-.94h.43v-.98h.51v-.51h.47v-.47h.94v-.51h.98v-.43h.94v-.51h1.45v-.47h1.92v-.47h2.85v-.43h.51v.43h2.38v-.43h1.41v-.51h.51v-.47h.47v-3.86h-.47v-.47h-.51v-.51h-.43v-.47h-.98v-.47h-3.83v.47h-.98v.47h-.94v.51h-.47v.47h-.51v1.45h-.43v.47h-.51v.51h-2.38v-.51h-.47v-.47h-.51v-2.43h.51v-.94h.98v-.47h.94v-.51h.94v-.47h.94v-.43h2.43v-.51ZM810.68,860.68h.51v-3.83h-.51v-.47h-6.64v.47h-1.49v.51h-.94v.47h-.94v.51h-.51v.43h-.43v.98h-.51v1.92h.51v.98h.94v.43h.94v.51h2.85v.47h.51v-.47h2.38v-.51h.98v-.43h.94v-.51h.98v-.47h.43v-.98Z"/>
    <path class="cls-3" d="M835.55,844.58h4.3v.51h.51v.43h.89v.51h.98v.47h.51v.43h.43v.51h.51v.98h.47v1.41h.51v13.41h.47v.51h2.43v.47h.89v2.43h-.89v.47h-3.88v-.47h-4.77v-.98h-.47v-.51h.47v-.43h.51v-.51h.43v-.47h.51v-.51h.47v-5.71h.43v-4.3h-.43v-2.43h-.47v-.98h-.51v-.43h-.43v-.51h-.51v-.47h-.98v-.51h-3.32v.51h-.98v.47h-1.41v.51h-.98v.43h-1.45v.98h-.47v4.3h-.51v5.32h.51v2.81h.47v.51h2.43v.47h.98v.51h.43v.43h.47v.51h-.47v.47h-.43v.51h-9.11v-.51h-.51v-.47h-.47v-.51h.47v-.94h.51v-.47h.94v-.51h.47v-14.35h-.47v-.47h-3.37v-.51h-.47v-1.41h.47v-.47h.94v-.51h2.43v-.43h2.85v.43h.51v.51h.43v.89h1.92v-.43h.51v-.47h.98v-.51h1.88v-.43h1.45v-.51Z"/>
    <path class="cls-3" d="M859.91,844.41h6.69v.51h.94v.43h.98v.47h.51v.51h.47v.47h.51v.94h.43v5.28h-.43v10.05h1.83v-.43h1.49v.43h.43v.51h.51v1.41h-.51v.51h-1.92v.47h-1.41v.51h-3.32v-.51h-.51v-.47h-.98v-.51h-.94v.51h-1.41v.47h-1.96v.51h-6.64v-.51h-.98v-.47h-.94v-.51h-.98v-.43h-.51v-.98h-.43v-.94h-.51v-3.36h.51v-.94h.43v-.98h.51v-.51h.47v-.47h.94v-.51h.98v-.43h.94v-.51h1.45v-.47h1.92v-.47h2.85v-.43h.51v.43h2.38v-.43h1.4v-.51h.51v-.47h.47v-3.86h-.47v-.47h-.51v-.51h-.43v-.47h-.98v-.47h-3.83v.47h-.98v.47h-.94v.51h-.47v.47h-.51v1.45h-.43v.47h-.51v.51h-2.38v-.51h-.47v-.47h-.51v-2.43h.51v-.94h.98v-.47h.94v-.51h.94v-.47h.94v-.43h2.43v-.51ZM865.61,860.68h.51v-3.83h-.51v-.47h-6.64v.47h-1.49v.51h-.94v.47h-.94v.51h-.51v.43h-.43v.98h-.51v1.92h.51v.98h.94v.43h.94v.51h2.85v.47h.51v-.47h2.38v-.51h.98v-.43h.94v-.51h.98v-.47h.43v-.98Z"/>
    <path class="cls-3" d="M890.48,844.58h4.3v.51h.51v.43h.89v.51h.98v.47h.51v.43h.43v.51h.51v.98h.47v1.41h.51v13.41h.47v.51h2.43v.47h.89v2.43h-.89v.47h-3.88v-.47h-4.77v-.98h-.47v-.51h.47v-.43h.51v-.51h.43v-.47h.51v-.51h.47v-5.71h.43v-4.3h-.43v-2.43h-.47v-.98h-.51v-.43h-.43v-.51h-.51v-.47h-.98v-.51h-3.32v.51h-.98v.47h-1.4v.51h-.98v.43h-1.45v.98h-.47v4.3h-.51v5.32h.51v2.81h.47v.51h2.43v.47h.98v.51h.43v.43h.47v.51h-.47v.47h-.43v.51h-9.11v-.51h-.51v-.47h-.47v-.51h.47v-.94h.51v-.47h.94v-.51h.47v-14.35h-.47v-.47h-3.36v-.51h-.47v-1.41h.47v-.47h.94v-.51h2.43v-.43h2.85v.43h.51v.51h.43v.89h1.92v-.43h.51v-.47h.98v-.51h1.87v-.43h1.45v-.51Z"/>
    <path class="cls-3" d="M914.84,844.41h6.69v.51h.94v.43h.98v.47h.51v.51h.47v.47h.51v.94h.43v5.28h-.43v10.05h1.83v-.43h1.49v.43h.43v.51h.51v1.41h-.51v.51h-1.92v.47h-1.41v.51h-3.32v-.51h-.51v-.47h-.98v-.51h-.94v.51h-1.41v.47h-1.96v.51h-6.64v-.51h-.98v-.47h-.94v-.51h-.98v-.43h-.51v-.98h-.43v-.94h-.51v-3.36h.51v-.94h.43v-.98h.51v-.51h.47v-.47h.94v-.51h.98v-.43h.94v-.51h1.45v-.47h1.92v-.47h2.85v-.43h.51v.43h2.38v-.43h1.4v-.51h.51v-.47h.47v-3.86h-.47v-.47h-.51v-.51h-.43v-.47h-.98v-.47h-3.83v.47h-.98v.47h-.94v.51h-.47v.47h-.51v1.45h-.43v.47h-.51v.51h-2.38v-.51h-.47v-.47h-.51v-2.43h.51v-.94h.98v-.47h.94v-.51h.94v-.47h.94v-.43h2.43v-.51ZM920.55,860.68h.51v-3.83h-.51v-.47h-6.64v.47h-1.49v.51h-.94v.47h-.94v.51h-.51v.43h-.43v.98h-.51v1.92h.51v.98h.94v.43h.94v.51h2.85v.47h.51v-.47h2.38v-.51h.98v-.43h.94v-.51h.98v-.47h.43v-.98ZM916.33,839.52l2.34-1.36.21.34,3.24-1.92-.17-.34,1.83-1.06.17.34.25-.17.17.3.25-.13.89,1.62-.21.13.38.64-.94.55.21.34-7.2,4.22-.17-.34-.26.13-.17-.3-.26.13-1.11-1.92.21-.13-.17-.3.68-.43-.21-.34Z"/>
    <path class="cls-3" d="M940.14,844.03h2.38v.43h1.92v.51h3.88v.47h.43v.51h.51v1.87h.47v2.43h-.47v1.41h-.94v.51h-.51v-.51h-1.45v-.94h-.51v-.98h-.43v-1.41h-.47v-.51h-1.46v-.47h-5.3v.47h-.94v.51h-.47v.43h-.51v.98h-.43v1.49h.43v.94h.51v.47h.47v.51h1.41v.43h3.42v.46h2.87v.5h1.4v.46h.98v.5h.98v.42h.43v.5h.51v.46h.47v.55h.51v1.41h.43v3.32h-.43v.51h-.51v.47h-.47v1.02h-.51v.46h-.43v.46h-.98v.5h-.51v.46h-.98v.5h-2.82v.43h-4.36v-.43h-2.82v-.51h-.5v.51h-2.35v-.51h-.51v-.47h-.47v-.51h-.51v-1.92h-.43v-1.41h.43v-.51h-.43v-.89h.43v-.98h.51v-.51h1.92v.51h.47v.47h.51v1.41h.45v.94h.49v.51h.43v.47h.98v.53h.94v.49h5.3v-.49h.94v-.53h.98v-.47h.43v-.94h.51v-2.9h-.51v-.47h-.89v-.51h-1.45v-.43h-1.92v-.55h-3.79v-.47h-1.49v-.51h-.94v-.42h-.98v-.51h-.47v-.47h-.51v-.51h-.43v-.89h-.51v-.97h-.47v-2.42h.47v-1.4h.51v-.51h.43v-.47h.51v-.51h.47v-.43h.51v-.47h.47v-.51h.94v-.47h.98v-.51h2.85v-.43Z"/>
    <path class="cls-3" d="M568.03,896.74h6.69v.51h.94v.43h.98v.47h.51v.51h.9v.49h.52v.49h.43v.47h.52v.97h.47v.51h.52v.93h.47v1.4h.47v3.86h-.47v.42h-1.45v.51h-12.47v.47h-2.43v.51h-.43v1.41h.43v.98h.51v.94h.47v.47h.51v.51h.43v.47h.98v.51h.98v.43h1.92v.55h3.83v-.55h2.9v-.43h1.4v-.51h1.41v-.47h1.92v.48h.51v1.48h-.51v.45h-.43v.5h-.98v.41h-.98v.51h-1.92v.47h-1.92v.51h-2.38v.47h-4.77v-.47h-1.96v-.51h-1.41v-.47h-.94v-.51h-.51v-.41h-.47v-.5h-.94v-.45h-.47v-.94h-.51v-.51h-.47v-.98h-.51v-2.38h-.43v-4.3h.43v-2.38h.51v-.94h.47v-.98h.51v-.94h.47v-.51h.51v-.47h.43v-.98h.47v-.49h.51v-.49h.94v-.51h.98v-.47h.94v-.43h.98v-.51ZM577.15,904.45h.43v-.51h-.43v-.94h-.51v-.47h-.47v-.51h-.51v-.94h-.94v-.47h-.47v-.51h-1.49v-.47h-3.75v.47h-.98v.51h-.51v.47h-.47v.51h-.51v.43h-.43v.51h-.51v.47h-.47v.94h-.51v2.38h7.71v-.43h4.3v-.51h.51v-.94Z"/>
    <path class="cls-3" d="M610.58,897.46h5.3v.51h1.45v.45h1.45v.46h.94v.5h5.79v.47h.43v.98h.51v.51h-.51v.43h-.43v.51h-3.41v.47h-.47v.51h.47v3.79h-.47v.98h-.51v.94h-.43v.98h-.47v.51h-.51v.43h-.94v.51h-.98v.47h-1.41v.47h-4.3v.47h-.98v.43h-.51v.52h-.43v.47h-.51v.95h-.47v.52h.98v.47h7.15v.51h.47v-.51h2.9v.51h2.85v.43h.97v.51h.46v.47h.51v.51h.92v.47h.46v4.81h-.45v.94h-.49v.98h-.43v.43h-.51v.51h-.47v.47h-.98v.47h-.51v.51h-.94v.43h-1.4v.51h-1.41v.47h-2.48v.51h-3.76v-.51h-4.4v-.47h-1.41v-.51h-.94v-.43h-.95v-.51h-.45v-.47h-.51v-.98h-.43v-.43h-.51v-1.49h-.47v-1.92h.47v-1.41h.51v-.51h.43v-.89h.51v-.51h.45v-.47h.49v-.98h.47v-.51h-.47v-2.34h.47v-.98h.43v-.51h.51v-.43h.47v-.98h.51v-.47h-.51v-.51h-.47v-.43h-.51v-.51h-.43v-.98h-.47v-.43h-.49v-1.49h-.45v-4.3h.45v-1.41h.49v-.98h.47v-.51h.43v-.47h.98v-.5h.51v-.46h.94v-.45h1.41v-.51ZM623.05,923.87h.51v-2.9h-.51v-.51h-.43v-.47h-.98v-.43h-.94v-.51h-12.05v.51h-.43v.43h-.51v.47h-.47v.51h-.51v.94h-.43v2.38h.43v.98h.51v.51h.47v.43h.94v.51h2.44v.47h2.39v.47h.47v-.47h3.85v-.47h1.49v-.51h1.41v-.43h.94v-.51h.47v-.47h.51v-.51h.43v-.43ZM608.23,907.05h.44v.98h.53v.51h.48v.43h.51v.51h1.41v.47h4.3v-.47h.94v-.51h.98v-.94h.51v-.98h.47v-3.79h-.47v-.98h-.51v-.94h-.47v-.51h-.94v-.47h-.98v-.51h-3.83v.51h-.98v.47h-.94v.51h-.48v.94h-.53v.98h-.44v3.79Z"/>
    <path class="cls-3" d="M647.45,896.36h1.45v.43h1.92v.55h.98v.45h.43v.49h.51v2.38h-.51v.43h-.43v.51h-4.34v-.51h-1.45v-.43h-.43v.43h-1.92v.51h-.98v.47h-.94v.51h-.51v.47h-.47v.51h-.51v.43h-.47v.51h-.51v.47h-.43v10.05h.43v.47h.51v.51h7.2v.47h.47v.94h.51v.51h-.51v.47h-.47v.51h-4.81v-.51h-.43v.51h-10.09v-.51h-.43v-.47h-.51v-1.45h.51v-.47h2.34v-.51h.98v-.47h.47v-.94h.51v-7.71h-.51v-.89h.51v-.51h-.51v-3.88h-.47v-.43h-.98v-.51h-1.45v.51h-2.38v.43h-.43v-.94h-.51v-1.87h.51v-.49h2.81v-.45h2.89v-.55h2.43v.98h.43v.51h.51v1.41h.47v.98h.94v-.51h.98v-.47h.47v-.51h.51v-.43h.94v-.47h.98v-.49h.94v-.45h.98v-.55h1.88v-.43Z"/>
    <path class="cls-3" d="M663.27,896.44h3.33v.43h2.39v.53h1.45v.45h1.41v.51h.47v.47h.51v.43h.43v.51h.51v.47h.47v.98h.51v.51h.47v.94h.47v.98h.45v2.38h.53v3.32h-.53v1.49h-.45v2.34h-.47v.98h-.47v.47h-.51v.51h-.47v.43h-.51v.51h-.43v.47h-.98v.51h-.51v.43h-.43v.51h-.98v.47h-.94v.51h-1.96v.47h-4.74v-.47h-1.5v-.51h-1.41v-.47h-.94v-.51h-.5v-.43h-.97v-.51h-.42v-.47h-.46v-.51h-.5v-.94h-.46v-.98h-.51v-1.41h-.43v-.98h-.51v-6.22h.51v-1.41h.43v-.98h.51v-.94h.47v-.51h.51v-.98h.47v-.47h.94v-.51h.45v-.43h.49v-.47h.94v-.51h.98v-.45h.94v-.53h1.96v-.43ZM672.32,909.35h.51v-2.38h-.51v-1.92h-.47v-.98h-.51v-.43h-.43v-1.49h-.47v-.43h-.51v-.51h-.43v-.47h-.98v-.51h-.98v-.47h-5.77v.47h-.98v.51h-.43v.47h-.51v.51h-.47v.43h-.51v.98h-.43v1.45h-.49v1.87h-.45v3.41h.45v1.92h.49v.47h.43v.94h.51v.47h.47v.51h.51v.47h.43v.51h.51v.43h.98v.51h1.41v.47h2.91v-.47h1.41v-.51h.98v-.43h.94v-.51h.51v-.47h.47v-.98h.43v-.94h.51v-.98h.47v-1.92Z"/>
    <path class="cls-3" d="M687.61,896.36h2.38v.43h1.92v.51h3.88v.47h.43v.51h.51v1.87h.47v2.43h-.47v1.41h-.94v.51h-.51v-.51h-1.45v-.94h-.51v-.98h-.43v-1.41h-.47v-.51h-1.45v-.47h-5.31v.47h-.94v.51h-.47v.43h-.51v.98h-.43v1.49h.43v.94h.51v.47h.47v.51h1.41v.43h3.42v.46h2.87v.5h1.41v.46h.98v.5h.98v.42h.43v.5h.51v.46h.47v.55h.51v1.41h.43v3.32h-.43v.51h-.51v.47h-.47v1.02h-.51v.46h-.43v.46h-.98v.5h-.51v.46h-.98v.5h-2.82v.43h-4.36v-.43h-2.82v-.51h-.5v.51h-2.35v-.51h-.51v-.47h-.47v-.51h-.51v-1.92h-.43v-1.41h.43v-.51h-.43v-.89h.43v-.98h.51v-.51h1.92v.51h.47v.47h.51v1.41h.45v.94h.49v.51h.43v.47h.98v.53h.94v.49h5.3v-.49h.94v-.53h.98v-.47h.43v-.94h.51v-2.9h-.51v-.47h-.89v-.51h-1.45v-.43h-1.92v-.55h-3.79v-.47h-1.49v-.51h-.94v-.42h-.98v-.51h-.47v-.47h-.51v-.51h-.43v-.89h-.51v-.97h-.47v-2.42h.47v-1.4h.51v-.51h.43v-.47h.51v-.51h.47v-.43h.51v-.47h.47v-.51h.94v-.47h.98v-.51h2.85v-.43Z"/>
    <path class="cls-3" d="M708.14,896.74h6.69v.51h.94v.43h.98v.47h.51v.51h.9v.49h.52v.49h.43v.47h.52v.97h.47v.51h.52v.93h.47v1.4h.47v3.86h-.47v.42h-1.45v.51h-12.47v.47h-2.43v.51h-.43v1.41h.43v.98h.51v.94h.47v.47h.51v.51h.43v.47h.98v.51h.98v.43h1.92v.55h3.83v-.55h2.9v-.43h1.4v-.51h1.41v-.47h1.92v.48h.51v1.48h-.51v.45h-.43v.5h-.98v.41h-.98v.51h-1.92v.47h-1.92v.51h-2.38v.47h-4.77v-.47h-1.96v-.51h-1.41v-.47h-.94v-.51h-.51v-.41h-.47v-.5h-.94v-.45h-.47v-.94h-.51v-.51h-.47v-.98h-.51v-2.38h-.43v-4.3h.43v-2.38h.51v-.94h.47v-.98h.51v-.94h.47v-.51h.51v-.47h.43v-.98h.47v-.49h.51v-.49h.94v-.51h.98v-.47h.94v-.43h.98v-.51ZM717.25,904.45h.43v-.51h-.43v-.94h-.51v-.47h-.47v-.51h-.51v-.94h-.94v-.47h-.47v-.51h-1.49v-.47h-3.75v.47h-.98v.51h-.51v.47h-.47v.51h-.51v.43h-.43v.51h-.51v.47h-.47v.94h-.51v2.38h7.71v-.43h4.3v-.51h.51v-.94Z"/>
    <path class="cls-3" d="M732.54,886.39h2.81v.43h.51v3.83h.43v.51h-.43v10.99h-.51v5.28h.51v3.41h-.51v3.79h.51v.94h.94v.51h6.22v.47h.98v.51h.47v.43h.51v.51h-.51v.98h-1.45v.47h-2.43v-.47h-8.05v.47h-1.96v-.47h-5.24v-1.92h.47v-.51h.43v-.47h4.81v-.51h.51v-.43h.47v-2.9h-.47v-1.41h.47v-20.18h-.47v-.43h-3.41v.43h-3.32v-.43h-.47v-1.92h.47v-.51h1.92v-.47h3.32v-.51h2.47v-.43Z"/>
    <path class="cls-3" d="M756.43,896.74h6.69v.51h.94v.43h.98v.47h.51v.51h.47v.47h.51v.94h.43v5.28h-.43v10.05h1.83v-.43h1.49v.43h.43v.51h.51v1.41h-.51v.51h-1.92v.47h-1.41v.51h-3.32v-.51h-.51v-.47h-.98v-.51h-.94v.51h-1.41v.47h-1.96v.51h-6.64v-.51h-.98v-.47h-.94v-.51h-.98v-.43h-.51v-.98h-.43v-.94h-.51v-3.36h.51v-.94h.43v-.98h.51v-.51h.47v-.47h.94v-.51h.98v-.43h.94v-.51h1.45v-.47h1.92v-.47h2.85v-.43h.51v.43h2.38v-.43h1.4v-.51h.51v-.47h.47v-3.86h-.47v-.47h-.51v-.51h-.43v-.47h-.98v-.47h-3.83v.47h-.98v.47h-.94v.51h-.47v.47h-.51v1.45h-.43v.47h-.51v.51h-2.38v-.51h-.47v-.47h-.51v-2.43h.51v-.94h.98v-.47h.94v-.51h.94v-.47h.94v-.43h2.43v-.51ZM762.13,913.01h.51v-3.83h-.51v-.47h-6.64v.47h-1.49v.51h-.94v.47h-.94v.51h-.51v.43h-.43v.98h-.51v1.92h.51v.98h.94v.43h.94v.51h2.85v.47h.51v-.47h2.38v-.51h.98v-.43h.94v-.51h.98v-.47h.43v-.98Z"/>
    <path class="cls-3" d="M781.72,896.36h2.38v.43h1.92v.51h3.88v.47h.43v.51h.51v1.87h.47v2.43h-.47v1.41h-.94v.51h-.51v-.51h-1.45v-.94h-.51v-.98h-.43v-1.41h-.47v-.51h-1.46v-.47h-5.3v.47h-.94v.51h-.47v.43h-.51v.98h-.43v1.49h.43v.94h.51v.47h.47v.51h1.41v.43h3.42v.46h2.87v.5h1.4v.46h.98v.5h.98v.42h.43v.5h.51v.46h.47v.55h.51v1.41h.43v3.32h-.43v.51h-.51v.47h-.47v1.02h-.51v.46h-.43v.46h-.98v.5h-.51v.46h-.98v.5h-2.82v.43h-4.36v-.43h-2.82v-.51h-.5v.51h-2.35v-.51h-.51v-.47h-.47v-.51h-.51v-1.92h-.43v-1.41h.43v-.51h-.43v-.89h.43v-.98h.51v-.51h1.92v.51h.47v.47h.51v1.41h.45v.94h.49v.51h.43v.47h.98v.53h.94v.49h5.3v-.49h.94v-.53h.98v-.47h.43v-.94h.51v-2.9h-.51v-.47h-.89v-.51h-1.45v-.43h-1.92v-.55h-3.79v-.47h-1.49v-.51h-.94v-.42h-.98v-.51h-.47v-.47h-.51v-.51h-.43v-.89h-.51v-.97h-.47v-2.42h.47v-1.4h.51v-.51h.43v-.47h.51v-.51h.47v-.43h.51v-.47h.47v-.51h.94v-.47h.98v-.51h2.85v-.43Z"/>
  </g>
  <path class="cls-2" d="M667.35,381.28c.29,2.69.81,5.38.83,8.07.14,18.51-.37,37.05.41,55.54.77,18.37,2.31,36.71,8.44,54.38,2.74,7.9,7.63,11.92,15.61,13.17,3.99.62,7.86,1.98,12.18,3.11-1.24,6.09-3.16,10.3-7.22,13.83-11.15,9.7-18.34,22.09-21.2,36.42-2.57,12.85-3.86,25.98-5.23,39.04-.88,8.33-.85,16.76-1.36,25.14-.07,1.23-.83,2.43-1.98,5.56-1.86-3.14-3.39-4.7-3.76-6.5-4.82-23.25-9.64-46.51-14.13-69.83-3.83-19.9-14.99-33.91-33.11-42.51-2.43-1.15-5.31-1.34-9.22-2.27,1.05-4.03,2.04-7.81,2.63-10.08,9.52-3.38,17.7-5.77,25.36-9.26,2.96-1.35,5.78-4.86,6.93-8.01,3.63-9.94,6.88-20.07,9.47-30.33,5.1-20.17,6.96-40.78,6.72-61.55-.07-6.09,2.5-10.5,6.31-14.47.77.18,1.54.36,2.32.55ZM633.21,510.12c1.15,1.22,2.1,2.18,2.99,3.2,9.24,10.66,17.24,21.59,18.81,36.61,1.67,16.04,5.31,31.88,8.09,47.81,3.95-12.62,5.53-25.46,9.53-37.49,4.08-12.24,10.55-23.69,16.27-36.13-14.96-.78-20.22-11.37-22.74-23.94-2.31-11.48-3.79-23.13-5.64-34.71-.28-1.76-.58-3.51-.87-5.26-3.04,5.36-4.48,10.99-6.73,16.28-3.05,7.19-7.2,13.94-9.96,21.22-1.97,5.22-4.52,9.49-9.75,12.41Z"/>
  <path class="cls-2" d="M712.21,307.43c-1.11,2.57-1.79,4.12-2.46,5.68-.21-.06-.43-.12-.64-.18.94-5.1,1.89-10.2,2.83-15.3-5.33,5.01-7.07,11.91-11.05,17.53-.56-3.28,1.47-5.72,2.63-8.41,1.23-2.84,2.64-5.61,4.23-8.96-4.75,1.22-8.84,3.59-13.62,2.11-.19-.85-.4-1.8-.64-2.89-3.21-.17-6.3-.34-9.35-.5-.54-2.87,1.12-3.32,3.06-3.52,5.04-.52,10.07-1.05,15.1-1.6.85-.09,1.69-.29,3.46-.61-2.93-1.99-5.25-3.45-7.44-5.09-1.43-1.07-2.95-2.33-1.04-4.45,3.28,1.55,6.57,3.11,9.93,4.71,1.05-5.32-4.57-9.62-1.17-15.12,2.84,2.37,1.94,6.24,4.52,9.23.32-1.86.8-3.32.78-4.76-.15-8.63-.38-17.26-.67-25.88-.18-5.36-.53-10.72-.74-16.08-.06-1.4.12-2.8.77-4.24,2.22,3.84,1.56,8.16,2.18,12.22.67,4.39.72,8.89.91,13.35.19,4.32.18,8.65.33,12.98.14,4.14.37,8.28.57,12.41.36.03.72.05,1.08.08.71-2.86,1.42-5.72,2.13-8.58.24.05.49.11.73.16-.11,1.44-.15,2.89-.35,4.31-.2,1.43-.54,2.84-.98,5.03,3.93-2.33,4.82-6.35,8.36-8.08-1.93,3.17-3.86,6.34-5.79,9.51l.39.5c3.06-2.03,6.12-4.06,9.18-6.09.25.27.5.54.75.8-.97,5.04-6.47,6.57-9.69,11.14,8.77-1.09,16.5-2.54,23.66-6.38.82,3.68.3,5.64-2.52,6.83-3.53,1.49-7.26,2.53-10.97,3.54-2.43.66-4.96.93-7.69,1.42.47,2.43,2.76,3.06,4.1,4.45,2.79,2.9,2.94,3.16.73,7.66-3.39-2.69-6.71-5.32-10.64-8.44.52,3.94,1.07,7,1.26,10.08.09,1.54.88,3.75-1.95,4.16-.23.03-.44,1.29-.39,1.95.64,9.45,1.4,18.88,1.96,28.33.15,2.61-.26,5.26-.85,7.9-2.2-6.77-1.74-13.86-2.63-20.77-.91-7-1.53-14.03-2.39-22.14Z"/>
  <g>
    <path class="cls-4" d="M268.39,1615.16h3.83v.96h8.88v.91h2.87v1.09h2v.96h.87v1.04h1.04v.87h2v.96h.96v1.04h1.04v2h.87v.87h1.04v3.05h.96v2.87h1.04v5.92h.87v.87h-.87v4.87h-1.04v4.89h-.96v2.97h-1.04v4.98h-.87v7.86h.87v1.83h2v1.04h1.91v.96h1.04v3.92h-1.92v1.04h-4.96v-1.04h-2v-.96h-.96v-1.04h-2.87v1.04h-1.04v.96h-2.87v1.04h-1.04v.96h-7.83v-.96h-2.87v-1.04h-2v-.96h-.87v-1.04h-1.04v-.87h-.96v-1.04h-1.04v-.96h-.96v-1.92h-1.04v-4.89h-.87v-3.06h.87v-4.89h1.04v-3.93h.96v-1.92h1.04v-2.01h.96v-.96h1.04v-.94h.87v-.94h1.04v-1.03h.96v-.94h2.87v-1.03h2.96v-.87h5.92v.87h3.92v1.04h3.83v-1.04h1.04v-.87h-1.04v-7.92h-.96v-1.92h-1.04v-.96h-.87v-1.04h-.96v-.87h-1.04v-1.04h-1.91v-.96h-2.87v-1.04h-3.05v-.96h-7.75v.96h-3.92v1.04h-2v.95h-1.92v1.04h-1.04v.87h-.96v1.04h-1.04v.95h-.87v1.04h-.96v.87h-1.04v1.99h-.87v1.99h-1.04v1.91h-.96v1.99h-1.04v1.91h-.96v3.9h-1.04v11.79h-.87v6.9h.87v5.85h1.04v3.92h.96v3.92h1.04v2h.96v1.92h1.04v.96h.87v2h1.04v1.04h.96v.87h.87v1.04h1.04v.96h.96v1.04h1.92v.87h1.04v1.04h.96v.96h2v1.04h1.92v.96h3.05v1.04h21.5v3.74h-1.04v1.04h-4v.96h-7.66v1.04h-2v-1.04h-5.92v-.96h-3.92v-1.04h-2.87v-.87h-2v-1.04h-1.04v-.96h-1.92v-.87h-.96v-1.04h-1.92v-.96h-.96v-1.04h-1.04v-.96h-.87v-1.04h-1.04v-.87h-.96v-1.04h-1.04v-.96h-.96v-1.91h-1.04v-1.04h-.87v-2h-1.04v-2.87h-.96v-2h-1.04v-4.87h-.87v-5.83h-1.04v-19.58h1.04v-3.92h.87v-3.92h1.04v-2h.96v-2.87h1.04v-2h.87v-1.91h1.04v-1.04h.96v-.96h1.04v-1.92h.96v-1.04h1.04v-.96h.87v-1.04h1.04v-.96h.96v-.87h1.92v-1.04h.96v-.96h1.92v-1.09h3.05v-.91h3.92v-.96ZM286.84,1652.27h1.04v-2.88h-1.04v-1.92h-.87v-1.05h-.96v-.96h-1.04v-1.05h-.87v-.96h-3.05v-.96h-2.87v.96h-3.05v.96h-.87v1.05h-2v.96h-.87v1.05h-1.04v.88h-.96v2.01h-1.04v2.88h-.87v6.99h.87v2.88h1.04v2.01h.96v.87h1.04v1.04h.87v.96h8.79v-.96h2v-1.04h1.91v-1.83h1.04v-1.05h.96v-4.89h.87v-5.94Z"/>
    <path class="cls-4" d="M320.17,1638.74h12.71v1.04h2.87v.89h1.92v.97h1.04v1.06h.96v.97h.87v.98h1.04v1.99h.96v4.84h1.04v1.9h-1.04v1.99h-.96v.95h-4.79v-.95h-2v-1.99h-1.04v-5.79h-.87v-.95h-1.04v-1.04h-2.96v-.95h-7.83v.95h-1.91v1.04h-2v.95h-.96v1.04h-1.04v.86h-.87v1.04h-1.04v.95h-.96v1.9h-1.04v2.94h-.87v10.88h.87v2.87h1.04v.87h.96v2h1.04v1.04h.87v.96h2v1.04h2v.87h4.96v1.13h5.74v-1.13h5.92v-.87h1.92v-1.04h2.87v-.96h5.05v.98h.87v3.02h-.87v.93h-1.04v1.01h-2v.84h-2.87v1.04h-2v.96h-4.79v1.04h-3.05v.96h-11.66v-.96h-3.92v-1.04h-3.05v-.96h-.87v-1.04h-.96v-.84h-1.04v-1.01h-.87v-.93h-1.04v-1.13h-.96v-1.91h-1.04v-2h-.96v-2.87h-1.04v-2.86h-.87v-6.94h.87v-5.81h1.04v-1.91h.96v-2h1.04v-1.91h.96v-1.04h1.04v-.96h.87v-1.04h1.04v-.96h.96v-.98h.87v-.97h2v-1.06h1.04v-.97h2.87v-.89h3.05v-1.04Z"/>
    <path class="cls-4" d="M369.87,1638.74h13.66v1.04h1.92v.87h2v.96h1.04v1.04h.96v.96h1.04v1.92h.87v10.79h-.87v20.54h3.74v-.87h3.05v.87h.87v1.04h1.04v2.87h-1.04v1.04h-3.92v.96h-2.87v1.04h-6.79v-1.04h-1.04v-.96h-2v-1.04h-1.91v1.04h-2.87v.96h-4v1.04h-13.58v-1.04h-2v-.96h-1.92v-1.04h-2v-.87h-1.04v-2h-.87v-1.91h-1.04v-6.88h1.04v-1.92h.87v-2h1.04v-1.04h.96v-.96h1.92v-1.04h2v-.87h1.92v-1.04h2.96v-.96h3.92v-.96h5.83v-.87h1.04v.87h4.87v-.88h2.87v-1.05h1.04v-.96h.96v-7.88h-.96v-.96h-1.04v-1.05h-.87v-.96h-2v-.96h-7.83v.96h-2v.96h-1.92v1.04h-.96v.96h-1.04v2.96h-.87v.96h-1.04v1.04h-4.87v-1.04h-.96v-.96h-1.04v-4.96h1.04v-1.92h2v-.96h1.92v-1.04h1.92v-.96h1.92v-.87h4.96v-1.04ZM381.53,1671.99h1.04v-7.83h-1.04v-.96h-13.58v.96h-3.05v1.04h-1.92v.96h-1.92v1.04h-1.04v.87h-.87v2h-1.04v3.92h1.04v2h1.92v.87h1.92v1.04h5.83v.96h1.04v-.96h4.87v-1.04h2v-.87h1.92v-1.04h2v-.96h.87v-2Z"/>
    <path class="cls-4" d="M429.32,1616.81h7.83v.87h10.79v1.04h1.04v.96h.87v1.04h-.87v3.92h-2v.96h-1.04v1.04h-6.79v-1.04h-4.87v-.96h-7.83v.96h-2v1.04h-.87v.87h-1.04v2h-.96v9.83h.96v.87h1.04v1.04h15.58v-1.04h3.92v1.04h2v3.83h-1.04v1.04h-2.87v.96h-1.04v-.96h-15.67v.96h-1.92v28.46h1.04v1.92h.87v.96h10.79v1.04h2.96v-1.04h1.92v1.04h1.91v3.92h-.87v.96h-4v1.04h-.87v-1.04h-32.38v-.96h-.87v-3.05h.87v-.87h2v-1.04h6.79v-.96h2v-1.04h1.04v-28.29h-1.04v-1.04h-2v-.96h-6.79v-1.04h-.96v-.87h-1.04v-1.04h1.04v-1.92h2v-1.04h6.79v-.87h.96v-7.92h1.04v-3.92h.87v-1.92h1.04v-2h.96v-.96h1.04v-1.04h.87v-.87h2v-1.04h1.04v-.96h1.83v-1.04h3.92v-.87Z"/>
    <path class="cls-4" d="M463.17,1638.74h13.67v1.04h1.92v.87h2v.96h1.04v1.04h1.85v1h1.06v1h.88v.95h1.06v1.99h.97v1.04h1.06v1.91h.97v2.86h.96v7.88h-.96v.87h-2.97v1.04h-25.48v.96h-4.97v1.04h-.87v2.87h.87v2h1.04v1.92h.96v.96h1.04v1.04h.87v.96h2v1.04h2v.87h3.92v1.13h7.83v-1.13h5.92v-.87h2.87v-1.04h2.87v-.96h3.92v.98h1.04v3.02h-1.04v.93h-.87v1.01h-2v.84h-2v1.04h-3.92v.96h-3.92v1.04h-4.87v.96h-9.75v-.96h-4v-1.04h-2.87v-.96h-1.92v-1.04h-1.04v-.84h-.96v-1.01h-1.91v-.93h-.96v-1.91h-1.04v-1.04h-.96v-2h-1.04v-4.87h-.87v-8.79h.87v-4.87h1.04v-1.92h.96v-2h1.04v-1.91h.96v-1.04h1.04v-.96h.87v-2h.96v-1h1.04v-1h1.92v-1.04h2v-.96h1.92v-.87h2v-1.04ZM481.8,1654.5h.87v-1.04h-.87v-1.91h-1.04v-.96h-.96v-1.04h-1.04v-1.92h-1.92v-.96h-.96v-1.04h-3.05v-.96h-7.66v.96h-2v1.04h-1.04v.96h-.96v1.04h-1.04v.87h-.87v1.04h-1.04v.96h-.96v1.91h-1.04v4.87h15.75v-.87h8.79v-1.04h1.04v-1.92Z"/>
    <path class="cls-4" d="M515.92,1638.74h13.66v1.04h1.92v.87h2v.96h1.04v1.04h.96v.96h1.04v1.92h.87v10.79h-.87v20.54h3.74v-.87h3.05v.87h.87v1.04h1.04v2.87h-1.04v1.04h-3.92v.96h-2.87v1.04h-6.79v-1.04h-1.04v-.96h-2v-1.04h-1.91v1.04h-2.87v.96h-4v1.04h-13.58v-1.04h-2v-.96h-1.92v-1.04h-2v-.87h-1.04v-2h-.87v-1.91h-1.04v-6.88h1.04v-1.92h.87v-2h1.04v-1.04h.96v-.96h1.92v-1.04h2v-.87h1.92v-1.04h2.96v-.96h3.92v-.96h5.83v-.87h1.04v.87h4.87v-.88h2.87v-1.05h1.04v-.96h.96v-7.88h-.96v-.96h-1.04v-1.05h-.87v-.96h-2v-.96h-7.83v.96h-2v.96h-1.92v1.04h-.96v.96h-1.04v2.96h-.87v.96h-1.04v1.04h-4.87v-1.04h-.96v-.96h-1.04v-4.96h1.04v-1.92h2v-.96h1.92v-1.04h1.92v-.96h1.92v-.87h4.96v-1.04ZM527.58,1671.99h1.04v-7.83h-1.04v-.96h-13.58v.96h-3.05v1.04h-1.92v.96h-1.92v1.04h-1.04v.87h-.87v2h-1.04v3.92h1.04v2h1.92v.87h1.92v1.04h5.83v.96h1.04v-.96h4.87v-1.04h2v-.87h1.92v-1.04h2v-.96h.87v-2Z"/>
    <path class="cls-4" d="M587.2,1637.96h2.96v.87h3.92v1.13h2v.92h.87v1h1.04v4.87h-1.04v.87h-.87v1.04h-8.88v-1.04h-2.96v-.87h-.87v.87h-3.92v1.04h-2v.96h-1.92v1.04h-1.04v.96h-.96v1.04h-1.04v.87h-.96v1.04h-1.04v.96h-.87v20.54h.87v.96h1.04v1.04h14.71v.96h.96v1.92h1.04v1.04h-1.04v.96h-.96v1.04h-9.83v-1.04h-.87v1.04h-20.63v-1.04h-.87v-.96h-1.04v-2.96h1.04v-.96h4.79v-1.04h2v-.96h.96v-1.92h1.04v-15.75h-1.04v-1.83h1.04v-1.04h-1.04v-7.92h-.96v-.87h-2v-1.04h-2.96v1.04h-4.87v.87h-.87v-1.92h-1.04v-3.83h1.04v-1h5.74v-.92h5.92v-1.13h4.96v2h.87v1.04h1.04v2.87h.96v2h1.92v-1.04h2v-.96h.96v-1.04h1.04v-.87h1.92v-.96h2v-1h1.92v-.92h2v-1.13h3.83v-.87Z"/>
    <path class="cls-4" d="M612.58,1629h3.86v1.04h.96v2h1.04v.96h-1.04v5.83h1.04v.96h3.92v.96h1.92v-.96h15.58v-.96h1.04v.96h.96v.97h1.04v3.97h-2v.97h-5.83v-.96h-1.04v.96h-17.58v7.86h-.96v22.61h.96v.9h.96v.98h1.04v.9h9.75v-.9h6.88v-.98h2.87v-.9h4.96v.95h2v2.92h-1.04v.95h-2v1.03h-2v.95h-2.87v1.04h-4.96v.87h-8.79v1.04h-4.79v-1.04h-2.96v-.87h-1.92v-1.04h-2v-2h-1.04v-.96h-.83v-1.91h-1v-22.54h1.04v-8.79h-2v-1.04h-4.96v-.97h-.96v-2.91h.96v-1.06h5.92v-.97h1v-1.9h.83l.09-7.86h1.97v-1.04Z"/>
    <path class="cls-4" d="M665.44,1638.74h13.67v1.04h1.92v.87h2v.96h1.04v1.04h1.85v1h1.06v1h.88v.95h1.06v1.99h.97v1.04h1.06v1.91h.97v2.86h.96v7.88h-.96v.87h-2.97v1.04h-25.48v.96h-4.97v1.04h-.87v2.87h.87v2h1.04v1.92h.96v.96h1.04v1.04h.87v.96h2v1.04h2v.87h3.92v1.13h7.83v-1.13h5.92v-.87h2.87v-1.04h2.87v-.96h3.92v.98h1.04v3.02h-1.04v.93h-.87v1.01h-2v.84h-2v1.04h-3.92v.96h-3.92v1.04h-4.87v.96h-9.75v-.96h-4v-1.04h-2.87v-.96h-1.92v-1.04h-1.04v-.84h-.96v-1.01h-1.91v-.93h-.96v-1.91h-1.04v-1.04h-.96v-2h-1.04v-4.87h-.87v-8.79h.87v-4.87h1.04v-1.92h.96v-2h1.04v-1.91h.96v-1.04h1.04v-.96h.87v-2h.96v-1h1.04v-1h1.92v-1.04h2v-.96h1.92v-.87h2v-1.04ZM684.07,1654.5h.87v-1.04h-.87v-1.91h-1.04v-.96h-.96v-1.04h-1.04v-1.92h-1.92v-.96h-.96v-1.04h-3.05v-.96h-7.66v.96h-2v1.04h-1.04v.96h-.96v1.04h-1.04v.87h-.87v1.04h-1.04v.96h-.96v1.91h-1.04v4.87h15.75v-.87h8.79v-1.04h1.04v-1.92Z"/>
    <path class="cls-4" d="M704.96,1617.25h5.92v.87h.96v2h1.04v1.04h-1.04v9.66h-.96v9.83h.96v.96h2.96v-.96h4.87v-.87h9.83v.87h2.87v.96h2v1.04h1.04v.96h1.94v.96h.97v.96h.88v1.04h1.06v2h.97v.87h1.06v2h.88v1.91h1v5.92h.92v6.88h-.92v3.92h-1v2.87h-.88v2h-1.06v1.04h-.97v.87h-1.06v1.04h-.88v.96h-.97v1.04h-1.06v.87h-1.93v1.04h-.96v.96h-3.05v1.04h-2.87v.96h-12.71v-.96h-5.83v.96h-4.87v-.96h-1.04v-19.67h1.04v-36.21h-1.04v-1.92h-.96v-.96h-5.83v-1.04h-1.04v-.96h-.96v-1.04h.96v-1.92h1.92v-.96h4.96v-1.04h2.87v-.87ZM736.29,1662.16h1.04v-2.87h-1.04v-2.96h-.87v-1.92h-1.04v-1.92h-.96v-1.04h-1.04v-.96h-.96v-1.04h-1.04v-.87h-.87v-1.04h-3.05v-.96h-10.71v.96h-2v1.04h-1.91v1.91h-.96v24.46h.96v1.04h1.04v.87h.87v1.04h3.92v.96h7.92v-.96h1.92v-1.04h2v-.87h.87v-1.04h2v-2h1.04v-.96h.96v-1.92h1.04v-2h.87v-5.92Z"/>
    <path class="cls-4" d="M765.53,1638.74h13.67v1.04h1.92v.87h2v.96h1.04v1.04h1.85v1h1.06v1h.88v.95h1.06v1.99h.97v1.04h1.06v1.91h.97v2.86h.96v7.88h-.96v.87h-2.97v1.04h-25.48v.96h-4.97v1.04h-.87v2.87h.87v2h1.04v1.92h.96v.96h1.04v1.04h.87v.96h2v1.04h2v.87h3.92v1.13h7.83v-1.13h5.92v-.87h2.87v-1.04h2.87v-.96h3.92v.98h1.04v3.02h-1.04v.93h-.87v1.01h-2v.84h-2v1.04h-3.92v.96h-3.92v1.04h-4.87v.96h-9.75v-.96h-4v-1.04h-2.87v-.96h-1.92v-1.04h-1.04v-.84h-.96v-1.01h-1.91v-.93h-.96v-1.91h-1.04v-1.04h-.96v-2h-1.04v-4.87h-.87v-8.79h.87v-4.87h1.04v-1.92h.96v-2h1.04v-1.91h.96v-1.04h1.04v-.96h.87v-2h.96v-1h1.04v-1h1.92v-1.04h2v-.96h1.92v-.87h2v-1.04ZM784.16,1654.5h.87v-1.04h-.87v-1.91h-1.04v-.96h-.96v-1.04h-1.04v-1.92h-1.92v-.96h-.96v-1.04h-3.05v-.96h-7.66v.96h-2v1.04h-1.04v.96h-.96v1.04h-1.04v.87h-.87v1.04h-1.04v.96h-.96v1.91h-1.04v4.87h15.75v-.87h8.79v-1.04h1.04v-1.92Z"/>
    <path class="cls-4" d="M824.98,1616.81h7.83v.87h10.79v1.04h1.04v.96h.87v1.04h-.87v3.92h-2v.96h-1.04v1.04h-6.79v-1.04h-4.87v-.96h-7.83v.96h-2v1.04h-.87v.87h-1.04v2h-.96v9.83h.96v.87h1.04v1.04h15.58v-1.04h3.92v1.04h2v3.83h-1.04v1.04h-2.87v.96h-1.04v-.96h-15.67v.96h-1.92v28.46h1.04v1.92h.87v.96h10.79v1.04h2.96v-1.04h1.92v1.04h1.91v3.92h-.87v.96h-4v1.04h-.87v-1.04h-32.38v-.96h-.87v-3.05h.87v-.87h2v-1.04h6.79v-.96h2v-1.04h1.04v-28.29h-1.04v-1.04h-2v-.96h-6.79v-1.04h-.96v-.87h-1.04v-1.04h1.04v-1.92h2v-1.04h6.79v-.87h.96v-7.92h1.04v-3.92h.87v-1.92h1.04v-2h.96v-.96h1.04v-1.04h.87v-.87h2v-1.04h1.04v-.96h1.83v-1.04h3.92v-.87Z"/>
  </g>
  <circle class="cls-4" cx="399.65" cy="1736.37" r="12.8"/>
</svg>