<?xml version="1.0" encoding="UTF-8"?>
<svg id="Camada_1" xmlns="http://www.w3.org/2000/svg" viewBox="0 0 1080 1920">
  <defs>
    <style>
      .cls-1 {
        fill: #f1bf66;
      }

      .cls-2 {
        fill: #252856;
      }

      .cls-3 {
        fill: #1d1d1b;
      }

      .cls-4 {
        fill: #f3efe9;
      }
    </style>
  </defs>
  <g>
    <rect class="cls-2" x="5.51" y="-1.28" width="1077.25" height="1920"/>
    <path class="cls-3" d="M1083.26,1919.22H5.01V-1.78h1078.25v1921ZM6.01,1918.22h1076.25V-.78H6.01v1919Z"/>
  </g>
  <g>
    <path class="cls-4" d="M240.94,155.81h3.83v.96h8.88v.91h2.87v1.09h2v.96h.87v1.04h1.04v.87h2v.96h.96v1.04h1.04v2h.87v.87h1.04v3.05h.96v2.87h1.04v5.92h.87v.87h-.87v4.87h-1.04v4.89h-.96v2.97h-1.04v4.98h-.87v7.86h.87v1.83h2v1.04h1.91v.96h1.04v3.92h-1.92v1.04h-4.96v-1.04h-2v-.96h-.96v-1.04h-2.87v1.04h-1.04v.96h-2.87v1.04h-1.04v.96h-7.83v-.96h-2.87v-1.04h-2v-.96h-.87v-1.04h-1.04v-.87h-.96v-1.04h-1.04v-.96h-.96v-1.92h-1.04v-4.89h-.87v-3.06h.87v-4.89h1.04v-3.93h.96v-1.92h1.04v-2.01h.96v-.96h1.04v-.94h.87v-.94h1.04v-1.03h.96v-.94h2.87v-1.03h2.96v-.87h5.92v.87h3.92v1.04h3.83v-1.04h1.04v-.87h-1.04v-7.92h-.96v-1.91h-1.04v-.96h-.87v-1.04h-.96v-.87h-1.04v-1.04h-1.91v-.96h-2.87v-1.04h-3.05v-.96h-7.75v.96h-3.92v1.04h-2v.95h-1.92v1.04h-1.04v.87h-.96v1.04h-1.04v.95h-.87v1.04h-.96v.87h-1.04v1.99h-.87v1.99h-1.04v1.91h-.96v1.99h-1.04v1.91h-.96v3.9h-1.04v11.79h-.87v6.9h.87v5.85h1.04v3.92h.96v3.92h1.04v2h.96v1.91h1.04v.96h.87v2h1.04v1.04h.96v.87h.87v1.04h1.04v.96h.96v1.04h1.92v.87h1.04v1.04h.96v.96h2v1.04h1.92v.96h3.05v1.04h21.5v3.74h-1.04v1.04h-4v.96h-7.66v1.04h-2v-1.04h-5.92v-.96h-3.92v-1.04h-2.87v-.87h-2v-1.04h-1.04v-.96h-1.92v-.87h-.96v-1.04h-1.92v-.96h-.96v-1.04h-1.04v-.96h-.87v-1.04h-1.04v-.87h-.96v-1.04h-1.04v-.96h-.96v-1.91h-1.04v-1.04h-.87v-2h-1.04v-2.87h-.96v-2h-1.04v-4.87h-.87v-5.83h-1.04v-19.58h1.04v-3.92h.87v-3.92h1.04v-2h.96v-2.87h1.04v-2h.87v-1.91h1.04v-1.04h.96v-.96h1.04v-1.92h.96v-1.04h1.04v-.96h.87v-1.04h1.04v-.96h.96v-.87h1.92v-1.04h.96v-.96h1.92v-1.09h3.05v-.91h3.92v-.96ZM259.39,192.92h1.04v-2.88h-1.04v-1.92h-.87v-1.05h-.96v-.96h-1.04v-1.05h-.87v-.96h-3.05v-.96h-2.87v.96h-3.05v.96h-.87v1.05h-2v.96h-.87v1.05h-1.04v.87h-.96v2.01h-1.04v2.88h-.87v6.99h.87v2.88h1.04v2.01h.96v.87h1.04v1.04h.87v.96h8.79v-.96h2v-1.04h1.91v-1.83h1.04v-1.05h.96v-4.89h.87v-5.94Z"/>
    <path class="cls-4" d="M292.73,179.4h12.71v1.04h2.87v.89h1.92v.97h1.04v1.06h.96v.97h.87v.98h1.04v1.99h.96v4.84h1.04v1.9h-1.04v1.99h-.96v.95h-4.79v-.95h-2v-1.99h-1.04v-5.79h-.87v-.95h-1.04v-1.04h-2.96v-.95h-7.83v.95h-1.91v1.04h-2v.95h-.96v1.04h-1.04v.86h-.87v1.04h-1.04v.95h-.96v1.9h-1.04v2.94h-.87v10.88h.87v2.87h1.04v.87h.96v2h1.04v1.04h.87v.96h2v1.04h2v.87h4.96v1.13h5.74v-1.13h5.92v-.87h1.92v-1.04h2.87v-.96h5.05v.98h.87v3.02h-.87v.93h-1.04v1.01h-2v.84h-2.87v1.04h-2v.96h-4.79v1.04h-3.05v.96h-11.66v-.96h-3.92v-1.04h-3.05v-.96h-.87v-1.04h-.96v-.84h-1.04v-1.01h-.87v-.93h-1.04v-1.13h-.96v-1.91h-1.04v-2h-.96v-2.87h-1.04v-2.86h-.87v-6.94h.87v-5.81h1.04v-1.91h.96v-2h1.04v-1.91h.96v-1.04h1.04v-.95h.87v-1.04h1.04v-.96h.96v-.98h.87v-.97h2v-1.06h1.04v-.97h2.87v-.89h3.05v-1.04Z"/>
    <path class="cls-4" d="M342.43,179.4h13.66v1.04h1.92v.87h2v.96h1.04v1.04h.96v.96h1.04v1.92h.87v10.79h-.87v20.54h3.74v-.87h3.05v.87h.87v1.04h1.04v2.87h-1.04v1.04h-3.92v.96h-2.87v1.04h-6.79v-1.04h-1.04v-.96h-2v-1.04h-1.91v1.04h-2.87v.96h-4v1.04h-13.58v-1.04h-2v-.96h-1.92v-1.04h-2v-.87h-1.04v-2h-.87v-1.91h-1.04v-6.88h1.04v-1.91h.87v-2h1.04v-1.04h.96v-.96h1.92v-1.04h2v-.87h1.92v-1.04h2.96v-.96h3.92v-.96h5.83v-.87h1.04v.87h4.87v-.88h2.87v-1.05h1.04v-.96h.96v-7.88h-.96v-.96h-1.04v-1.05h-.87v-.96h-2v-.96h-7.83v.96h-2v.96h-1.92v1.04h-.96v.96h-1.04v2.96h-.87v.96h-1.04v1.04h-4.87v-1.04h-.96v-.96h-1.04v-4.96h1.04v-1.92h2v-.96h1.92v-1.04h1.92v-.96h1.92v-.87h4.96v-1.04ZM354.09,212.65h1.04v-7.83h-1.04v-.96h-13.58v.96h-3.05v1.04h-1.92v.96h-1.92v1.04h-1.04v.87h-.87v2h-1.04v3.92h1.04v2h1.92v.87h1.92v1.04h5.83v.96h1.04v-.96h4.87v-1.04h2v-.87h1.92v-1.04h2v-.96h.87v-2Z"/>
    <path class="cls-4" d="M401.87,157.47h7.83v.87h10.79v1.04h1.04v.96h.87v1.04h-.87v3.92h-2v.96h-1.04v1.04h-6.79v-1.04h-4.87v-.96h-7.83v.96h-2v1.04h-.87v.87h-1.04v2h-.96v9.83h.96v.87h1.04v1.04h15.58v-1.04h3.92v1.04h2v3.83h-1.04v1.04h-2.87v.96h-1.04v-.96h-15.67v.96h-1.92v28.46h1.04v1.92h.87v.96h10.79v1.04h2.96v-1.04h1.92v1.04h1.91v3.92h-.87v.96h-4v1.04h-.87v-1.04h-32.38v-.96h-.87v-3.05h.87v-.87h2v-1.04h6.79v-.96h2v-1.04h1.04v-28.29h-1.04v-1.04h-2v-.96h-6.79v-1.04h-.96v-.87h-1.04v-1.04h1.04v-1.91h2v-1.04h6.79v-.87h.96v-7.92h1.04v-3.92h.87v-1.92h1.04v-2h.96v-.96h1.04v-1.04h.87v-.87h2v-1.04h1.04v-.96h1.83v-1.04h3.92v-.87Z"/>
    <path class="cls-4" d="M435.73,179.4h13.67v1.04h1.92v.87h2v.96h1.04v1.04h1.85v1h1.06v1h.88v.95h1.06v1.99h.97v1.04h1.06v1.91h.97v2.86h.96v7.88h-.96v.87h-2.97v1.04h-25.48v.96h-4.97v1.04h-.87v2.87h.87v2h1.04v1.91h.96v.96h1.04v1.04h.87v.96h2v1.04h2v.87h3.92v1.13h7.83v-1.13h5.92v-.87h2.87v-1.04h2.87v-.96h3.92v.98h1.04v3.02h-1.04v.93h-.87v1.01h-2v.84h-2v1.04h-3.92v.96h-3.92v1.04h-4.87v.96h-9.75v-.96h-4v-1.04h-2.87v-.96h-1.92v-1.04h-1.04v-.84h-.96v-1.01h-1.91v-.93h-.96v-1.91h-1.04v-1.04h-.96v-2h-1.04v-4.87h-.87v-8.79h.87v-4.87h1.04v-1.91h.96v-2h1.04v-1.91h.96v-1.04h1.04v-.96h.87v-2h.96v-1h1.04v-1h1.92v-1.04h2v-.96h1.92v-.87h2v-1.04ZM454.35,195.15h.87v-1.04h-.87v-1.91h-1.04v-.96h-.96v-1.04h-1.04v-1.91h-1.92v-.96h-.96v-1.04h-3.05v-.96h-7.66v.96h-2v1.04h-1.04v.96h-.96v1.04h-1.04v.87h-.87v1.04h-1.04v.96h-.96v1.91h-1.04v4.87h15.75v-.87h8.79v-1.04h1.04v-1.92Z"/>
    <path class="cls-4" d="M488.47,179.4h13.66v1.04h1.92v.87h2v.96h1.04v1.04h.96v.96h1.04v1.92h.87v10.79h-.87v20.54h3.74v-.87h3.05v.87h.87v1.04h1.04v2.87h-1.04v1.04h-3.92v.96h-2.87v1.04h-6.79v-1.04h-1.04v-.96h-2v-1.04h-1.91v1.04h-2.87v.96h-4v1.04h-13.58v-1.04h-2v-.96h-1.92v-1.04h-2v-.87h-1.04v-2h-.87v-1.91h-1.04v-6.88h1.04v-1.91h.87v-2h1.04v-1.04h.96v-.96h1.92v-1.04h2v-.87h1.92v-1.04h2.96v-.96h3.92v-.96h5.83v-.87h1.04v.87h4.87v-.88h2.87v-1.05h1.04v-.96h.96v-7.88h-.96v-.96h-1.04v-1.05h-.87v-.96h-2v-.96h-7.83v.96h-2v.96h-1.92v1.04h-.96v.96h-1.04v2.96h-.87v.96h-1.04v1.04h-4.87v-1.04h-.96v-.96h-1.04v-4.96h1.04v-1.92h2v-.96h1.92v-1.04h1.92v-.96h1.92v-.87h4.96v-1.04ZM500.13,212.65h1.04v-7.83h-1.04v-.96h-13.58v.96h-3.05v1.04h-1.92v.96h-1.92v1.04h-1.04v.87h-.87v2h-1.04v3.92h1.04v2h1.92v.87h1.92v1.04h5.83v.96h1.04v-.96h4.87v-1.04h2v-.87h1.92v-1.04h2v-.96h.87v-2Z"/>
    <path class="cls-4" d="M559.75,178.62h2.96v.87h3.92v1.13h2v.92h.87v1h1.04v4.87h-1.04v.87h-.87v1.04h-8.88v-1.04h-2.96v-.87h-.87v.87h-3.92v1.04h-2v.96h-1.92v1.04h-1.04v.96h-.96v1.04h-1.04v.87h-.96v1.04h-1.04v.96h-.87v20.54h.87v.96h1.04v1.04h14.71v.96h.96v1.92h1.04v1.04h-1.04v.96h-.96v1.04h-9.83v-1.04h-.87v1.04h-20.63v-1.04h-.87v-.96h-1.04v-2.96h1.04v-.96h4.79v-1.04h2v-.96h.96v-1.92h1.04v-15.75h-1.04v-1.83h1.04v-1.04h-1.04v-7.92h-.96v-.87h-2v-1.04h-2.96v1.04h-4.87v.87h-.87v-1.92h-1.04v-3.83h1.04v-1h5.74v-.92h5.92v-1.13h4.96v2h.87v1.04h1.04v2.87h.96v2h1.92v-1.04h2v-.96h.96v-1.04h1.04v-.87h1.92v-.96h2v-1h1.92v-.92h2v-1.13h3.83v-.87Z"/>
    <path class="cls-4" d="M585.14,169.65h3.86v1.04h.96v2h1.04v.96h-1.04v5.83h1.04v.96h3.92v.96h1.92v-.96h15.58v-.96h1.04v.96h.96v.97h1.04v3.97h-2v.97h-5.83v-.96h-1.04v.96h-17.58v7.86h-.96v22.61h.96v.9h.96v.98h1.04v.9h9.75v-.9h6.88v-.98h2.87v-.9h4.96v.95h2v2.92h-1.04v.95h-2v1.03h-2v.95h-2.87v1.04h-4.96v.87h-8.79v1.04h-4.79v-1.04h-2.96v-.87h-1.92v-1.04h-2v-2h-1.04v-.96h-.83v-1.91h-1v-22.54h1.04v-8.79h-2v-1.04h-4.96v-.97h-.96v-2.91h.96v-1.06h5.92v-.97h1v-1.9h.83l.09-7.86h1.97v-1.04Z"/>
    <path class="cls-4" d="M638,179.4h13.67v1.04h1.92v.87h2v.96h1.04v1.04h1.85v1h1.06v1h.88v.95h1.06v1.99h.97v1.04h1.06v1.91h.97v2.86h.96v7.88h-.96v.87h-2.97v1.04h-25.48v.96h-4.97v1.04h-.87v2.87h.87v2h1.04v1.91h.96v.96h1.04v1.04h.87v.96h2v1.04h2v.87h3.92v1.13h7.83v-1.13h5.92v-.87h2.87v-1.04h2.87v-.96h3.92v.98h1.04v3.02h-1.04v.93h-.87v1.01h-2v.84h-2v1.04h-3.92v.96h-3.92v1.04h-4.87v.96h-9.75v-.96h-4v-1.04h-2.87v-.96h-1.92v-1.04h-1.04v-.84h-.96v-1.01h-1.91v-.93h-.96v-1.91h-1.04v-1.04h-.96v-2h-1.04v-4.87h-.87v-8.79h.87v-4.87h1.04v-1.91h.96v-2h1.04v-1.91h.96v-1.04h1.04v-.96h.87v-2h.96v-1h1.04v-1h1.92v-1.04h2v-.96h1.92v-.87h2v-1.04ZM656.62,195.15h.87v-1.04h-.87v-1.91h-1.04v-.96h-.96v-1.04h-1.04v-1.91h-1.92v-.96h-.96v-1.04h-3.05v-.96h-7.66v.96h-2v1.04h-1.04v.96h-.96v1.04h-1.04v.87h-.87v1.04h-1.04v.96h-.96v1.91h-1.04v4.87h15.75v-.87h8.79v-1.04h1.04v-1.92Z"/>
    <path class="cls-4" d="M677.51,157.9h5.92v.87h.96v2h1.04v1.04h-1.04v9.66h-.96v9.83h.96v.96h2.96v-.96h4.87v-.87h9.83v.87h2.87v.96h2v1.04h1.04v.96h1.94v.96h.97v.96h.88v1.04h1.06v2h.97v.87h1.06v2h.88v1.91h1v5.92h.92v6.88h-.92v3.92h-1v2.87h-.88v2h-1.06v1.04h-.97v.87h-1.06v1.04h-.88v.96h-.97v1.04h-1.06v.87h-1.93v1.04h-.96v.96h-3.05v1.04h-2.87v.96h-12.71v-.96h-5.83v.96h-4.87v-.96h-1.04v-19.67h1.04v-36.21h-1.04v-1.92h-.96v-.96h-5.83v-1.04h-1.04v-.96h-.96v-1.04h.96v-1.91h1.92v-.96h4.96v-1.04h2.87v-.87ZM708.84,202.81h1.04v-2.87h-1.04v-2.96h-.87v-1.92h-1.04v-1.91h-.96v-1.04h-1.04v-.96h-.96v-1.04h-1.04v-.87h-.87v-1.04h-3.05v-.96h-10.71v.96h-2v1.04h-1.91v1.91h-.96v24.46h.96v1.04h1.04v.87h.87v1.04h3.92v.96h7.92v-.96h1.92v-1.04h2v-.87h.87v-1.04h2v-2h1.04v-.96h.96v-1.91h1.04v-2h.87v-5.92Z"/>
    <path class="cls-4" d="M738.09,179.4h13.67v1.04h1.92v.87h2v.96h1.04v1.04h1.85v1h1.06v1h.88v.95h1.06v1.99h.97v1.04h1.06v1.91h.97v2.86h.96v7.88h-.96v.87h-2.97v1.04h-25.48v.96h-4.97v1.04h-.87v2.87h.87v2h1.04v1.91h.96v.96h1.04v1.04h.87v.96h2v1.04h2v.87h3.92v1.13h7.83v-1.13h5.92v-.87h2.87v-1.04h2.87v-.96h3.92v.98h1.04v3.02h-1.04v.93h-.87v1.01h-2v.84h-2v1.04h-3.92v.96h-3.92v1.04h-4.87v.96h-9.75v-.96h-4v-1.04h-2.87v-.96h-1.92v-1.04h-1.04v-.84h-.96v-1.01h-1.91v-.93h-.96v-1.91h-1.04v-1.04h-.96v-2h-1.04v-4.87h-.87v-8.79h.87v-4.87h1.04v-1.91h.96v-2h1.04v-1.91h.96v-1.04h1.04v-.96h.87v-2h.96v-1h1.04v-1h1.92v-1.04h2v-.96h1.92v-.87h2v-1.04ZM756.71,195.15h.87v-1.04h-.87v-1.91h-1.04v-.96h-.96v-1.04h-1.04v-1.91h-1.92v-.96h-.96v-1.04h-3.05v-.96h-7.66v.96h-2v1.04h-1.04v.96h-.96v1.04h-1.04v.87h-.87v1.04h-1.04v.96h-.96v1.91h-1.04v4.87h15.75v-.87h8.79v-1.04h1.04v-1.92Z"/>
    <path class="cls-4" d="M797.53,157.47h7.83v.87h10.79v1.04h1.04v.96h.87v1.04h-.87v3.92h-2v.96h-1.04v1.04h-6.79v-1.04h-4.87v-.96h-7.83v.96h-2v1.04h-.87v.87h-1.04v2h-.96v9.83h.96v.87h1.04v1.04h15.58v-1.04h3.92v1.04h2v3.83h-1.04v1.04h-2.87v.96h-1.04v-.96h-15.67v.96h-1.92v28.46h1.04v1.92h.87v.96h10.79v1.04h2.96v-1.04h1.92v1.04h1.91v3.92h-.87v.96h-4v1.04h-.87v-1.04h-32.38v-.96h-.87v-3.05h.87v-.87h2v-1.04h6.79v-.96h2v-1.04h1.04v-28.29h-1.04v-1.04h-2v-.96h-6.79v-1.04h-.96v-.87h-1.04v-1.04h1.04v-1.91h2v-1.04h6.79v-.87h.96v-7.92h1.04v-3.92h.87v-1.92h1.04v-2h.96v-.96h1.04v-1.04h.87v-.87h2v-1.04h1.04v-.96h1.83v-1.04h3.92v-.87Z"/>
  </g>
  <path class="cls-1" d="M128.67,1628.77c7.47.68,13.88,1.26,21.35,1.94,0-7.21.11-13.39-.03-19.57-.15-6.31-1.2-12.67-.63-18.89.53-5.83,2.33-11.63,4.2-17.23,1.32-3.98,4.71-5.43,9.07-5.26,8.13.32,16.27.12,24.41.35,2.09.06,4.16.91,6.81,1.52-.69,10.09-1.34,19.77-2.01,29.44-.5,7.22-1.4,14.44-1.44,21.66-.06,9.44,1.83,10.85,11.45,9.93,2.79-.27,5.55-.81,9.26-1.37.76-12.04,1.51-23.9,2.23-35.75.19-3.14-.22-6.41.54-9.4,2.64-10.45,7.57-18.62,20.16-18.53,4.36.03,8.73-.63,13.6-1.01.53-3,1.6-5.78,1.39-8.47-1.54-19.98,3.31-39.42,4.59-59.15.61-9.4.45-18.85,1.06-28.25.59-9.05,1.72-18.07,2.6-27.11.46-4.71.99-9.41,1.3-14.13,1.27-18.87,2.58-37.75,3.63-56.64.37-6.59.12-13.22-.02-19.82-.31-14.15-.89-28.3-1.04-42.45-.09-8.16.54-16.33.68-24.49.09-5.33-.15-10.67-.18-16-.06-11.67-.26-23.35-.08-35.01.35-22.37.9-44.74,1.44-67.11.17-6.94.62-13.87.86-20.8.5-14.44,1.05-28.87,1.37-43.31.13-5.8-2.18-10.34-5.96-15.19-8.1-10.4-15.92-21.38-21.58-33.21-3.8-7.94-4.26-17.7-5.16-26.75-1.09-10.95-1.64-22.03-1.39-33.02.34-15.44,1.58-30.87,2.52-46.29.52-8.49.81-17.02,1.89-25.45,2.48-19.43,2.94-38.91,3.08-58.46.09-11.94,1.67-23.88,2.92-35.78.86-8.21,2.57-9.56,11.2-10.79,7.78-1.11,15.55-2.95,23.35-3.11,5.42-.11,10.86,2.18,16.33,3.18,2.86.52,5.81.58,9.92.96.36,2.1,1.19,4.73,1.21,7.36.15,17.36.15,34.72.17,52.07.02,15.42,0,30.84,0,47.35,5.76-.32,10.28-.57,15.34-.85.11-2.3.62-4.48.26-6.5-3.02-16.83,3.22-32.36,6.83-48.22.43-1.87,3.12-4.32,5.04-4.59,11.52-1.63,23.1-3.1,34.71-3.84,8.27-.53,10.04,1.3,11.38,9.27.57,3.4.48,6.92.52,10.38.13,13.24.15,26.49.32,39.73.03,2.48.58,4.95.91,7.61,7.38,1.99,12.87-3.42,19.25-3.96,6.16-.52,12.39-.11,19.25-.11.07-.86.57-2.42.25-3.79-3.25-13.98-1.02-27.63,2.46-41.16,2.11-8.22,3.4-8.72,11.65-9.73,6.86-.84,13.61-2.66,20.46-3.57,5.89-.78,11.91-1.54,17.8-1.16,9.79.63,15.68,6.32,15.23,16.56-.65,14.78-.76,29.59-1.05,44.39-.03,1.52.22,3.05.45,5.9,15.3-1.92,30.1-3.78,45.68-5.74.02-17.47-.33-34.47,5.78-51.21,11.95-1.01,23.83-1.99,35.71-3.01,5.32-.46,10.63-1.1,15.95-1.45,7.92-.53,9.88.71,10.35,8.4.63,10.37.48,20.79.6,31.19.07,5.92.01,11.84.01,18.71,3.22-.46,4.93-.77,6.65-.95,6.86-.73,13.76-2.24,20.58-1.93,8.23.37,15.52-1.52,23.28-5.37.98-15.71-.33-32.02,7.22-46.55h62.78c-.62,5.31-.79,9.28-1.6,13.11-2.22,10.54-4.45,21.04-1.6,31.81.31,1.17.79,2.3,1.67,4.81,7.69-6.82,16.37-6.04,25.18-5.62,7.99.38,8.56-1.05,9.28-9.42.86-10.01,2.41-19.96,3.81-29.91.7-4.97,3.77-6.88,8.72-8.33,14.44-4.22,29.32-3.48,43.97-5,8.12-.84,10.53,2.12,8.89,10.12-1.9,9.26-4.85,18.31-3.92,27.95.27,2.76.48,5.53.71,8.25h25.66c.68-3.1,1.64-6.7,2.25-10.35,4.46-26.47,6.85-53.13,7.14-79.99.04-3.67.77-7.5,2-10.97,3.14-8.85,4.13-9.26,13.76-9.67,4.72-.2,9.42-.77,14.12-1.24,8.37-.83,11.82.87,14,9.09,1.84,6.95,3.3,14.29,3.16,21.42-.53,27.39-1.77,54.76-2.75,82.14-.08,2.21-.21,4.41-.3,6.62-.55,12.91-1.66,25.83-1.5,38.73.25,20.77,1.08,41.55,2.23,62.3.36,6.59.27,12.48-4.38,17.67-6.71,7.48-12.95,15.42-19.99,22.57-5,5.09-7.23,10.18-6.83,17.6.71,13.21-.55,26.51-.05,39.74.7,18.58,1.88,37.16,3.55,55.68,1.11,12.27.98,24.43.48,36.72-1.25,30.48-1.63,61-2.81,91.48-.39,10.05-1.99,20.07-3.33,30.07-2.7,20.12-2.14,40.2-.54,60.39,1.07,13.45.11,27.05.38,40.58.57,28.64,1.5,57.27,2,85.91.28,16.36,0,32.72,0,49.09,0,1.22.28,2.44.56,4.8,4.74,0,9.34.2,13.92-.04,9.05-.48,9.67.49,9.08,9.24-.91,13.52-1.2,27.09-1.58,40.65-.07,2.45.74,4.93,1.16,7.54,6.91,4.03,13.51,1.26,21.41.12.24-11.76,1.21-23.36.49-34.87-.54-8.59,3.09-15.21,6.78-22.1.54-1,1.78-2.06,2.86-2.27,7.71-1.51,15.41-3.46,23.2-3.97,6.93-.45,9.33,2.88,9.34,10.07.01,11.34-.11,22.68.15,34.01.09,3.99,1.11,7.96,1.87,12.96,5.9-.98,11.05-1.84,17.16-2.86,1.52-12.61,1.55-25.11,0-37.58-1.33-10.64,4.75-21.62,14.57-25.37,5.6-2.14,11.1-4.52,16.74-6.54,6.6-2.37,8.81-1.3,9.41,5.7,1.28,14.76,1.81,29.58,2.98,44.35.39,4.93,1.8,9.79,2.77,14.67.49,2.46,1.45,4.9,1.5,7.36.53,23.65.63,47.3,1.43,70.94.55,16.02,1.52,32.06,3.25,47.99,1.54,14.13,2.62,28.07.84,42.32-1.16,9.3-.65,18.86-.3,28.28.5,13.53-2.23,26.26-7.58,38.63-5.81,13.42-18.41,18.34-29.92,24.7-.26.15-.69.03-.91.2-12.04,8.94-26.84,8.11-40.48,11.16-13.49,3.02-27.19,6.35-40.89,6.85-18.19.67-36.48-1.24-54.72-2.11-3.78-.18-7.56-1.1-11.3-.91-14.11.7-27.51-2.79-40.99-6.21-3.57-.9-7.41-1.01-11.12-.99-5.63.03-11.27.52-16.9.76-19.83.85-39.66,1.59-59.48,2.55-28.34,1.36-56.67,2.85-85,4.31-20.12,1.04-40.34,1.2-60.33,3.39-32.14,3.51-64.26,1.19-96.38,1.27-23.3.06-46.61-1.94-69.91-3.14-20.43-1.06-40.85-2.83-61.29-3.27-16.67-.36-33.37.7-50.04,1.36-2.39.1-4.71,1.61-7.1,2.36-2.38.74-4.77,1.69-7.22,1.95-13.16,1.36-26.39,2.11-39.5,3.87-15.5,2.08-30.87,1.46-46.22-.77-16.83-2.45-33.69-4.82-50.37-8.04-17.2-3.32-32.75-10.62-47.6-20.15-8.71-5.59-11.04-11.93-10.71-21.66.8-23.95.52-47.93.78-71.9.04-3.44.66-6.88.98-10.32.17-1.85.7-3.79.36-5.55-4.56-23.73-3.15-47.45-.15-71.19,1.18-9.33,2.45-18.65,3.23-28.01.86-10.26.04-20.67,4.19-30.54.89-2.11.12-4.97-.06-7.47-.93-13.17-3.97-26.32-1.41-39.53,1.49-7.69,3.84-15.26,6.38-22.68.63-1.84,3.36-3.85,5.39-4.17,7.76-1.23,15.61-1.91,23.45-2.58,9.8-.84,11.4,1.43,10.96,11.17-.91,19.81-1.18,39.65-1.77,61.48ZM543.19,907.58c1.91,15.45-.65,29.34-3.95,43.16-.93,3.89-2.28,6.92-7.12,7.49-15.97,1.9-31.89,4.28-47.85,6.22-8.51,1.04-10.07-.38-10.87-8.68-.39-4.06-.92-8.16-.8-12.22.36-12.61,1.09-25.2,1.5-37.81.22-7.01-3.23-11.21-10.14-10.55-11.81,1.12-23.52,3.37-36.47,5.33,1.83,7.72,3.62,14.35,4.92,21.07,1,5.18,2.43,10.59,1.86,15.69-2.31,20.46-6,22.69-26.38,18.62-4.14-.83-8.7-.46-12.93.24-5.56.91-10.92,3.12-16.49,4-6.81,1.07-11.99-1.05-11.6-10.4.61-14.49.34-29.03.24-43.54-.03-4.94-.66-9.87-1.03-15.11-12.8-2.01-23.86.88-35.68,3.77-.24,20.89,9.84,41.59-1.67,61.61-6.73-.79-13.11-1.54-18.39-2.16-2.27,3.73-3.13,6.97-5.13,7.99-3.22,1.65-3.74,3.88-3.84,6.82-.47,13.56-.98,27.11-1.39,40.67-.03.83.64,1.68,1.08,2.76,3.01.62,6.02,1.24,10.06,2.07-.52,9.14-1.03,18.02-1.58,27.67-2.43-.71-4.39-.81-4.56-1.42-1.45-5.18-5.41-5.37-9.69-5.48-11.78-.3-23.56-.71-35.33-1.16-4.77-.18-8.64.99-10.46,5.73,7.21,14.67,14.25,29.11,21.41,43.49,1.68,3.38,3.58,6.7,5.74,9.79,4.26,6.09,8.63,6.43,13.8,1.09,5.14-5.3,10.77-9.62,18.31-10.51.17-3.64.33-6.96.49-10.28.59.05,1.19.09,1.78.14v38.02c-6.48.1-12.3-3.45-18.05.71-4.76,3.44-10.33,5.77-15.96,8.82-.94,21.47-2.24,42.86-2.71,64.27-.4,18.23.37,36.49.21,54.73-.13,14.77-1.85,29.59-1.1,44.3.92,17.95-1.41,35.75-.34,53.78,1.35,22.88-.63,45.97-1.41,68.96-.9,26.75-2.01,53.47-6.73,79.95-1.13,6.33.93,13.16.68,19.73-.52,13.87-1.43,27.74-2.47,41.58-1.43,19.13-3.19,38.24-4.69,57.37-.54,6.85,1.4,14.04-4.75,20.93,6.37-.67,10.96-1.15,15.69-1.65,3.4-12.33,3.9-24.46,2.07-36.13-1.52-9.68,3.02-16.38,6.92-23.77.76-1.45,2.79-2.55,4.48-3.15,6.24-2.2,12.53-4.25,18.88-6.12,7.45-2.19,9.24-1.11,9.85,6.19.62,7.53.71,15.11,1.28,22.65,1.09,14.35-2.15,29.08,3.81,43.01.46,1.08.17,2.5.18,3.76.16,22.71.25,45.43.53,68.14.05,4.22.87,8.43,1.36,12.82,15.76-4.48,30.53-4.15,45.28-2.58,7.02.75,9.25,3.31,9.69,9.38.75,10.38,1.39,20.76,2.06,31.15.85,13.06-.78,17.17,18.42,15.43,2.1-.19,4.14-.89,6.66-1.46-.28-2.27-.41-4.1-.74-5.89-2.1-11.27-2.51-22.58-.47-33.89,1.5-8.31,3.4-9.75,11.79-10.57,6.27-.61,12.5-1.69,18.77-2.27,4.7-.43,9.47-.77,14.16-.47,5.32.34,8.02,3.02,8.71,8.25.49,3.73.15,7.57.45,11.33.81,10.27,2.26,20.42,6.17,30.48,8.16-1.09,15.57-2.08,23.26-3.11,0-2.1.04-3.63,0-5.17-.25-7.88-.68-15.75-.75-23.63-.06-6.01,2.46-10.13,8.9-11.49,11.72-2.48,23.3-5.59,35.06-7.85,7.75-1.49,11.52,2.3,10.2,10.2-2.65,15.84,1.79,31.34,1.69,47.04-.01,1.77.83,3.55,1.43,5.92,8.38-.53,16.36-1.04,25.42-1.62-.8-8.68-1.6-16.14-2.13-23.62-.33-4.66-.68-9.4-.23-14.03.77-7.97,1.42-8.86,9.59-10.4,8.97-1.69,18.09-2.66,27.17-3.7,9.39-1.07,13.14,2.06,10.94,10.85-2.72,10.89,2.19,20.51,3.21,30.73.41,4.16,3.34,6.82,8.11,5.65,5.41-1.33,10.79-2.79,16.52-4.27-.31-3.55-.56-6.01-.73-8.47-.57-7.85-1.51-15.69-1.57-23.54-.07-8.36.72-9.1,8.53-11.1,11-2.81,22.03-5.51,33.1-7.97,3.25-.72,6.72-.47,11.07-.72,2.45,14.95-1.05,30.38,7.59,43.87,4.66-.25,9.25-.5,14.28-.77.45-16.63-3.85-32.75,2.5-48.45,18.93.61,35.28-7.71,53.24-10.87.49-9.01.91-17.47,1.42-25.92.4-6.6-.23-13.54,1.67-19.69,2.47-7.99,1.81-15.43.21-23.19-3.39-16.41-3.06-32.62,3.49-48.27,1.1-2.63,3.24-6.1,5.56-6.73,10.32-2.8,20.84-4.89,31.36-6.86,4.64-.87,6.9,1.33,7.33,6.24.19,2.19-.03,4.42-.02,6.63.14,16.39.34,32.78.4,49.17.01,3.53.69,6.57,4.77,6.76,5.87.28,11.76.07,18.6.07,0-4.6.19-8-.04-11.37-.52-7.55-.94-15.14-1.98-22.63-1.06-7.63.66-14.53,4.7-20.75,2.42-3.72,3.05-7.36,2.8-11.59-.9-15.43-1.84-30.86-2.35-46.31-.76-23.02-1.2-46.04-1.71-69.07-.38-17.34-.12-34.62,2.4-51.87,1.4-9.61,1.73-19.42,2.01-29.16.52-18.26.18-36.56,1.1-54.79.73-14.46,3.63-28.82,4.13-43.28.97-28.02,2.53-56.02.78-84.15-1.74-27.99-1.47-56.11-2.14-84.17-.15-6.42-.55-12.83-.83-19.25-.64-.13-1.29-.26-1.93-.39-1.17,1.97-2.55,3.85-3.46,5.93-3.24,7.43-8.67,11.13-16.9,10.95-7.88-.17-15.76.08-23.64.09-8.31,0-9.87-2.52-6.81-10.51,8-20.91,16.11-41.78,23.85-62.78,4.55-12.34,10.31-24.47,9.18-38.24-.12-1.5.82-3.07.9-4.62.4-8.38,3.93-16.61,1.61-25.29-2.59-.64-4.92-1.21-7.58-1.86.23-3.26.5-6.05.6-8.84.1-2.74.02-5.48.02-8.89-2.96.35-5.08.42-7.13.87-12.43,2.69-17.76-1.7-17.5-14.11.22-10.63.05-21.27.05-33.29-11.22,1.26-21.4,2.19-31.51,3.62-4.96.7-5.44,4.31-4.34,8.62,2.84,11.13,1.07,21.95-2.85,32.48-.84,2.25-2.28,5.27-4.16,5.94-5.85,2.07-12.04,4.35-18.1,4.36-7.99.01-15.42.54-22.94,3.69-7.52,3.15-11.04.81-12.44-7.58-1.81-10.89-3.14-21.85-.79-32.91.49-2.3.07-4.78.07-7.66h-41.58c-.93,5.95-1.38,10.56,1.84,15.35,3.43,5.11-.08,25.15-4.44,29.72-.63.66-1.47,1.34-2.32,1.52-10.71,2.35-20.61,8.39-32.04,7.36-10.3-.93-20,.18-28.92,6.03-3.4,2.24-6.83.92-8.24-2.9-.84-2.28-1.01-4.91-1.03-7.38-.08-13.57.03-27.14-.02-40.71-.01-3.36-.33-6.71-.56-11.1-14.75,3.11-29.13.27-43.42,5.35ZM802.77,1590.16c-6.32,1.95-11,3.84-15.87,4.79-5.51,1.07-7,4.08-6.96,9.31.06,8.5-.58,17-.8,25.51-.05,1.8.34,3.62.66,5.41.54,2.95,1.78,5.9,1.7,8.82-.54,19.87-1.81,39.73-1.92,59.6-.09,16.06,1.44,32.12,1.59,48.18.1,10.35-1.15,20.71-1.51,31.08-.72,20.47-1.13,40.95-1.92,61.41-.19,4.78,1.4,7.82,5.79,9.54,9.37,3.65,18.44,8.66,28.15,10.68,13.18,2.73,26.83,3.19,40.27,4.61,19.74,2.09,39.53,4.75,59.35,1.71,25.41-3.89,51.19-6.61,74.84-17.75,6.78-3.19,12.98-7.62,19.36-11.63,3.38-2.13,3.73-5.42,3.22-9.17-1.97-14.46-1.56-28.87.59-43.32.68-4.56-.11-9.41-.66-14.08-1.1-9.35-2.81-18.64-3.69-28.01-.8-8.44-.69-16.96-1.25-25.43-1.02-15.35-3.36-30.71-3.12-46.04.42-27.51-2.28-54.75-4.54-82.06-.41-4.92-1.49-9.79-2.43-15.7-4.14,1.44-7.28,2.53-10.41,3.63-.23,1.88-.5,3.09-.51,4.31-.13,11.66-.52,23.33-.22,34.98.35,13.93-5.82,21.18-19.22,22.12-4.68.33-9.36,1.24-13.93,2.33-8.35,1.99-10.7.68-11.67-7.98-.91-8.12-1.38-16.29-1.92-24.45-.45-6.75-.71-13.52-1.12-21.52-5.92,1.07-10.34,1.86-15.05,2.71,0,12.01-.13,23,.04,33.99.19,12.32-4.97,19.18-16.47,22.67-6.93,2.11-13.68,1.71-20.58.6-8.51-1.37-9.7-2.28-9.76-10.8-.09-12.57.35-25.15.55-37.73.05-3.06,0-6.11,0-10.13h-24.9c.68,8.45,1.46,16.51,1.96,24.58.41,6.59.98,13.24.6,19.81-.51,8.69-6.02,16.74-12.06,17.24-9.07.76-18.26,1.04-27.34.52-6.86-.4-7.92-2.09-8.26-9.06-.39-7.86-.45-15.75-.51-23.63-.08-10-.02-20-.02-31.62ZM96.17,1586.45c-1.07,12.73-2.06,24.33-2.99,35.93-.07.91.22,1.86.33,2.79.54,4.6,1.58,9.22,1.51,13.81-.12,8.51-1.09,17.01-1.32,25.52-.74,27.42-3.96,54.82-.6,82.28.19,1.55.1,3.16-.03,4.73-.95,10.96-2.34,21.9-2.84,32.88-.84,18.23-.97,36.49-1.77,54.72-.14,3.29.63,5.41,3.05,7.29,15.28,11.87,32.44,19.27,51.64,21.9,5.93.81,11.85,1.64,17.76,2.58,10.58,1.67,21.13,3.51,31.71,5.14,25.99,4.01,51.5-2.55,77.26-3.74,5.41-.25,10.85-2.99,15.98-5.24,7.44-3.26,14.67-7.03,21.89-10.78,3.51-1.82,3.97-4.87,3.7-8.81-.81-11.92-1.46-23.89-1.25-35.83.21-12,1.17-23.93-2.85-35.6-1.01-2.92-.99-6.22-1.25-9.36-1.09-13.11-2.23-26.21-3.12-39.33-1.22-17.89-2.49-35.77-3.23-53.68-.41-10,.69-20.07.26-30.07-.78-17.91-2.17-35.8-3.44-53.69-.19-2.66-1.15-5.27-1.93-8.69-3.88,1.29-6.74,2.24-9.7,3.22-.68,7.51-1.56,14.39-1.84,21.29-.28,6.92-.04,13.87.11,20.81.14,6.83-3.67,11.9-7.45,16.95-3.01,4.02-7.54,2.17-11.46,2.6-4.37.48-8.83.57-13.09,1.53-8.46,1.9-11.02.59-11.52-8.16-.77-13.2-.89-26.45-1.33-39.67-.08-2.42-.35-4.84-.61-8.33-4.95.63-9.11,1.15-13.92,1.77-.43,12.52-1.12,24.13-1.14,35.74-.03,12.79-5.31,19.96-17.31,23.13-6.04,1.6-11.85.79-17.73-.25-6.46-1.14-8.15-2.75-8.39-9.28-.26-7.23-.07-14.5.24-21.73.43-9.99,1.17-19.98,1.85-31.16-8.24.75-15.2-3.55-23.48-.59.48,8.1,1.21,15.91,1.35,23.74.18,10.66,1.51,21.41-3.05,31.73-2.48,5.6-6.09,8.58-12.31,8.14-5.67-.4-11.38-.39-17-1.13-9.79-1.28-11.82-3.48-11.71-13.54.15-14.81.81-29.61,1.21-44.42.1-3.57.01-7.15.01-11.39-7.46,1.58-13.56,2.87-20.16,4.27ZM755.18,1725c-12.3,2.85-23.85,5.52-36.46,8.44,1.15,5.45,1.95,10.67,3.39,15.71,2.55,8.95,3.16,17.98,1.7,27.11-.9,5.65-2.54,5.96-8.44,5.58-6.76-.44-13.6.38-20.41.61-2.41.08-4.82.01-7.46.01-2.22-7.51-4.72-14.36-6.21-21.42-1.52-7.23-2.06-14.67-3.08-22.45-12.04,2.42-23.03,4.62-34.81,6.99,1.12,4.15,2.72,8.28,3.28,12.55.92,7.11,1.49,14.29,1.56,21.46.04,4.06-2.62,7.31-6.64,8.29-8.22,1.99-16.48,4.11-24.85,5.05-7.11.8-8.84-.68-10.83-7.75-2.81-9.99-4.94-20.17-7.38-30.26-.64-2.63-1.33-5.25-1.9-7.51h-24.66c-2.22,15.83,6.8,31.84-3.42,47.3-10.58,0-21.27-.04-31.97.03-3.42.02-5.33-1.59-5.93-4.81-.46-2.48-.78-4.99-1.07-7.49-1.84-16.23-3.66-32.45-5.63-50.02-12.1,1.35-23.73,2.65-36.29,4.06,1.07,6.6,2.12,11.79,2.71,17.03.56,4.98,1.21,10.06.8,15.01-.58,6.98-2.39,7.94-9.43,9-8.77,1.33-18.51-.13-25.76,9.75-12.08-17.44-10.32-36.75-12.64-55.58h-37.87c-1.73,8.02-1.24,9.65,2.28,21.85,1.63,5.64,2.52,11.72,2.42,17.57-.15,8.88-2.92,12.23-11.78,13.03-9.86.89-19.85.2-30.13.2-3.86-13.86-3.63-27.78-4.93-41.5-.72-7.58-1.43-9.09-8.87-9.08-10.93.02-21.87.87-33.94,1.41.54,8.23.37,15.47,1.6,22.47,2.58,14.72,3.17,29.35,1.55,44.23-.78,7.14-.03,14.45.14,21.68.13,5.34.79,10.69.64,16.02-.35,12.71-4.01,24.63-10.26,36.26,1.78.53,2.91,1.15,4.06,1.17,18.88.28,37.77.36,56.65.74,28.68.58,57.36,2.09,86.03,1.88,35.6-.25,71.24,1.97,106.81-1.26,11.57-1.05,23.2-1.47,34.79-2.34,22.31-1.68,44.6-3.69,66.92-5.17,29.55-1.96,59.12-3.51,88.68-5.3,2.08-.13,4.13-.79,7.23-1.4-1.86-20.12,2.21-39.87-1.78-59.63-1.42-7.06-.21-14.87-2.57-21.48-3.88-10.84-3.02-21.73-3.38-32.69-.2-5.99-.24-11.99-.65-17.96-.16-2.37-1.12-4.68-1.8-7.37ZM253.64,841.98c-.4,5.46-.76,10.09-1.07,14.74-.23,3.45-.49,6.9-.6,10.36-.66,19.75-2.6,39.57-1.59,59.24,1.37,26.74,3.78,53.4,2.22,80.21-.12,2.02.47,4.07.63,5.37h33.4c.92-16.55,1.83-32.21,2.64-47.88.12-2.41.4-4.7-2.79-6.22-1.61-.77-2.72-3.97-2.86-6.15-.29-4.69.16-9.44.37-14.16,1.33-30.83,2.69-61.66,3.97-92.49.07-1.77-.5-3.56-.78-5.38-11.03.78-21.59,1.53-33.53,2.37ZM850.4,985.25c9.33.83,18.46,1.64,28.97,2.58,2.12-50.73.66-100.36,2.51-149.91.19-5.21-.95-10.48-1.47-15.68h-17.66c-.33,2.77-.76,4.91-.81,7.06-.27,11.91-.18,23.83-.74,35.72-.38,8.14-1.87,16.23-2.4,24.37-.91,13.81-.92,27.71-2.35,41.46-.82,7.89.71,16.56-5.19,23.48-.72.84-.81,2.4-.82,3.63-.07,8.79-.04,17.58-.04,27.3ZM879.78,1007.05c-11.98.88-23.56,1.55-35.09,2.75-2.05.21-4.59,2.24-5.67,4.14-10.07,17.57-15.88,36.91-22.81,55.79-.18.48.25,1.19.54,2.34,5.12,0,10.39-.24,15.62.07,4.88.28,8.49-1.64,11.51-5.18,10.02-11.75,19.52-24,30.24-35.08,6.8-7.03,8.22-14.27,5.66-24.83Z"/>
  <path class="cls-1" d="M554.51,1024.37c7.4,3.52,8.58,8.65,11.01,13.02,8.4,15.09,12.18,31.37,15.36,48.27,6.36,33.83,5.05,67.83,5.09,101.86.02,17.34.41,34.7-.28,52.02-.35,8.7-2.65,17.33-4.22,25.96-.71,3.86-2.95,5.74-7.23,5.89-12.92.46-25.82,1.43-38.74,2-3.44.15-6.99-.05-10.37-.69-9.11-1.74-12.44-5.73-12.15-15,.66-21.73,1.22-43.48,2.48-65.18,1.29-22.36,3.24-44.69,5.14-67.01,1.18-13.88,4.31-27.37,8.97-40.54,4.32-12.18,7.93-24.61,12.42-36.72,2.39-6.43,5.94-12.44,9.08-18.57.99-1.93,2.36-3.67,3.43-5.31ZM517.21,1249.01c3.73-1.68,6.06-2.48,8.15-3.71,8.35-4.94,17.48-6.82,27.01-7.39,2.81-.17,5.63-.65,8.39-1.23,10.48-2.21,10.84-2.25,10.69-12.59-.35-24.83,1.43-49.66-1.42-74.5-2.08-18.1-1.76-36.5-4.27-54.52-1.58-11.34-6.28-22.27-9.86-33.29-.61-1.87-2.6-3.28-4.01-4.97-.8.89-1.37,1.26-1.56,1.77-7.05,19.55-14.04,39.11-21.08,58.66-5.48,15.24-8.08,31.12-9.07,47.13-1.52,24.49-2.05,49.05-2.97,73.58-.12,3.3-.02,6.61-.02,11.05Z"/>
  <path class="cls-1" d="M707.01,1201.91c-1.16,14.56-2.16,25.55-2.86,36.56-.53,8.28-4.01,13.76-11.84,17.6-9.45,4.64-19.01,6.51-29.26,5.46-6.03-.62-8.21-2.27-7.7-7.29,3.07-30.58,1.62-61.9,14.33-90.94,1.12-2.57,2.37-5.17,4.02-7.41,5.1-6.91,10.78-7.75,17.87-2.86,6.31,4.35,9.6,10.8,11.72,17.84,3.39,11.28,4.94,22.8,3.72,31.04ZM670.68,1182.78c-2.78,17.66-5.81,34.97-4.81,53.7,5.87-.64,10.79-1.04,15.66-1.76,3.51-.52,5.53-2.65,5.53-6.43,0-5.65.71-11.37-.01-16.92-1.48-11.47-8.02-20.37-16.38-28.59Z"/>
  <path d="M266.87,1246.25v-9.19c.14,0,.27.01.41.02v9.19l-.41-.02Z"/>
  <g>
    <path class="cls-1" d="M432.93,269.22h1.96v.65h1.36v3.38h-.71v.65h-1.37v.59h-13.33v.71h-.65v2.67h-.59v5.99h1.36v.65h8.61v.71h1.36v.65h1.3v.71h.71v.59h1.25v.71h.71v.65h.65v.71h.71v1.3h.59v.65h.71v1.36h.65v1.3h.71v2.67h.65v.65h-.65v2.02h.65v.65h-.65v4.03h-.71v1.3h-.65v1.36h-.71v.65h-.59v2.02h-.71v.65h-.65v.71h-.71v1.3h-.59v.65h-1.36v.71h-.59v.65h-1.36v.59h-1.36v.71h-2.67v.65h-9.96v-.65h-2.67v-.71h-1.36v-.59h-.65v-.65h-.71v-2.07h.71v-.59h3.32v.59h2.67v.71h5.39v-.71h1.96v-.59h1.3v-.71h1.36v-.65h1.3v-.71h.65v-.59h.71v-.71h.65v-1.36h.71v-.65h.59v-1.3h.71v-3.32h.65v-3.38h-.65v-2.67h-.71v-1.24h-.59v-.71h-.71v-1.36h-1.36v-.65h-.65v-.71h-.71v-.59h-1.3v-.71h-7.31v.71h-4.03v-1.36h-.65v-8h.65v-9.31h1.3v-.71h16.06v-.65Z"/>
    <path class="cls-1" d="M452.37,269.22h1.36v.65h3.26v.71h2.01v.59h1.3v.71h1.3v.65h.65v.71h.62v.65h.74v1.3h.68v.65h.62v2.67h.71v5.99h-.71v2.07h-.62v1.3h-.68v.65h-.74v.71h-.62v.59h-.65v1.36h.65v.71h.62v.65h.74v.71h.68v.59h.62v.65h.71v.71h.63v1.3h.69v1.36h.63v2.67h.65v3.97h-.65v2.02h-.63v1.96h-.69v1.36h-.63v1.3h-.71v.71h-.62v.65h-.68v.71h-.74v.65h-.62v.59h-1.31v.71h-1.95v.65h-2.01v.71h-9.96v-.71h-2.07v-.65h-1.25v-.71h-1.3v-.59h-1.36v-.65h-.71v-1.36h-.65v-.71h.65v-.59h.71v-.71h1.96v.71h1.36v.59h1.3v.71h2.67v.65h6.64v-.65h2.02v-.71h1.36v-.59h.65v-.71h.71v-.65h.59v-1.3h.68v-1.36h.62v-2.02h.65v-5.33h-.65v-2.02h-.62v-.65h-.68v-1.3h-1.3v-.71h-.65v-.65h-1.36v-.59h-5.33v-.71h-.59v-.65h-.71v-2.07h.71v-.59h3.91v-.71h2.02v-.65h1.36v-1.3h.65v-1.36h.71v-1.36h.59v-4.62h-.59v-1.36h-.71v-1.3h-.65v-.71h-.71v-.65h-.65v-.71h-.71v-.59h-2.55v-.65h-.71v.65h-2.67v.59h-.65v.71h-.71v.65h-.65v1.3h-.71v1.36h-.59v.71h-.71v.65h-3.32v-.65h-.59v-2.67h.59v-2.07h.71v-.59h.65v-1.36h.59v-.65h1.36v-.71h1.3v-.59h1.36v-.71h3.38v-.65Z"/>
    <path class="cls-1" d="M482.91,268.51h6.01v.71h2.68v.65h.71v.71h1.25v.59h.71v.71h.65v.65h.7v.71h.58v.65h.7v.59h.64v1.36h.74v2.02h.62v1.36h.71v3.32h.65v4.04h.65v11.34h-.65v4.04h-.65v1.96h-.71v1.96h-.62v.71h-.74v1.37h-.64v1.31h-.7v.65h-.58v.65h-.7v1.3h-1.36v.65h-.65v.71h-.6v.65h-.71v.59h-2.68v.71h-4.05v-.71h-3.33v-.59h-1.31v-.65h-1.37v-.71h-.6v-.65h-1.3v-.71h-.65v-.59h-.66v-.65h-.66v-1.37h-.66v-1.31h-.72v-1.37h-.66v-1.96h-.59v-1.96h-.71v-4.75h-.65v-9.32h.65v-6h.71v-2.02h.59v-2.02h.66v-1.31h.72v-1.37h.66v-.71h.66v-1.25h.66v-.71h.65v-.65h.62v-.71h.68v-.59h.59v-.71h2.08v-.65h1.96v-.71ZM494.92,289.87h.71v-2.67h-.71v-3.92h-.65v-2.67h-.71v-2.08h-.65v-1.37h-.59v-1.31h-.71v-.65h-.65v-.71h-.71v-.59h-1.3v-.65h-1.36v-.71h-3.32v.71h-1.3v.65h-1.36v.59h-.59v.71h-.71v.65h-.65v1.31h-.74v1.37h-.62v2.08h-.68v2.67h-.62v5.28h-.65v8.67h.65v4.04h.62v2.67h.68v1.96h.62v.71h.74v1.37h.65v.59h.71v.71h.59v.65h1.36v.65h4.62v-.65h1.36v-.65h1.3v-.71h.71v-.59h.65v-.71h.71v-.65h.59v-2.02h.65v-1.31h.71v-2.67h.65v-6.05h.71v-.65h-.71v-4.04Z"/>
    <path class="cls-1" d="M515.51,268.51h6.01v.71h2.68v.65h.71v.71h1.25v.59h.71v.71h.65v.65h.7v.71h.58v.65h.7v.59h.64v1.36h.74v2.02h.62v1.36h.71v3.32h.65v4.04h.65v11.34h-.65v4.04h-.65v1.96h-.71v1.96h-.62v.71h-.74v1.37h-.64v1.31h-.7v.65h-.58v.65h-.7v1.3h-1.36v.65h-.65v.71h-.6v.65h-.71v.59h-2.68v.71h-4.05v-.71h-3.33v-.59h-1.31v-.65h-1.37v-.71h-.6v-.65h-1.3v-.71h-.65v-.59h-.66v-.65h-.66v-1.37h-.66v-1.31h-.72v-1.37h-.66v-1.96h-.59v-1.96h-.71v-4.75h-.65v-9.32h.65v-6h.71v-2.02h.59v-2.02h.66v-1.31h.72v-1.37h.66v-.71h.66v-1.25h.66v-.71h.65v-.65h.62v-.71h.68v-.59h.59v-.71h2.08v-.65h1.96v-.71ZM527.52,289.87h.71v-2.67h-.71v-3.92h-.65v-2.67h-.71v-2.08h-.65v-1.37h-.59v-1.31h-.71v-.65h-.65v-.71h-.71v-.59h-1.3v-.65h-1.36v-.71h-3.32v.71h-1.3v.65h-1.36v.59h-.59v.71h-.71v.65h-.65v1.31h-.74v1.37h-.62v2.08h-.68v2.67h-.62v5.28h-.65v8.67h.65v4.04h.62v2.67h.68v1.96h.62v.71h.74v1.37h.65v.59h.71v.71h.59v.65h1.36v.65h4.62v-.65h1.36v-.65h1.3v-.71h.71v-.59h.65v-.71h.71v-.65h.59v-2.02h.65v-1.31h.71v-2.67h.65v-6.05h.71v-.65h-.71v-4.04Z"/>
    <path class="cls-1" d="M538.78,292.57h6.7v.71h9.36v-.71h5.22v.71h.71v.59h.65v3.32h-.65v1.36h-2.67v.65h-20.57v-.65h-.71v-.65h-.65v-4.03h.65v-.59h1.96v-.71Z"/>
    <path class="cls-1" d="M575.96,268.51h6.01v.71h2.68v.65h.71v.71h1.25v.59h.71v.71h.65v.65h.7v.71h.58v.65h.7v.59h.64v1.36h.74v2.02h.62v1.36h.71v3.32h.65v4.04h.65v11.34h-.65v4.04h-.65v1.96h-.71v1.96h-.62v.71h-.74v1.37h-.64v1.31h-.7v.65h-.58v.65h-.7v1.3h-1.36v.65h-.65v.71h-.6v.65h-.71v.59h-2.68v.71h-4.05v-.71h-3.33v-.59h-1.31v-.65h-1.37v-.71h-.6v-.65h-1.3v-.71h-.65v-.59h-.66v-.65h-.66v-1.37h-.66v-1.31h-.72v-1.37h-.66v-1.96h-.59v-1.96h-.71v-4.75h-.65v-9.32h.65v-6h.71v-2.02h.59v-2.02h.66v-1.31h.72v-1.37h.66v-.71h.66v-1.25h.66v-.71h.65v-.65h.62v-.71h.68v-.59h.59v-.71h2.08v-.65h1.96v-.71ZM587.98,289.87h.71v-2.67h-.71v-3.92h-.65v-2.67h-.71v-2.08h-.65v-1.37h-.59v-1.31h-.71v-.65h-.65v-.71h-.71v-.59h-1.3v-.65h-1.36v-.71h-3.32v.71h-1.3v.65h-1.36v.59h-.59v.71h-.71v.65h-.65v1.31h-.74v1.37h-.62v2.08h-.68v2.67h-.62v5.28h-.65v8.67h.65v4.04h.62v2.67h.68v1.96h.62v.71h.74v1.37h.65v.59h.71v.71h.59v.65h1.36v.65h4.62v-.65h1.36v-.65h1.3v-.71h.71v-.59h.65v-.71h.71v-.65h.59v-2.02h.65v-1.31h.71v-2.67h.65v-6.05h.71v-.65h-.71v-4.04Z"/>
    <path class="cls-1" d="M596.69,269.87h1.96v.71h7.41v-.71h13.88v.71h.7v.59h.62v.71h.74v3.97h-.74v1.3h-.62v1.36h-.68v1.36h-.62v2.67h-.71v1.96h-.59v1.36h-.71v1.3h-.65v1.36h-.65v1.3h-.71v1.36h-.59v2.67h-.71v1.96h-.65v.71h-.71v1.36h-.59v1.96h-.71v2.07h-.65v1.96h-.71v2.67h-.59v.65h-.71v3.38h-.65v1.3h-.71v2.02h-.65v.59h-.59v1.36h-.71v.71h-1.36v.59h-1.96v-.59h-.71v-.71h-.59v-3.32h.59v-1.36h.71v-1.3h.65v-1.96h.71v-1.36h.59v-2.02h.71v-1.3h.65v-1.3h.71v-2.07h.59v-1.3h.65v-2.02h.71v-1.3h.65v-1.96h.71v-1.36h.59v-2.07h.71v-1.3h.65v-.65h.71v-2.02h.59v-2.02h.71v-1.3h.65v-1.36h.71v-1.3h.59v-2.73h.71v-.59h-.71v-1.36h-19.26v-.71h-.71v-1.24h-.59v-2.07h.59v-.59h1.36v-.71Z"/>
    <path class="cls-1" d="M644.4,269.22h1.96v.65h1.36v3.38h-.71v.65h-1.37v.59h-13.33v.71h-.65v2.67h-.59v5.99h1.36v.65h8.61v.71h1.36v.65h1.3v.71h.71v.59h1.25v.71h.71v.65h.65v.71h.71v1.3h.59v.65h.71v1.36h.65v1.3h.71v2.67h.65v.65h-.65v2.02h.65v.65h-.65v4.03h-.71v1.3h-.65v1.36h-.71v.65h-.59v2.02h-.71v.65h-.65v.71h-.71v1.3h-.59v.65h-1.36v.71h-.59v.65h-1.36v.59h-1.36v.71h-2.67v.65h-9.96v-.65h-2.67v-.71h-1.36v-.59h-.65v-.65h-.71v-2.07h.71v-.59h3.32v.59h2.67v.71h5.39v-.71h1.96v-.59h1.3v-.71h1.36v-.65h1.3v-.71h.65v-.59h.71v-.71h.65v-1.36h.71v-.65h.59v-1.3h.71v-3.32h.65v-3.38h-.65v-2.67h-.71v-1.24h-.59v-.71h-.71v-1.36h-1.36v-.65h-.65v-.71h-.71v-.59h-1.3v-.71h-7.31v.71h-4.03v-1.36h-.65v-8h.65v-9.31h1.3v-.71h16.06v-.65Z"/>
  </g>
  <path class="cls-4" d="M464.42,510.38c.26,2.41.72,4.82.74,7.23.13,16.59-.33,33.2.36,49.76.69,16.46,2.07,32.89,7.56,48.73,2.45,7.08,6.83,10.68,13.99,11.8,3.57.56,7.04,1.78,10.91,2.79-1.11,5.46-2.84,9.23-6.47,12.39-9.99,8.69-16.43,19.8-18.99,32.64-2.3,11.52-3.45,23.28-4.69,34.98-.79,7.47-.76,15.02-1.22,22.52-.07,1.11-.75,2.18-1.77,4.98-1.67-2.81-3.04-4.21-3.37-5.82-4.32-20.83-8.64-41.67-12.66-62.57-3.43-17.83-13.43-30.38-29.67-38.09-2.18-1.03-4.76-1.2-8.26-2.03.94-3.61,1.82-7,2.35-9.04,8.53-3.03,15.86-5.17,22.73-8.3,2.66-1.21,5.18-4.35,6.21-7.18,3.25-8.91,6.17-17.98,8.49-27.17,4.57-18.07,6.23-36.54,6.02-55.15-.06-5.46,2.24-9.41,5.66-12.96.69.16,1.38.33,2.08.49ZM433.83,625.82c1.03,1.1,1.89,1.95,2.68,2.87,8.28,9.56,15.45,19.35,16.85,32.8,1.5,14.37,4.76,28.57,7.25,42.84,3.54-11.3,4.95-22.81,8.54-33.59,3.65-10.97,9.45-21.23,14.58-32.37-13.4-.7-18.11-10.19-20.38-21.45-2.07-10.29-3.4-20.73-5.05-31.1-.25-1.57-.52-3.14-.78-4.72-2.73,4.8-4.02,9.85-6.03,14.58-2.73,6.44-6.45,12.49-8.92,19.01-1.77,4.68-4.05,8.5-8.74,11.12Z"/>
  <path class="cls-4" d="M549.62,491.64c-.42-6.75.61-8.63,6.86-10.09,4.01-.94,8.22-1.09,12.35-1.48,3.77-.35,7.56-.41,11.32-.82,12.59-1.4,19.31-9.92,23.42-20.64,2.2-5.74,2.95-12.11,3.87-18.26,1.85-12.35,3.32-24.77,5.08-37.14.25-1.76,1.23-3.42,2.26-6.17.74,1.77,1.23,2.39,1.23,3.02.06,13.84.18,27.69.02,41.53-.09,7.38-.56,14.77-1.11,22.13-.5,6.73,5.33,14.48,12.58,15.23,2.45.25,4.87.76,7.32.95,6,.46,12.02.8,18.04,1.19-.5,5.1-.47,5.24-4.59,5.9-8.61,1.38-16.37,4.59-23.13,10.14-8.33,6.83-11.28,16.36-13.29,26.36-2.48,12.29-3.19,24.75-3.78,37.24-.13,2.73-.7,5.44-1.06,8.16-.38.02-.77.04-1.15.06-.22-.75-.63-1.49-.64-2.24-.11-13.85-.12-27.69,2.01-41.46.86-5.6,1.25-11.31,1.31-16.98.1-11.05-5.91-17.15-16.72-18.44-9.92-1.18-19.66.81-29.49.91-4.08.04-8.15.56-12.7.9ZM631.33,487.27l-.7-1.28c-1.26-.23-2.51-.48-3.78-.67-7.75-1.19-15.9-7.82-15.09-17,.3-3.34.11-6.72.28-10.07.3-5.85.83-11.7,1.03-17.56.18-5.21.04-10.42.04-15.63-1.47,3.86-2.43,7.75-2.56,11.67-.26,8.26-1.97,16.23-4.86,23.84-3.1,8.17-7.15,15.92-15.04,20.77-.51.31-.8.99-1.33,1.68,1.69.44,2.96.85,4.25,1.08,12.69,2.27,17.14,7.57,17.18,20.48,0,2.68.05,5.37.07,8.05.44.1.88.2,1.32.3,3.15-10.96,8.61-20.2,19.19-25.65Z"/>
  <circle class="cls-4" cx="372.2" cy="277.03" r="12.8"/>
  <rect class="cls-4" x="371.7" y="286.95" width="1" height="30.21"/>
</svg>